<mxfile host="Electron" agent="Mozilla/5.0 (Windows NT 10.0; Win64; x64) AppleWebKit/537.36 (KHTML, like Gecko) draw.io/26.0.16 Chrome/132.0.6834.196 Electron/34.2.0 Safari/537.36" version="26.0.16">
  <diagram name="Page-1" id="kDBr3-XilR8YyD8WlAa1">
    <mxGraphModel dx="1036" dy="614" grid="1" gridSize="10" guides="1" tooltips="1" connect="1" arrows="1" fold="1" page="1" pageScale="1.2" pageWidth="850" pageHeight="1100" math="0" shadow="0">
      <root>
        <mxCell id="0" />
        <mxCell id="1" parent="0" />
        <mxCell id="-HBnphbrW939YIXCwKM4-1" value="" style="rounded=0;whiteSpace=wrap;html=1;fillColor=none;dashed=1;strokeColor=#666666;" parent="1" vertex="1">
          <mxGeometry x="70" y="180" width="140" height="480" as="geometry" />
        </mxCell>
        <mxCell id="-HBnphbrW939YIXCwKM4-3" value="&lt;b&gt;&lt;font style=&quot;font-size: 18px;&quot;&gt;Source&lt;/font&gt;&lt;/b&gt;" style="rounded=0;whiteSpace=wrap;html=1;" parent="1" vertex="1">
          <mxGeometry x="70" y="130" width="140" height="40" as="geometry" />
        </mxCell>
        <mxCell id="-HBnphbrW939YIXCwKM4-5" value="" style="rounded=0;whiteSpace=wrap;html=1;fillColor=none;dashed=1;strokeColor=#666666;" parent="1" vertex="1">
          <mxGeometry x="230" y="180" width="540" height="480" as="geometry" />
        </mxCell>
        <mxCell id="-HBnphbrW939YIXCwKM4-6" value="&lt;font style=&quot;font-size: 15px;&quot;&gt;Bronze Layer&lt;/font&gt;" style="rounded=0;whiteSpace=wrap;html=1;fillColor=#ffe6cc;strokeColor=#d79b00;" parent="1" vertex="1">
          <mxGeometry x="265" y="200" width="110" height="30" as="geometry" />
        </mxCell>
        <mxCell id="-HBnphbrW939YIXCwKM4-7" value="" style="rounded=0;whiteSpace=wrap;html=1;fillColor=none;strokeColor=#8B8B8B;" parent="1" vertex="1">
          <mxGeometry x="245" y="240" width="150" height="400" as="geometry" />
        </mxCell>
        <mxCell id="-HBnphbrW939YIXCwKM4-8" value="&lt;b&gt;&lt;font style=&quot;font-size: 18px;&quot;&gt;Data Warehouse&lt;/font&gt;&lt;/b&gt;" style="rounded=0;whiteSpace=wrap;html=1;" parent="1" vertex="1">
          <mxGeometry x="405" y="130" width="210" height="40" as="geometry" />
        </mxCell>
        <mxCell id="-HBnphbrW939YIXCwKM4-9" value="" style="rounded=0;whiteSpace=wrap;html=1;fillColor=none;dashed=1;strokeColor=#666666;" parent="1" vertex="1">
          <mxGeometry x="790" y="180" width="160" height="480" as="geometry" />
        </mxCell>
        <mxCell id="-HBnphbrW939YIXCwKM4-10" value="&lt;b&gt;&lt;font style=&quot;font-size: 18px;&quot;&gt;Consume&lt;/font&gt;&lt;/b&gt;" style="rounded=0;whiteSpace=wrap;html=1;" parent="1" vertex="1">
          <mxGeometry x="790" y="130" width="160" height="40" as="geometry" />
        </mxCell>
        <mxCell id="-HBnphbrW939YIXCwKM4-11" value="&lt;font style=&quot;font-size: 15px;&quot;&gt;Silver Layer&lt;/font&gt;" style="rounded=0;whiteSpace=wrap;html=1;fillColor=#f5f5f5;strokeColor=#666666;fontColor=#333333;" parent="1" vertex="1">
          <mxGeometry x="450" y="200" width="110" height="30" as="geometry" />
        </mxCell>
        <mxCell id="-HBnphbrW939YIXCwKM4-12" value="" style="rounded=0;whiteSpace=wrap;html=1;fillColor=none;strokeColor=#8B8B8B;" parent="1" vertex="1">
          <mxGeometry x="430" y="240" width="150" height="400" as="geometry" />
        </mxCell>
        <mxCell id="-HBnphbrW939YIXCwKM4-13" value="&lt;font style=&quot;font-size: 15px;&quot;&gt;Gold Layer&lt;/font&gt;" style="rounded=0;whiteSpace=wrap;html=1;fillColor=#F6FF63;strokeColor=#d6b656;" parent="1" vertex="1">
          <mxGeometry x="630" y="200" width="110" height="30" as="geometry" />
        </mxCell>
        <mxCell id="-HBnphbrW939YIXCwKM4-14" value="" style="rounded=0;whiteSpace=wrap;html=1;fillColor=none;strokeColor=#8B8B8B;" parent="1" vertex="1">
          <mxGeometry x="605" y="240" width="150" height="400" as="geometry" />
        </mxCell>
        <mxCell id="-HBnphbrW939YIXCwKM4-15" value="&lt;b&gt;CRM&lt;/b&gt;" style="image;aspect=fixed;html=1;points=[];align=center;fontSize=12;image=img/lib/azure2/general/Folder_Blank.svg;" parent="1" vertex="1">
          <mxGeometry x="110" y="258.12" width="59" height="47.88" as="geometry" />
        </mxCell>
        <mxCell id="-HBnphbrW939YIXCwKM4-16" value="" style="verticalLabelPosition=bottom;html=1;verticalAlign=top;align=center;strokeColor=none;fillColor=#00BEF2;shape=mxgraph.azure.file_2;pointerEvents=1;" parent="1" vertex="1">
          <mxGeometry x="150" y="280" width="27.5" height="30" as="geometry" />
        </mxCell>
        <mxCell id="-HBnphbrW939YIXCwKM4-20" value="&lt;b&gt;ERP&lt;/b&gt;" style="image;aspect=fixed;html=1;points=[];align=center;fontSize=12;image=img/lib/azure2/general/Folder_Blank.svg;" parent="1" vertex="1">
          <mxGeometry x="110" y="373.12" width="59" height="47.88" as="geometry" />
        </mxCell>
        <mxCell id="-HBnphbrW939YIXCwKM4-21" value="" style="verticalLabelPosition=bottom;html=1;verticalAlign=top;align=center;strokeColor=none;fillColor=#00BEF2;shape=mxgraph.azure.file_2;pointerEvents=1;" parent="1" vertex="1">
          <mxGeometry x="150" y="395" width="27.5" height="30" as="geometry" />
        </mxCell>
        <mxCell id="-HBnphbrW939YIXCwKM4-25" value="" style="endArrow=none;html=1;rounded=0;" parent="1" edge="1">
          <mxGeometry width="50" height="50" relative="1" as="geometry">
            <mxPoint x="120" y="450" as="sourcePoint" />
            <mxPoint x="200" y="450" as="targetPoint" />
          </mxGeometry>
        </mxCell>
        <mxCell id="-HBnphbrW939YIXCwKM4-26" value="&lt;font style=&quot;font-size: 10px;&quot;&gt;&lt;b style=&quot;&quot;&gt;Object Type&lt;/b&gt;: CSV file&lt;/font&gt;&lt;div&gt;&lt;span style=&quot;font-size: 10px;&quot;&gt;&lt;br&gt;&lt;/span&gt;&lt;div&gt;&lt;font style=&quot;font-size: 10px;&quot;&gt;&lt;b style=&quot;&quot;&gt;Interface&lt;/b&gt;: files in folders&lt;/font&gt;&lt;/div&gt;&lt;/div&gt;" style="text;html=1;align=center;verticalAlign=middle;whiteSpace=wrap;rounded=0;" parent="1" vertex="1">
          <mxGeometry x="79.75" y="480" width="120.5" height="30" as="geometry" />
        </mxCell>
        <mxCell id="-HBnphbrW939YIXCwKM4-27" value="" style="html=1;verticalLabelPosition=bottom;align=center;labelBackgroundColor=#ffffff;verticalAlign=top;strokeWidth=2;strokeColor=#d79b00;shadow=0;dashed=0;shape=mxgraph.ios7.icons.data;fillColor=#ffe6cc;" parent="1" vertex="1">
          <mxGeometry x="295" y="280" width="50" height="60" as="geometry" />
        </mxCell>
        <mxCell id="-HBnphbrW939YIXCwKM4-28" value="" style="html=1;verticalLabelPosition=bottom;align=center;labelBackgroundColor=#ffffff;verticalAlign=top;strokeWidth=2;strokeColor=#666666;shadow=0;dashed=0;shape=mxgraph.ios7.icons.data;fillColor=#f5f5f5;fontColor=#333333;" parent="1" vertex="1">
          <mxGeometry x="482.5" y="280" width="50" height="60" as="geometry" />
        </mxCell>
        <mxCell id="-HBnphbrW939YIXCwKM4-29" value="" style="html=1;verticalLabelPosition=bottom;align=center;labelBackgroundColor=#ffffff;verticalAlign=top;strokeWidth=2;strokeColor=#d6b656;shadow=0;dashed=0;shape=mxgraph.ios7.icons.data;fillColor=#FFFF66;" parent="1" vertex="1">
          <mxGeometry x="655" y="280" width="50" height="60" as="geometry" />
        </mxCell>
        <mxCell id="-HBnphbrW939YIXCwKM4-30" value="" style="shape=singleArrow;whiteSpace=wrap;html=1;fillColor=#dae8fc;strokeColor=#6c8ebf;" parent="1" vertex="1">
          <mxGeometry x="190" y="345" width="80" height="40" as="geometry" />
        </mxCell>
        <mxCell id="-HBnphbrW939YIXCwKM4-31" value="" style="shape=singleArrow;whiteSpace=wrap;html=1;fillColor=#dae8fc;strokeColor=#6c8ebf;" parent="1" vertex="1">
          <mxGeometry x="390" y="345" width="50" height="40" as="geometry" />
        </mxCell>
        <mxCell id="-HBnphbrW939YIXCwKM4-33" value="" style="shape=singleArrow;whiteSpace=wrap;html=1;fillColor=#dae8fc;strokeColor=#6c8ebf;" parent="1" vertex="1">
          <mxGeometry x="570" y="345" width="50" height="40" as="geometry" />
        </mxCell>
        <mxCell id="-HBnphbrW939YIXCwKM4-34" value="" style="shape=singleArrow;whiteSpace=wrap;html=1;fillColor=#dae8fc;strokeColor=#6c8ebf;" parent="1" vertex="1">
          <mxGeometry x="740" y="345" width="70" height="40" as="geometry" />
        </mxCell>
        <mxCell id="-HBnphbrW939YIXCwKM4-35" value="&lt;font style=&quot;font-size: 11px;&quot;&gt;Raw Data&lt;/font&gt;" style="text;html=1;align=center;verticalAlign=middle;whiteSpace=wrap;rounded=0;" parent="1" vertex="1">
          <mxGeometry x="275" y="355" width="90" height="30" as="geometry" />
        </mxCell>
        <mxCell id="-HBnphbrW939YIXCwKM4-36" value="&lt;font style=&quot;font-size: 11px;&quot;&gt;Cleaned Standardized Data&lt;/font&gt;" style="text;html=1;align=center;verticalAlign=middle;whiteSpace=wrap;rounded=0;" parent="1" vertex="1">
          <mxGeometry x="452.5" y="355" width="110" height="30" as="geometry" />
        </mxCell>
        <mxCell id="-HBnphbrW939YIXCwKM4-37" value="&lt;font style=&quot;font-size: 11px;&quot;&gt;Business - Ready Data&lt;/font&gt;" style="text;html=1;align=center;verticalAlign=middle;whiteSpace=wrap;rounded=0;" parent="1" vertex="1">
          <mxGeometry x="635" y="355" width="90" height="30" as="geometry" />
        </mxCell>
        <mxCell id="-HBnphbrW939YIXCwKM4-39" value="" style="endArrow=none;html=1;rounded=0;fillColor=#ffe6cc;strokeColor=#d79b00;" parent="1" edge="1">
          <mxGeometry width="50" height="50" relative="1" as="geometry">
            <mxPoint x="270" y="400" as="sourcePoint" />
            <mxPoint x="370" y="400" as="targetPoint" />
          </mxGeometry>
        </mxCell>
        <mxCell id="-HBnphbrW939YIXCwKM4-40" value="" style="endArrow=none;html=1;rounded=0;fillColor=#f8cecc;strokeColor=#b85450;" parent="1" edge="1">
          <mxGeometry width="50" height="50" relative="1" as="geometry">
            <mxPoint x="455.5" y="400" as="sourcePoint" />
            <mxPoint x="562.5" y="400" as="targetPoint" />
          </mxGeometry>
        </mxCell>
        <mxCell id="-HBnphbrW939YIXCwKM4-41" value="" style="endArrow=none;html=1;rounded=0;fillColor=#e1d5e7;strokeColor=#9673a6;" parent="1" edge="1">
          <mxGeometry width="50" height="50" relative="1" as="geometry">
            <mxPoint x="635" y="400" as="sourcePoint" />
            <mxPoint x="732" y="400" as="targetPoint" />
          </mxGeometry>
        </mxCell>
        <mxCell id="-HBnphbrW939YIXCwKM4-42" value="&lt;div style=&quot;text-align: left;&quot;&gt;&lt;b style=&quot;font-size: 10px; background-color: transparent; color: light-dark(rgb(0, 0, 0), rgb(255, 255, 255));&quot;&gt;Object Type&lt;/b&gt;&lt;span style=&quot;font-size: 10px; background-color: transparent; color: light-dark(rgb(0, 0, 0), rgb(255, 255, 255));&quot;&gt;: Table&lt;/span&gt;&lt;/div&gt;&lt;div&gt;&lt;div style=&quot;text-align: left;&quot;&gt;&lt;font style=&quot;font-size: 10px;&quot;&gt;&lt;b style=&quot;&quot;&gt;Load&lt;/b&gt;:&lt;/font&gt;&lt;/div&gt;&lt;/div&gt;&lt;div&gt;&lt;ul style=&quot;line-height: 100%;&quot;&gt;&lt;li style=&quot;text-align: left;&quot;&gt;&lt;span style=&quot;background-color: transparent; color: light-dark(rgb(0, 0, 0), rgb(255, 255, 255)); line-height: 100%;&quot;&gt;&lt;font style=&quot;font-size: 10px;&quot;&gt;batch processing&lt;/font&gt;&lt;/span&gt;&lt;/li&gt;&lt;li style=&quot;text-align: left;&quot;&gt;&lt;font style=&quot;line-height: 100%; font-size: 10px;&quot;&gt;full load&lt;/font&gt;&lt;/li&gt;&lt;li style=&quot;text-align: left;&quot;&gt;&lt;font style=&quot;line-height: 100%; font-size: 10px;&quot;&gt;trunc &amp;amp; insert&lt;/font&gt;&lt;/li&gt;&lt;/ul&gt;&lt;/div&gt;&lt;div style=&quot;text-align: left;&quot;&gt;&lt;font style=&quot;font-size: 10px;&quot;&gt;&lt;b&gt;No Transformation&lt;/b&gt;&lt;/font&gt;&lt;/div&gt;&lt;div style=&quot;text-align: left;&quot;&gt;&lt;font style=&quot;font-size: 10px;&quot;&gt;&lt;b&gt;Data Model&lt;/b&gt;: none (as - is)&lt;/font&gt;&lt;/div&gt;" style="text;html=1;align=center;verticalAlign=middle;whiteSpace=wrap;rounded=0;" parent="1" vertex="1">
          <mxGeometry x="260" y="400" width="120" height="140" as="geometry" />
        </mxCell>
        <mxCell id="-HBnphbrW939YIXCwKM4-45" value="&lt;div style=&quot;text-align: left;&quot;&gt;&lt;b style=&quot;font-size: 10px; background-color: transparent; color: light-dark(rgb(0, 0, 0), rgb(255, 255, 255));&quot;&gt;Object Type&lt;/b&gt;&lt;span style=&quot;font-size: 10px; background-color: transparent; color: light-dark(rgb(0, 0, 0), rgb(255, 255, 255));&quot;&gt;: Table&lt;/span&gt;&lt;/div&gt;&lt;div&gt;&lt;div style=&quot;text-align: left;&quot;&gt;&lt;font style=&quot;font-size: 10px;&quot;&gt;&lt;b style=&quot;&quot;&gt;Load&lt;/b&gt;:&lt;/font&gt;&lt;/div&gt;&lt;/div&gt;&lt;div&gt;&lt;ul style=&quot;line-height: 100%;&quot;&gt;&lt;li style=&quot;text-align: left;&quot;&gt;&lt;span style=&quot;background-color: transparent; color: light-dark(rgb(0, 0, 0), rgb(255, 255, 255)); line-height: 100%;&quot;&gt;&lt;font style=&quot;font-size: 10px;&quot;&gt;batch processing&lt;/font&gt;&lt;/span&gt;&lt;/li&gt;&lt;li style=&quot;text-align: left;&quot;&gt;&lt;font style=&quot;line-height: 100%; font-size: 10px;&quot;&gt;full load&lt;/font&gt;&lt;/li&gt;&lt;li style=&quot;text-align: left;&quot;&gt;&lt;font style=&quot;line-height: 100%; font-size: 10px;&quot;&gt;trunc &amp;amp; insert&lt;/font&gt;&lt;/li&gt;&lt;/ul&gt;&lt;/div&gt;&lt;div style=&quot;text-align: left;&quot;&gt;&lt;font style=&quot;font-size: 10px;&quot;&gt;&lt;b&gt;Transformations:&lt;/b&gt;&lt;/font&gt;&lt;/div&gt;&lt;div style=&quot;&quot;&gt;&lt;ul style=&quot;line-height: 100%;&quot;&gt;&lt;li style=&quot;text-align: left;&quot;&gt;&lt;span style=&quot;font-size: 10px; line-height: 100%;&quot;&gt;Data cleaning&amp;nbsp;&lt;/span&gt;&lt;/li&gt;&lt;li style=&quot;text-align: left;&quot;&gt;&lt;span style=&quot;font-size: 10px; line-height: 100%;&quot;&gt;Data Standarization&lt;/span&gt;&lt;/li&gt;&lt;li style=&quot;text-align: left;&quot;&gt;&lt;span style=&quot;font-size: 10px; line-height: 100%;&quot;&gt;Data Normalization&lt;/span&gt;&lt;/li&gt;&lt;li style=&quot;text-align: left;&quot;&gt;&lt;span style=&quot;font-size: 10px; line-height: 100%;&quot;&gt;Derived Columns&lt;/span&gt;&lt;/li&gt;&lt;li style=&quot;text-align: left;&quot;&gt;&lt;span style=&quot;font-size: 10px; line-height: 100%;&quot;&gt;Dara Enrichment&lt;/span&gt;&lt;/li&gt;&lt;/ul&gt;&lt;/div&gt;&lt;div style=&quot;text-align: left;&quot;&gt;&lt;font style=&quot;font-size: 10px;&quot;&gt;&lt;b&gt;Data Model&lt;/b&gt;: none (as - is)&lt;/font&gt;&lt;/div&gt;" style="text;html=1;align=center;verticalAlign=middle;whiteSpace=wrap;rounded=0;" parent="1" vertex="1">
          <mxGeometry x="440" y="400" width="135" height="235" as="geometry" />
        </mxCell>
        <mxCell id="-HBnphbrW939YIXCwKM4-48" value="&lt;div style=&quot;text-align: left;&quot;&gt;&lt;b style=&quot;font-size: 10px; background-color: transparent; color: light-dark(rgb(0, 0, 0), rgb(255, 255, 255));&quot;&gt;Object Type&lt;/b&gt;&lt;span style=&quot;font-size: 10px; background-color: transparent; color: light-dark(rgb(0, 0, 0), rgb(255, 255, 255));&quot;&gt;: Table&lt;/span&gt;&lt;/div&gt;&lt;div&gt;&lt;div style=&quot;text-align: left;&quot;&gt;&lt;font style=&quot;font-size: 10px;&quot;&gt;&lt;b style=&quot;&quot;&gt;Load&lt;/b&gt;: No Load&lt;/font&gt;&lt;/div&gt;&lt;/div&gt;&lt;div style=&quot;text-align: left;&quot;&gt;&lt;font style=&quot;font-size: 10px;&quot;&gt;&lt;b&gt;Transformations:&lt;/b&gt;&lt;/font&gt;&lt;/div&gt;&lt;div style=&quot;&quot;&gt;&lt;ul style=&quot;line-height: 100%;&quot;&gt;&lt;li style=&quot;text-align: left;&quot;&gt;&lt;span style=&quot;font-size: 10px; line-height: 100%;&quot;&gt;Data Integration&lt;/span&gt;&lt;/li&gt;&lt;li style=&quot;text-align: left;&quot;&gt;&lt;span style=&quot;font-size: 10px; line-height: 100%;&quot;&gt;Aggregation&lt;/span&gt;&lt;/li&gt;&lt;li style=&quot;text-align: left;&quot;&gt;&lt;span style=&quot;font-size: 10px; line-height: 100%;&quot;&gt;Business Logic&lt;/span&gt;&lt;/li&gt;&lt;/ul&gt;&lt;/div&gt;&lt;div style=&quot;text-align: left;&quot;&gt;&lt;font style=&quot;font-size: 10px;&quot;&gt;&lt;b&gt;Data Model&lt;/b&gt;:&amp;nbsp;&lt;/font&gt;&lt;/div&gt;&lt;div style=&quot;text-align: left;&quot;&gt;&lt;ul style=&quot;line-height: 100%;&quot;&gt;&lt;li&gt;&lt;font style=&quot;font-size: 10px; line-height: 100%;&quot;&gt;Star Schea&amp;nbsp;&lt;/font&gt;&lt;/li&gt;&lt;li&gt;&lt;font style=&quot;font-size: 10px; line-height: 100%;&quot;&gt;Flat Table&lt;/font&gt;&lt;/li&gt;&lt;li&gt;&lt;font style=&quot;font-size: 10px; line-height: 100%;&quot;&gt;Agregated Table&lt;/font&gt;&lt;/li&gt;&lt;/ul&gt;&lt;/div&gt;" style="text;html=1;align=center;verticalAlign=middle;whiteSpace=wrap;rounded=0;" parent="1" vertex="1">
          <mxGeometry x="612.5" y="400" width="135" height="210" as="geometry" />
        </mxCell>
        <mxCell id="-HBnphbrW939YIXCwKM4-49" value="BI &amp; Reporting" style="shape=image;verticalLabelPosition=bottom;labelBackgroundColor=default;verticalAlign=top;aspect=fixed;imageAspect=0;image=data:image/png,iVBORw0KGgoAAAANSUhEUgAAAgAAAAIACAYAAAD0eNT6AAAACXBIWXMAAA7DAAAOwwHHb6hkAAAAGXRFWHRTb2Z0d2FyZQB3d3cuaW5rc2NhcGUub3Jnm+48GgAAIABJREFUeJzs3XeYHNd95vvvqeo0OSPnDBBgzoQoEiQVKK0kKlBUlle6sq/t1dqWpSt7vSv4rsO1JZFeWYl3Lctray2byqKySJFiJgEwgkTOGZgcO1Wf/aMBCEScjlXd9X6eBw84M11VPwxn+rx16gQQEREREREREREREREREREREREREREREREREREREREREREREREREREREREREREREREREREREREREREREREREREREREREREREREREREREREREREREREREREREREREREREQkuU8mT33fffe7A7gXzPMe0O8Zrz2GawMQreU0REZFqGB1JXlfO8xljxq0xgybnHHZM9sBse/DxO9femS7nNV51vXKe7Euff2a2Mc4ajF3jWK6wsBiIlfMaIiIiQdB7bLyyFzDgOqRcx91vHPOQcXL/8Mn/9pqny3j60nzhC0+1Rjz3LmP5IHB9Oc4pIiISdBUPAKczEHGdYdd1fhhpNZ/+oz+6/kCJpyvOvZ9b350z9vdx+DiWjlKKEBERqTVVDwCnMMbYSMx50SX3wU+uvfHFos5R6AFr1z4Umdba9HsW8/8CrcVcVEREpNb5GQBOMhCLRX86Qerta9fenCzw0Mm79+71q3LYbwAXF1SgiIhInQlEADjOdZ2JaNR5zyc/c8MPJnuMM9kXfvXz6z7okXsKNf4iIiKB4nm5hlQy+/2//fPHvjvZYy7YA2CtNffes/5vLHyytPJERETqR5B6AE4VjbsvJLnhyrVrTfZ8rztvALjvvvvcvv3zvw58oKzViYiI1LigBgCAWNTdMd85uOJ86wic8xGAtdb07p9/L2r8RUREako64y3clZvxil1rz9nOn/MLX71n/V8Y+EhlShMREZFKSme8hX/LEw+d6+tnDQBf+fzTbwb+pGJViYiISMWl09kbP7v2sb8629fOGAPwlXuenAeRZ7W4j4iIyLkFeQzAqRywsQbnutOXET6jB8DYyBfV+IuIiNSHHJhslh+d/vlXBYCv3rPunRbeVL2yREREpNKymVz36Y8CTj4CWLv2ocjU1uYtwIJyXtQYaGyK0dQUpaEpSiSivYJERKT2bd3UV9bzeZ4lk/ZIpz28nAVb1tPjOiazKHq4+cTUwMiJL0xpabqLMjb+02Y2s2RZF/MWttPYFC3XaUVERALhutVTK3buY8eSvLD+KDu3DzI+ft71fCbNy9noHmfG54H/BKcEAGPMp8pxgc6uBq59zSzmzG8rx+lERERCp6cnwa1vnAPMYf2TR3jmqcOk017J582m7Uc4HgAMwFfuXnc18PT5DpqMhUs6uPn184lEJr3FgIiISE0aHRqt2rVSqSz3fWMbfb0TJZ+rqTn6vj/6L9f/64mWuuTV/lZdNpXb3rRQjb+IiEiZxeMRPvAflzN9ZlPJ58qkc5+E38wCeFspJ5s9t5XrXzur5KJERETkHAy8671LaW2LlXQaz8utBDBf/PzTS1zjbCn2RA0NEe76rVXE425JBYmIiNSSaj4CONXIUIav/8+N5Lzipwk0Jtw1juM4N5VSyOXXzFDjLyIiUiUtbVGWLC1tvT7POh92yLGy2BM0NES46OKekooQERGRwqx53Wwct/h1dXLkLnGMw7JiTzB3YXtJBYiIiEjhYnGXrs5E0cfbnJ3pUMLiP3M1119ERMQXC5e2F32s9Wybg6XoVry9o/j0ISIiIsWbNr2x6GMtuA7QXOwJGptLm4ogIiIixensbij62Jy1jgMUfRuv0f8iIiL+aG0t4SbcnrYdsIiIiISDAoCIiEgIKQCIiIiEkAKAiIhICCkAiIiIhJACgIiISAgpAIiIiIRQxO8CRCSYPAtb+mH7gGUwBV4OWmIwp9VwUTc0Rf2uUERKoQAgImfYPwI/3Zlv+E/VOwG7hixPHoQbZhqunOZPfSJSOgUAEXmVHYPwg20Wz577NWkPHtprGUrBLXO1I6hILdIYABE5aSgFP9px/sb/VM8egY29la1JRCpDAUBETnpsvyXtFXbMI/ss2Vxl6hGRylEAEBEAMjnYNlD4cWMZ2D1U/npEpLIUAEQEgCNj+RBQjIOjk3xmICKBoUGAcl7JZJZUMksq6ZFOe3jZHNnsiTd7C+QHgEVjDo5jiEYdEg0REoko8YS2i64lY5nijx0t4VgR8YcCQMilUh4DfRMM9E0wOJBkdCTD6Eia0ZEUYyW+qxtjaGiM0NwSo6UtTmtrjJbWOO2dCbq6GxUQAiZXwk18KceKiD8UAEIklfQ4emSMo4fHOHp4lN6jE4yNpit2PWst42MZxscyHD08dsbXm1tidHY30DOlkWkzmpk6o5lYTKFARKQaFADqWDaT4+CBEfbvHebA3hH6jo37XdKr5Hsa0uzdlR9BZgx0djUwfVYLs+e1MXN2C5GIhqmIiFSCAkCdGRvNsGfnILu2D3Bg/wi5yU7oDgBroa93gr7eCTY+fxTXNUyf1cKceW0sWNxBc0vM7xJFROqGAkAdSCazbN/Sz7ZN/Rw9PIqtnTb/vDzPsn/PMPv3DPPEr/cxbUYzC5d0snBJB41aiF5EpCQKADXKWsuenUNsfrmXvbuHaupOv1iHD45y+OAoT/x6H3Pmt7J8ZQ9zF7RhjJaiFREplAJAjZkYz7DppV5eeekYoyOVG8AXZCfCz56dQzQ1x1i2spuVl/TQ0KheARGRyVIAqBGDA0meX3eYrZv7QnG3P1ljo2k2PHWQ59cdYvHyLi65fCodXQ1+lxU635vYzUcOPu53GVInbDZLdmICL1PdBSYM0BiJ86Gulfx1zw1VvbYfFAACrvfoOM8+c4hd2wfq5tl+JXieZfPGXjZv7GXewnauvHYG3VMa/S4rNNLWYyCXuvALRSbDAZqiJIY9jFfg5hQlsMBYJsmXD68nYSJ8pvuaql3bDwoAATXYn2TdkwfYsbWIxdlDbveOQXbvGGTugjauum6mgoBITTJk4y7R8eoFgFP9r/6NCgBSXWOjadY9cZAtr/Rhdctfkj07h9i7a4gly7u4+oZZNDVrjIBILbHGv3VARrz679FSAAiIXM7y8gtHWffEQdKF7scq52QtbHmljx1bB7j0ymlcdtU0XC0uJCKiABAE+/YM89iv9jI0mPS7lLqVzeZY/9RBtmzq48Y1c5g9r83vkkREfKUA4KNUyuPpR/fzykvH/C4lNEaGUvz4e9tYuKSD1Wvm0tCgXwERCSe9+/lk57YBHv3VXibGtY+qH3ZsHeDAvhFW3zyHRUs7/S5HRKTqFACqLJP2ePIR3fUHQXIiywM/2cmu7QPceMs8bU8sIqGiAFBFR4+M8eBPdulZf8Ds2DrA0cNjrHnDfKbPbPG7HBGRqtBw6Cp56bkjfP/fNqvxD6iR4TT3f3srL2w44ncpIiJVoR6ACvOyOR751V62vNzrdylyAbmc5clH9nHowAhrXj+fWFyPBESkfqkHoIJGhlN855ub1PjXmN07Bvn+v29meLD+FwIRkfBSAKiQo4fH+O43N9PfO+F3KVKE/r4JvvPNTRw6MOp3KSIiFaEAUAG7dgzyw29t0RS/GpdKZvnRd7awfUu/36WIiJSdxgCU2SsvHePRB/do57464XmWB3+6k4nxDKsum+p3OSIiZaMegDJ66bmjPPKAGv96Yy08/vA+nn5sv9+liIiUjXoAyuSZJw7w7NOH/C5DKui5dYcBuGb1LJ8rEREpnXoAymCdGv/QeG7dYZ58ZJ/fZYiIlEwBoEQvbDjMBjX+ofLChiOsf/Kg32WIiJREAaAEL244wpOP6LlwGK1/6iDPrz/sdxkiIkVTACjS9i39PKGu4FB76tH9bN6oRZ5EpDYpABTh4P4RHvr5Lr/LkAB45ME97Nsz7HcZIiIFUwAoUH/fBD/74XY8T3P9JL9/wC9/tEMrPopIzVEAKEAqmeXnP9xOOuX5XYpvYnGXhsYorW1xurobaG2Lk2iIEImE90cpnfb4yfe3MTGe9bsUEZFJ0zoAk2St5YGf7GSozjeIicVcpkxvor09QWtbnNb2eP7vtjiR6PkbeWshnfKYmMgw2J9kcCDJ0ED+74H+JMmJ+m0gR0fS/PLHO3jzO5bgOMbvckTqgpPzr6e1O9rk27WrRQFgkp5+7EBdPuttao4xc3YLU6c3M21mM51dCYwprgEzBuIJl3jCpb0jccbXB/uTHNg3zIF9IxzcP1J3geDg/hGefmw/19042+9SRGqesRY3mfbp4oa/nLban2tXkQLAJOzZNVRXU75a2+LMX9TBgsUdTJ1evZTb3pmgvTPBRZdMAaDv2Dg7tw+ybVMfw0P10bPywoYjTJnWxMIlnX6XUlWz3Wbe0TDf7zKkToxl0+wZ6yWZqH4T1RNp4L9OuY7XN86p+rWrTQHgAsZG03Ux4j8adVi8vIsVq3rontLodzkAdPU00tXTyFXXzeDQgVG2bupj59Z+UjU+xuLXD+xhyrQmWlrjfpdSNdfHp/JXXdP8LkNECqAAcB4nnvvXcld1W0eClZf0sHRFN7G463c55zR9ZjPTZzaz+qbZbN3Ux3PrDzNco+Mt0imPB3+2i7e+a2nRj1NERCpNAeA8XthwhEMHRv0uoygdXQ1cff0M5i/q8LuUgrgRh+Wrelh6UTc7tvbz3DOH6e+rvSl2hw+M8uwzh7nimul+lyIiclYKAOcw0DfBuhpc7725JcZV181gyYqumr77dBzD4mVdLFraxe4dAzz16P6am4Gx4amDzF3QRndPMB65iIicSgHgLHI5y0M/342XzfldyqRFIg5XXjeDVZdNxXVrt+E/nTEwf1EHc+a18fz6wzy77nDN/H/J5Sy//uVu7rhruaYGikjghHf1lvPY+PxRjh4Z87uMSZs+s5l3vn8Fl145ra4a/1O5EYcrrp3Buz94EXPmt/ldzqQdOzLOS88d8bsMEZEzKACcZmw0UzNbvcbjLjfdNo+33rnsrPPu61FrW5zb37aYW29fQCwW3EGNp1r3xMG6meYoIvVDAeA0Tzyyj3Q6+NPQuqc08o73rWDZym6/S/HFoqWdvOsDFzFlWvBX68pmc9o2WkQCRwHgFAf3j7BjS7/fZVzQspXd3PHuZbS2hWee+dm0tMZ4653LWHl8YaEg27V9gAP7RvwuQ0TkJAWAUwT9Ls11DTfdNo+bbpuHG+LNd07luobVa+Zw6+0LAj/+4YmH92KtdpEUkWBQK3Lc9i39HAvwwL9ozOX2O5aEtsv/QhYt7eRNb18S6MWO+non2Lyx1+8yREQABQAAcp7l6ccP+F3GOTU0RHjLO5cyc3aL36UE2oxZLbzlXUtpbIr6Xco5bXj6EJ6nXgAR8Z8CALD55V5GAjpKu6U1xlvfvYyeqVpMZjK6exq5493LaAvorIjRkTSbXjrmdxkiIgoAuZzluYDu9NfUHOUt71wamil+5dLSFuct71xCS2vM71LO6tlnDpGtkcWMRKR+hT4AbHmlL5B3//GEy5vuWEJLyEf6F6upOcbtdywh4cN2ohcyPpbRWAAR8V2oA4C18Py6Q36XcYZIxOGNb11MZ3eD36XUtI7OBLffsZhINHg/5i8+e0QzAkTEV8F7Z6yiPTsHA7fBjDFw25sWMG1Gs9+l1IUp05p4/ZsXBm4t/uGhFLu2D/pdhoiEWKgDQBDXaL/imhnMXdDudxl1Zfa8Nq5ZPdPvMs7w/Lpgjj0RkXAIbQDo650I3Mpss+e2csW1M/wuoy5dcsU05i4I1iZCR4+MBXrtCRGpb6ENAJteDNZUrOaWGLe8cQEmWD3VdWXN6xfQ0hqsQZWbNBhQRHwSygDgZXNs29LndxknGQO3vHEBiYbgjVivJ/GEyy1vnB+o8QDbN/eTzWhKoIhUXygDwK4dg6SSwdnxb8XFPUyfqUF/1TBtRjOXXjXN7zJOSqc9tm8N/gZUIlJ/QhkANr8cnG7XpuYY16ye5XcZoXL51dMDtb7Ctk3B6Y0SkfAIXQBITmQ5GKDBf69ZM4dYLLgb2NSjSMThNWvm+F3GSQf3jzA2mvG7DBEJmdAFgF3bB8jlgrEAy9wFbcxbqCl/fpgzLzjfe2vzP5ciItUUugCwc1sw3miNgatvUNe/n264aTZuJBi/Ajs0DkBEqiwY735Vkkp5gZn7v3hZF11a6tdXLa1xll3U7XcZABw+OMrERNbvMkQkREIVAPbvGQ5E97/jGK7Ugj+BcNlV03Bc/6cFWpv/+RQRqZZQBYB9e4b8LgGApSu6aG0Pzij0MGtuibFkWZffZQCwb3cwfj5FJBxCtfLMvt3BuMNaedlUv0uQU1x29XS2vNLn++58e3cPYS01uRqk3fgKuW/c73cZxbEWk0zD4DB4VV4fxBhobsL81nth1YrqXltCLzQ9AAP9ScZG036XwfSZLXr2HzBt7XHmL/J/RkByIktf77jfZYSPMdiGOLarHahy+rIWRkaxX/5HGFQPkFRXaALA4QPBGPy38tIpfpcgZ7E0QIMBxSexKPg1KySbxT6xzp9rS2iFJwAc8n/XtabmaCDuNOVMs+e20tAY9bsMDh9QAPCV6+OiXH1aEVKqKzQB4FAAegAWLukM1EY08huOY1i8rNPvMjikACAiVRKKAJBKZhkeTPldhu7+A27Jcv9nA4yNpgMxVkVE6l8oAkBf74TfJdDQGGXaDO34F2TdUxrp6Ez4XUYgfl5FpP6FIgD0HvV/ZPX8Re2YWpzfFTKz5rb5XQL9CgAiUgWhCABBuKOau0Dd/7Vg5uwWv0tQABCRqghFABjo8/8Nddr0Jr9LkEmYPqvF956aIARWEal/oQgAw0P+DgDs6GogngjVoos1Kx536ZnS6GsNw4NJX68vIuFQ9wEgnfZI+rzL2lTd/deUGT4/BshkctoZUEQqriZuS0dshrVDG/hV6iDjtrA3Rs+zjN3u77SqhoYI0cPPvOpz1lrS6RQj4yP4sQR9zLjc2jaff5pxG5H6z4EF6fa5BwBgZDhFQ0NN/HqKSI2qiXeY9/b9ip8n9xd/At9vwNNwttzigpuIEButfpfvBFnu79vMnbk03531H6p+/SBr7/B/KuDIUIopU33/wRWROhb4ALA7O1Ja4x9wXjSCdQwm589OdA8P7/HlukEWhAAwNprxuwSRM2xKD3DfyDaemTjMgfQI4zZDyvOIuy6tToKF8TZubJrJe1qW0uloy/OgC3wA2Of5v4Z/pVnHweSqvA3pcV61tz+tAZGoQ1NzzNcV+ZJJjQGQYDjsjfOpY4/zwNAuxtLnnqFyhCG2jR7hZ31b+VPnYboTLXyw4yI+1XEFDcbHPRbknAL/8NffHdolrNp9XhHQ74GrIsO5DJ8efIZlW7/OD469ct7G/ww5S+/4MHcfeJJZm+/lE8ceI2NzlStWihL4ACDih9Y2f7svFQDETz9J7mPVkW9z9+hLjLckyDbEgOLWx8hmM/zD4Q3M3/41HkkeLG+hUhIFAJGziMX87bJM6RGA+CCH5U+H1vG23l9wyPvNEuqZRIxUSwO2hEWyRpLjvHnHd/iL/vXlKFXKQAFA5CyiMX9/NTxPD7+kurLk+ED/w3xu5MWzfj0XcUi2NmLd4n83TC7H3x58gt85+lDR55DyUQAQOYtY1N8eAAUAqSYLfLT/Ub41vvP8L3QMyeYE1im+J8BYyzePvMR/PvZo0eeQ8lAAEDmLaNzvAKABU1I9nx15gX8d3z65FzsOqebGkh4HgOXrR57jX0a2lHAOKZUCgMhZxKJ6BCDhsC59jM8MbSjoGOsaMo2xkq5rrOXj+x9gf7b+p3oHVeDXARDxQ3NkM7/zjh/6dv3h8VZgpW/Xl3DwsHxs4FG8IiZce7EoXtrDzRQ/YDWXzXLXgZ/w2Nx3FX0OKZ4CgMhZTJ0agX7/rt/a5v9+BKHkZ8dLpPqPnf732HZezgwUfXy2IVZSAAB4ceQgD44f4obY9JLOUwkRJ/+nXikAiJyN9XcLaYx+NavOWsj6twSzWbq4qtezwN+MvFDSOXKugxeL4KaLDwHGwkf3/JrfHXl3SbVUSmscFrXDldMMPi8PUnZ1nG1ESpDzOwBo6dSqshaGR8GnPTmYMxMuv6Sql3w4dZBt2aGSz+PFoyWfo987yogzfuEX+mA4Bc8ega+9aHnuiN/VlJduM0TOxvcegNLfVKvJdHRgrrjU7zKKk07D0T6I9kNXZ3WvHYvBiiWYN72+utcFvj2+qyzn8VwXHAdyJcxcsZbHE8/zhvHry1JTJXgWHthjyeYMVwXvaUVRFABEziZX/S2aX8Vp8Pf6hZo5HXPjDL+rkAKUbZdVA17ExU2XNnV1u7MbCG4AOOHX+y2zWw3T6mC3bj0CEDmbrI8jAAGcZn+vL3XtsDfBXm+0bOfLlWGk3BCDZaik8qyFx/bXxzRdBQCRs8kc8/f6rmYBSOVszJQ34OZKWB745DlyHuPGvy24C7FnGOphuw4FAJHT2TR4I/7W4CgASOUcypV3wJ11Sm9KjLUci/rc8zZJOQu9BeyOHFQKACKnyxzD3wnhgNvq7/WlrvWXe5ZLKasCn2KM2mlVU57fFZROAUDkdH53/wNEqjwaXULFlKvFPs6W6XRZaqdfvbEOhtArAIicLnPQ7wog0uF3BVLHGsq8zoQpU4dZC7UxtD7qQE8dPKVTABA5XXKHv9d34r6MAYiV0Cb4vHeSFGiWW+aGthwLKBno9Grj0dfSzvpYIjjw/4TAFyj1JTcOaZ97ACJdvly2tYTN3dri5e1SlspaGmkr6/mccmxf7bi0ecGf/hpz4YaZ9fHzHvj2dXGkrcxPq4LHlLKCVolibh08yCqn5E58HwAY9WeZsZ5GaC4yBMwvb3siFTY/0kqPkyjb+Zxs6SPiGk3wG3/HwJsXGlrrZE+AwAeAqW4Dv9283O8yKiaSymD8Wn8c+K3u6q4/Hngpn7v/AaLTfLv05VMLj9uzWmBqbTy6leMMcF1kZtnOV44egDm5YK8k2RaHdy8zLGz3u5LyqYnbv//Rfj1XRLv5eXI/A0VMX0mlPI4dGatAZZPnuobpM1tOfpzNeQykxjiaHYZY9d89uyMJPtK1it9rVwB4lYltflcAsam+XfqKqbClHyb76xJ14Na59d5HV38OjkLH0XnQXnrgNblcGXoADGsyl5EIUItkgMYodCZgYbthRTe4dfajHqBv97kZ4ENNS/hQ05Kijs+kPf7x289hfe7Zfcu7ljJjVsuFXyj+SO+DbK/fVfj2CADyA5vuWGz49hZ7wYVOYi68ZZGpi9HQYXJwFL61xbLQm01rSxPDbmk3R26q9C2UuxPN/PXinpLPI4UJ/COAcojGXNo6yve8q1g7ttbGKlehNfas3xXk5/+7/obElhi8b0V+x7NzjXRe0A4fuMjo2X+NOdH4pz1wcbh+bEVJ5zPWEkmXPnf/T6ZcU/I5pHA10QNQDlOmNjHY7+8Obzu3DnDDTXNwnDrrR6oH1oOxF/2uAuLz/K4AyN/d3zTbcP0M2D0EAynwcpaWmGFuK3UzCCpMTm38T7hubAVPNW1i0C1uYyA3mS55DFN3ooWPtl1U0jmkOKHoAQCYHoCu94mJLLt31MaOV6GT3Aw5f8eJABCf63cFrxJzYUknXDMdrp9pWNWjxr8Wna3xB4hYl7cN3lDUTCvj5YikSrz7N4Z/mfXG0s4hRQtNAJgZgAAA8NJzR/wuQc5mdIPfFeQFLABI7TtX43/C4tRMriniUUBsPIkpcWDV+3su5voG/8a8hF1oAkBre5zmlhJWOimTQwdGOerzjAQ5TeYoTGzyu4r8s/+ofzMApP5cqPE/4fahq1mYmvw0vNh4Eidb2tS/VS3T+dLUm0o6h5QmNAEAYNacYCwzufH5o36XIKca/hW+L/4DkFhK2bZVk9CbbOMP+QGB7xu4hXnpC69BER1P4ZbY9b+gqYtfz3tXSeeQ0oUqAMxdEIwhy9s39zM0WObtOKU42b5gDP4DaChumqvI6Qpp/E+I56J8qO91XDQx75yviY2niJQ47e+qtllsWPB+XIVd34UqAMya24YbgJUccjnLuicO+F2GAAw/DPi3FPNvOJBY5HcRUgeKafxPiNkI7xlYwxuHriJqf7M7lMlZ4sMTJc35N8bwB9Ov4YE57whXwxNgofr/EI06gVmIZ8fWfnqPjvtdRrhle4Mx9x8gMd+XHQClvpTS+J9ggNVjq/hPx+5geXIu0Yk0iaExHK/4ky5p6uGZJR/kz7uvLb4wKbtQBQCABYuDsc+6tfD0Y/v9LiPcBu7Pz/8PgkYtySylKUfjf6qubCsfG1nDn7ddz9RE4TdOxnG4qHkqP174LtYteC9LYnW0iH6dCM1CQCcsWNzJYw/txfP8H/S1b88wO7cNBCaUhMr4izCxxe8qjnOgobQV2STcyt34AzRF4d3LHLoaLuGPp1zCgcwoXxx4nl+P7WdvaoixbJqczT8+M8YQcRxa3ARLEp28uXUBH21fRYNxL3AV8VPoAkA84TJrbht7dgZjQZ7HHtrLzNmtxBP6RamaXAoGfuR3Fb+RWARu8LdClWCqXONv6Gr4zedmRpv56ymrz3ht2nrE1NDXpNA9AgBYsqzT7xJOGh/L8NSj+/wuI1yGHgBv2O8qfqPpMr8rkBpVrcb/fNT4165QBoB5izpINASn82PTxl727w1Qg1TPkjth5HG/q/gNpwEaV/pdhdSgIDT+UttCGQBc17BkeZffZbzKgz/dydho6dtqynl4o9D3TYIx7e+4psvARP2uQmqMGn8ph1AGAIAVq4K19/TEeJYHf7qTXIk7a8m5WOj7d/BG/C7k1Zqu9LsCqTFq/KVcQhsA2jsTgVka+ISD+0dY/+RBv8uoT0MPQnKb31W8WnwBxCa//rqIGn8pp9AGAICLrwjexivPPnOIra/0+V1GfRnfCEO/8ruKM7WeOaJa5FzU+Eu5hToAzJnXRld38H7yH/7lbvbv0aDAskjuhL5/I1DP/QGiPdCw3O8qpEao8ZdUkwaEAAAgAElEQVRKCHUAAFh1efB6AXI5yy9+vIO+3gm/S6lt6YPQ+89gS9u5rCJaXoN2/pPJUOMvlRL6ALBkeRet7XG/yzhDOuXx4+9uZaA/6XcptSnbD8e+DrkAfv8i7dB0ud9VSA1Q4y+VFPoA4DiGy6+e7ncZZzU+luGH39pM7zFtGlSQzFE4+v8Hb8T/Ca23gAnOOhQSTGr8pdJCHwAg3wvQFsBeAMhPD7z/21s5emTM71JqQ3o/HLkXssFY6vkMkS7d/csFqfGXalAAIN8LcPUNM/0u45xSySw/+vZW9u4a8ruUYJvYkm/8cwEOS223gpZOlfNQ4y/VogBw3MIlnUybEdwNWdJpj598f5vWCTiX0XXHB/wFeDXF2CxoutTvKiTA1PhLNSkAnOL61872u4QLWv/UQR74yU6y2YBNa/OLzUD/d6H/O2DL+K5ZdgY63oxG/su5qPGXalMAOMWUaU2B2yPgbLZv6ed739xEf9inCWaOwuEvwugzfldyYU2XQnye31VIQKnxFz8oAJzmuhtnEU8E/xltX+8E3/nXV3hu3WFs6LYPsPlG//DfQ+aI38VcmBOH9jf6XYUElBp/8YsCwGkaGqNcc8Msv8uYFM+zPP3Yfu7/9hYGBwI4370SMsfg6Nfy3f5Bft5/qvY3gBusfSckGNT4i58UAM5i+aqeQA8IPN3B/SPc9y8v8+Qj+0mX850kSGwGhh6Aw38Hye1+VzN58TnQfK3fVUgAqfEXvykAnIUxcPPr5xGJ1s63J+dZXthwmH/7p41sfrm3frYVth6MbYCDn80HgEAP9DuNiUDnO9HAPzmdGn8Jgtpp4aqsrT3Btatr41HAqcbHMjz8i9188+sbeem5I3i1OlvAejD2LBy6B/q+BV4Nbo7U/gaITvG7CgkYNf4SFFqP9DxWXjqF3TsHa3JnvpHhFI8/vI/n1x/hksunsvSiLuKJGvjfnUvB2DoYfqQ2G/0TEouh5Qa/q5CAUeMvQVIDLYK/bnnDAr71jZcZH6uRAWenGRtN88Qj+3j68f3MW9jOkuVdzJnfhjFB6pa2kNyRv+Mf3wg27XdBpXGaoOtdqOtfTqXGX4JGAeACGhojrHnDfH783a01Pd3O8yw7tg6wY+sALa0x5i1sZ+78dmbMasFxfWiorAfpvTD+Mow/D95o9WuoCJNv/DXqX06hxl+CSAFgEmbNaeWKa2aw/qn6WIZ3ZDjNS88d5aXnjhKNucya08qMWS1MmdZEd08DbqQSQ0NykD4Eqd35P8ltwdyqt1Rtt0DDMr+rkABR4y9BpQAwSVdcO4PeY+Ps3hHQXeaKlEl77No+wK7tA0B+Y6Sunga6pzTR2hqjpS1OS2uMltY4iYYIjnOe3oLcRL773huFbG9+zn7mGGSPQaa39rv2L6RhaT4AiBynxl+CTAFgkoyBNW+Yz/e+uYmB/jq8cz0ul7McOzLOsSPjZ/26MRCLu0QiDsvmbeeyxa8QcTP137hfSKQbuu5Cz/3lBDX+EnSaBliAWMzlDW9dRKIhvLnJWkglPcZGM1hvnIgzpsbfaYQpHwZH78qSp8ZfaoECQIHa2hPcfsfimlokSCrIRKDnQ/keABHU+EvtUCtWhClTm7jt9gUBm0on1Weg606Iz/W7EAkINf5SSxQAijR3QTs33jLH7zLENwY63waNF/tdiASEGn+pNQoAJVi+qofVNysEhFL7G6D5Gr+rkIBQ4y+1SAGgRCsvncI1N8z0uwypprZbofW1flchAaHGX2qVAkAZXHb1dK67sfY2DpIitN2a/yOCGn+pbQoAZXLJFdO48Za5aFxgvTLQ8WY1/nKSGn+pdeGd0F4BKy7uIRJxePiXu8nlanjjADmNA11vh6Yr/S5EAqKeGv/RNAwkLcksBP1tywLZHExkTFm/9wCOgUQE5rZBZ0gCmHoAymzJii7edMdiYnHX71KkHEwMej6oxl9OqqfG/9i45cCIZTwT/MYf8utsRh1ojVuaouUtOGdhPAObemHPUFlPHVgKABUwc04rb33XUpqaY36XIqVwW2Hq72hzHzmpnhr/0TT0T1T3muXUEIVYhe6z9o/AcKoy5w4SBYAK6epp5J3vX8GMWS1+lyLFiM2Gab8PsRl+VyIBUU+NP+S7/WtdQ5l7AU6ysC8EvQAKABXU0BDhze9YwspLp/hdihSi6XKY+rF8D4AI9df4AySz/ly3nCqyc/lx43Xw/bkQDQKsMMcxrL55Dt09jTz20F6y2ZzfJcm5mAh0vBWar/K7EgmQemz8oTae+V9IJSdd1cP350IUAKpk2cpups1o5pc/3kFfbw0/eKtX0Sn57XzD1OWfG4XRFyF1ALyJ/F7Pbis0LoDEYnASfldYJRaSeyG5A7IjYHPgtkDDXA56i/jWFuqu8RcBBYCqau9McMd7lvPkI/t4+YVjfpcjAJj8HX/HfwAT9buYysv0wtH7YHQTpIfyjd3ZOBGId0HbtdD9pvyWx/XEZqD/FzDwOCQPQu7s/b3TjctH4l1s9a7isfTbSNnSQlFzDO5aZugIS7aSQFMAqLJIxOE1a+ayaGkXD/1iF8ODIRhqGlRuG3S+HRqW+l1J5XnD0P8zOPpT8DIXfn0uCxNHYOIH0Psz6F4DPXfWQUjKwejTcOAbkLrwKC9jPZrtUS43P+ayxM/ZZFfzs9QH8Wzh3wc1/hI0GgTok+kzm3nn+1aw4uIerR5YdQaar4bpfxSOxn/iFTh0D0w8C809EGsq7PhsCg7/FLb+AUzsrEyN1ZA+AIe/CP0/gIYWaGynkF8+Y7Os4GE+3vB7LI4+X9Cl1fhLECkA+CgWc7nxlrm8470rmDK1wDdlKU50an5uf+fbwYn7XU2FWRj8CRz7F8gdH3diHGjsyP8pdAhVagh2/ncYfrrslVbcxCY4ci+kD/7mc7HmfCAyhU0mj+QmeFvkblYnfjCp1zdF4c6lavwleBQAAqB7SiNvu2sZN9w0h0RCT2UqwmnMP+ef/p8hPtfvaqpj8Gcw/Aj5BVRPE2uCps7Ch1F7GdjzJRh8uAwFVsnounwIsukzv+bGoGUKOAWuKGMt1/Ftborfd96XNcfgPcs14E+CSQEgIBzHsOqyKbznt1Zx2VXTcCs5wTVMjAstN8CMT+b/DsuP/OjTMPzr878m2gCJ9sLPbXOw/3/BxK7iaqum1F4Y+D5wnum3jgtN3fnekQJd5fyIi2OPnfVr6vaXoAvJu2HtiCdcrlk9i7s+eBHLLurGcTRAoDgGGlfln/N3/AdwQnQLlt6ff849GfHmfBAoVC4De/4GbIAHsXqj0PsNsJOYw+dGiwxDlte5X6PdHH3Vp9XtL7VAASCgWtri3PS6edz1oZUsVRAogJNfyW/GJ6D7fRDp8rugKrPQ/13Oe8d7uoZ2ilpSJT0Kh/6l8OOqZeD+/OyHyYo3QqTwFtvYLG9JfPXkx5rnL7VCASDgWtvj3Py6ebz/oxdz5bUziCe0y+BZmdhvuvq77oRIt98V+WN846sHuk2G40KiyD0r+h/P32kHTfogjL9Y+HENbUVdbqrdxlx3k575S03RiLMa0dgU5crrZnDxFVPZvLGXV148xuBA0u+y/Bfpzk/pa74qXN385zLyRHHHxZohOcJZBwyeTy5D765/5ZX4/1XcdStkqX2cqYX+WyD/KCASz099LNCt8f+NXfiX6vaXmqEAUGNiMZeLL5/KxZdP5eD+ETa91Muu7QPh2mPARKBhOTRfA4mFVHZF8BriDUFqd3HHOg5E45ApPFS2pp7n6f7iLlsJEZPl2p6Xiu/fjDUWFQA6c3shNgZoSq/UBgWAGjZjVgszZrWQzc5lz84htm7qZd+eYXJePe5i4UB8NjRdAY0Xh2id+gJMbKXgO/hTRRuKCgCx3AitTj/Duc7ir11Gs2K7iDlnmfI3WdEGYKCIAy0MPQWdtxR/bZEqUgCoA5GIw8IlHSxc0kEymWXvriH27Bxi354h0qky7mJSbU4DJBblV+trWFF/69GXW3p/ace7seKOs5aV0Sd5IvWm0q5fJtMje0s7gXHy00cnM3vgdKMvKgBIzVAAqDOJRIQly7tYsryLXM5y+OAoB/eNcHD/CEcOj+EF+VGBiUBsNsTnQ8Pi4wv2aJzqpGVL3GDKKf7tYIq7r7Rrl1FntK/0k0SikCkiAKSOlH5tkSpRAKhjjmNOPiYA8LI5jh0d59iRMY4ezv89NJjCWj8eGTgQ7ckvzRublW/sY7MKXpZVTuGNlXa8Mfk/Rfw8NDJS2rXLqNkpYOrfORUZPEv9fyBSRQoAIeJGHKbNaGbajOaTn/M8y+BAksH+CQYHUowMpRgdTTM2kmZkOF3a4EInkd9X3W2DSCdEOo7/fbzhV2NfZmUIcsYpquvbNZPYYbBKnELWQDiXIlYFBM69vbJIACkAhJzrGrq6G+jqPvsUOs+zpJJZUimPdCpLJpN/g/OyORyvnZH4xbS0HR/17DTku/GdxvwfNfDVZYp8hn+qIhuwtA3OFMxMEVv1nqHYhryExygi1aafVjkv1zU0NkVpbDrbm2oRS6dK5UTaSxsIaG1R3f8AQzYYMwAARnOtpZ+kmAGAAG4Zri1SJRphJVIvYrNLOz5XfDf+gezi0q5dRseyU0s/iVfk96KhxP8HIlWkACBSLxIlNsJFLH6TZ9icubK0a5fR3vTC0k6Qyxb/CKD1itKuLVJFCgAi9SI2HesUuaY/QLq4paWH3WlkKMP4gzI5lplObym9AOmJ4o4zUWi+uPjrilSZAoBInRhOGTaMXVPcwbkseMX1ADyXubW4a1bQpuQlxR+cLnIqX+vKfAgQqREKACJ1YCgF39xkeXx4NaliRuQni5s7n3JaeSb9uqKOraTnx69hIlfEypHpiXwYKpRxYMaHCz9OxEcKACI1bigF/7bJMpyGtI3z1OhrCzuBl4HMeFHX/lX2fUUdV2nJXCOPjd5W4FEWkkPFXbDjOoh2FXesiE80DVCkhg2n4N835xv/E9aN3cjc2A7mxbdN4gwWxvuLWkNoLLGMzpYbuLHwQ6vCcA2j2WdptpNcpnhiuLi7/2gbzPiPhR8n4jMFAJEadeqd/6kshh8P3cmHuv6eZvcCXfvjg8VNeYt307T401wT6J2YHch9GA5/GbIX2B8gMwGpIpYzdqKw4M/AiRdVoYif9AhApAadq/E/YTzXzL8NfIxB7zzd0hNDxQ14i7bAwj/Pr/oYdE4T9Hw4//e5ZJIw1l/4uY0Lcz8O8elFlyfiJwUAkRpzocb/hIFsF/+773c4nJl12lcsjA8Ud8fbOAeW3gORtsKP9Uu0B6Z/HOJzzvxaehTG+ij4GYjbAIvWQstlZShQxB8KACI1ZLKN/wnjuWb+te+3eWp0DR4RyKZh+Gjhd/7GhZ5bYdFf5jd5qjVuG0z5GLRcD5j8Ur9j/flHIIU2/s1LYOnd0DC/EpWKVE0N9OGJCBTe+J/gEeHR0dvYklzOHbH/QWshS/4aA22XwYyP1NZd/9mYCHS8BZquhAP3QvZwYcc3TIOZH4XGZZWpT6TKFABEasDZRvsX6mh2FvdmP0u3c4CrYr9gjtlMi+nD5E5ZAMiYfPd2YlZ+WduONfmP60lsBsz/c0gfg76fwuhGSPdDLvnqzgAnBtEOaF4KXbfnvycidUQBQCTghlPwb5stQ8Uu1X+a3txMHkj/Fm9fYmhtBbDgjQMG3CIWz6lVsR6Y/sFXfy5zfDBgpE3bWUvdUwAQCbByN/4AUQfevsQw5+TOtQbc84ySD5NocLY1Fqk0BQCRgKpO4y9h9cMdfldQLkWsYjUJTRG4ZmagF7oomWYBiASQGn8RqTQFAJGAUeMvItWgACASIGr8RaRaFABEAkKNv4hUkwKASACo8ReRalMAEPGZGn8R8YMCgIiP1PiLiF8UAER8osZfRPykACDiAzX+IuI3BQCRKlPjLyJBoKWAzyeVgi07oLcXOzIGWExjI8ycDvPmQGOd7ZImFafGX0SCQgHgdC9sxD78GOzcAxNJsK9eZ/pVHzU1wLy5mFtvhIuW57dSFTkHNf4iEiQKAMfZp9bDfd+DkbHJHzQ2AS9vxr68GZqbMLfdBG+4BRw9WZFXU+MvIkGjANDbR+5HP4c9ezGxKEQcyOYKP8/oGPZ7P4YHH8F85H2wYln5a5XgSe2D5B7IpQELkVZoXA5u88mXqPEXkSAKdQCw65/D/vxByGbzHzckIB6HgUHMRJHv1sMj2Hu+Cq+5DvOBO/VYoN54I9D7Qxh+DlK9kMue/XWRRmiYSbL1Fv59//UMpcr3c6DGX8rhLQv9rqA8escr8x4bCUFHbjgDgLXYH/0c++zzZ37NMdDVgR0axYyMFn+NR5/EHjqM+ePfB9ct/jwSDDYN/T+BQz+AXObCr8+Ow8g2EiPb+HD0mzxu3s665M1AaW9WUQfesdQwu6Wk04iIhHAaoLXY795/9sb/VG3N2Jam0q61fRf2r+6BXBGPFCQ4kjvg4Odh7Clo7oZooqDDo9khbjL/xO80/wltbl/RZajxF5FyCl0AsL/4FXbjK5N7cVsLtqnEqX5792O/+LXSziH+GXkMjn4NvKH8x44LTd2QKLAVtpaW7AE+mvgT5kc3FVyGGn8RKbdQBQC7aQv2qXWFHdTeCtESn5S89DI88HBp55DqG34IBn4EnKUHJ9EGDW0Fn9LxJnhH9G9ZHHtp0seo8ReRSghPABgfx97/08KPMwbb0VbyYD77nR/B8EhJ55AqGnseBn9x/tfEW/J/CmRyWd4S/QLd0cMXfO2JAX9q/EWk3EITAOyvHskv7FOMWBTbWNhz3zNks9h/+OfSziHVke2F/u9y2rJPZ5doBTdW8CUcL8l74n+Dg3fO15y489dofxGphHDMAhgawj73YmnnaGmB8TNXBizI5m2kDvVie7pLq0UqKtb3AxybntyLjYGmDhg5WvDPRiLby5rG7/LA+LvO+Jq6/UWk0kIRAOzTG0ofiR9xsIlY8esDAFjY+8/38/2bP1xaLVIxc2PbubNzW2EHOVGINkK6gFUkj7vE/IKHeBse0ZOfU7e/iFRD/T8CsBb70iRH/V+AaWos+Rzz9m7ClNKLIBV1VfNjxR1Y6KyA4xwvyWsa7j/5sbr9RaRa6j8A7D8IoyUs6HMKG4+VPBgwkk4z8+justQj5dXojDE3WuDd/wlOpKixAAAr3UcB3fmLSHXVfQCwe/eV72TGQDR64dddwEU7N5ShGCm3ObEdOKaER0XR4taMaPAGaHJTuvMXkaqq+wDAoQtPtSqEjZU+bGJK34EyVCLl1hMp8WclUlwPANbj3bNe0J2/iFRV3QcAOzBY1vOZSOkBoHl0qAyVSLn1TGJe/nm5xfcOddmtpV1bRKRAdR8AGC18ZPZ5lWF3v2imjPvCStk0OSUu1GRK+HXKDpd2bRGRAtV/AMiee6GVojilf8scbQ4USNaWY1vRIs9hJ7HDoIhIGdV/AHDL/E+0pTfeuXLXJGWRK+UOHsivHFjkFE8TiiU5RCRA6r8laihxN7/T5Uqfw5+JxstQiJTbqFfiEPxSenZiU0q7tohIgeo+AJjOjrKez2azJZ9jtKnwXeSk8o5kZpZ2glwJ3fiNy0u7tohIgeo+ADC1p6ynM+nSn9Ue7Z5dhkqk3A5lZpV2guwk9w84nXGhaVlp1xYRKVD9B4B5c8p3LmshU3oPwMsLLi9DMVJuBzNzSNkSdn3MTBR3XMN0MKUvMCUiUoi6DwBm9ixIlLiV74lzJUvcDRDIxhLsnzKvLPVIeWVtlM0TlxR3sJcGr8jeoc41xR0nIlKC+h967LqYlcux658r+VR2PFnsJK+T9s9dSqL+v+s164XUa7i4YR2m0CWBk0XuNxFrhc7bijtWRKQEoWiKzFWXYzc8X9rde9YrbStgAMcw/yNv5T91lWO+uVRGNwxcDyMF7AroZSAzXtzlpr+HotcOEBEpQd0/AgBgSg9mxdLSzjFc4ipxAMuXQldn6eeRymq7DSLdk3uttTDeX9x1mhdB22uKO1ZEpEThCACAuW0NxIrcrCWdxoyXePcfjWA++oHSziHV4cSh5335vy9kYrC4Z/+xdpj36cKPExEpk9AEANpaMbfdXPhxOYvpG6LoFd6OM+96KzQ3lXQOqaLodOj5EJjzhMbkIKSL2Gsi0ggLPgNOeQaniogUIzwBADBXXoZZddHkD7AWBgbBK3E/gctWwc3q6q058QUw9bfBPX3hJgvjA8UN/It3weL/D2LlXZ9CRKRQoQoAAOatt2MWzLvwC62FweHSB/7Nn4P53Y+Udg7xT2wmTP/P0HQpYPLT/UaOFX7nbwx0XA1L74aoxoGIiP9CFwBwXcxd78AsWXTu11jyjf9YkQu7nLB0EebTf1jaOcR/TiN03QVd74XkRD4ETJqB5iWw5K9h9scBt1JViogUJBTTAM8QjWLuegc8+GvsE0+/enqg52H6ByFVwpK/joGbVmPe847Sa5XgaFoFy78Mw8/CwK9gfDdkhjljfIgby3fxN6+A7rdAtLz7UYiIlEM4AwCAMZhbb4KF87E/+QUc68WMT8DQaEm7utmONpyPfACWnqeHQWqYgdYr8n8ArAfeGOSS+a9FWic3e0BExGfhDQDHmflzMf/3R7C/egT70wcwRTX+BtvahHn9LTi33ax1XcLEuPlGnxK3EhYRqbLQBwAAHAdz602YW16LfWEj/PoJ7O69mPFxyJ1j+p8x2OYmzLzZmFtfi1mh3dxERKR2KACcyhjMpavg0lX5m/jxCdi5C3usL78SoAGamjHTpsCi+Zi4unpFRKQ2KQCcT2MDrFyhHn0RqTuOOXcHZ60ocXPW83JCMEcuBP9EERE5XT3sSpotfrz2BTXWwffnQhQARERCqCNR+32bE9nK/BuMgdkhGNerACAiEkLNMehq8LuK4o1nIF3iKu1nZWBWK7SGYIhXCDo5RETkbLobDYkIDCQtyWzwxwRYIOvl7/zL3fgbAw0RmNsGnTUcjAqhACAiEmLNMWiO1f7jACmcHgGIiIiEkAKAiIhICCkAiIiIhJACgIiISAgpAIiIiISQAoCIiEgIKQCIiIiEkAKAiIhICCkAiIiIhJACgIiISAgpAIiIiISQAoCIiEgIKQCIiIiEkAKAiIhICCkAiIiIhJACgIiISAgpAIiIiISQAoCIiEgIKQCIiIiEkAKAiIhICCkAiIiIhFCklIP/9R9fKlcdIiIiNWXfniG/SyhJSQFgeChVrjpERERqSiaT87uEkugRgIiISAgpAIiIiISQAoCIiEgIKQCIiIiEkAKAiIhICCkAiIiIhJACgIiISAgpAIiIiISQAoCIiEgIKQCIiIiEkAKAiIhICCkAiIiIhJACgIiISAgpAIiIiISQAoCIiEgIKQCIiIiEkAKAiIhICCkAiIiIhJACgIiISAgpAIiIiISQAoCIiEgIKQCIiIiEkAKAiIhICCkAiIiIhJACgIiISAgpAIiIiISQAoCIiEgIKQCIiIiEkAKAiIhICCkAiIiIhJACgIiISAgpAIiIiISQA6T8LkJERESqyOQDwIjfdYiIiEj1OMbkHAxDfhciIiIi1WPAc7Ds9rsQERERqR7jMOwYy2a/CxEREZHqMa6z38GYjX4XIiIiItXjYF5yPGN+7XchIiIiUj1O1P6zAfjK3ev3g53pd0EiIiI1wUJv77jfVRTFMXj/5a9eG3EALPZ+vwsSERGpFRbrdwlFi8TcjXB8JUDH5P7Z33JERERqR652239M1PwdgDnxia/cve4VYLlvFYmIiNSITNpjaKj2FtJ1XVJ/+hevTcApewFY7Gf9K0lERKR2ZL2c3yUUJRp1/+nEf58MAG6T8w0wu/0oSEREpJZk0p7fJRTMdZzMmM38wYmPTwaA3/7tKzNg/8SfskRERGqDtZDJ1F4PQDTq/o+1a29OnvjYnP6CL9+97qcG3lDdskRERGpDKpllZCTtdxkFiURM35/89xu7T/2cc/qL3Kz5fWC4alWJiIjUkGQq63cJBXEwNhp3337m50/z25+6coe15qPVKUtERKR2ZNI5Muna6v6PJZzP/fGf3fDI6Z8/4xHACV+5+5nPgflEZcsSERGpHYMDSbLZ2gkA0bj79KfXrr72bF87owfghN/5w6s+iTH/VLGqREREasjERKamGv9Y3N214OUbbjjX188ZAIwx1mnkY8C3K1KZiIhIjfCyOcZHM36XMWmxqLuvncTKO79lzjlf8ZyPAE6w1pqv3rP+88AflrU6ERGRGpDLWYYGk3hebaz/G4u7L01ww+Vr15rzjla8YAA44at3P/O7FnM3EC+5OhERkRpgc5ahoSTZbPAbfwPE4pFvfmrtDe+d7Osn7d571l+es/YbaM8AERGpc14ux/Bgqibu/F2XVDzhfugTf7b63yd7TEEBAODee9dH7Vjudy3mL4DmQo8XEREJulTKY3QkjbUBb/wNJGLuA4103PF7ay8aLfDQ4nzlsy9MwUn/LoY/ANqKPY+IiEhQeJ5lbCxDOuCL/TgYG4mb5wzORz619obnizlH0QHghC9+8emuSNq83xrzASxXlHo+ERGRavM8y8REhtREliDf87uuMxaNmJ9b1/v0p/7ra7eVcq6SA8CpvnT3hkUu9laMXWPzYWAe55lqKCIi4gsLWc+SyXikUx6ZrEfgWn4DrjEZ13UOG9c8YjFf/38+c/2DZTx95XzhC9viTnZgkQPdGKeZHI2VvJ5IJR0+MPxXXs4u8rsOv6Qmgr/9qXFIzV/U+QG/65BgMjljctZrTKdz7V7Om57L2ajfNZ3OuGYY6/Rjc3vi1n3o42uvrdjePBUNACL15OMf/vHTGHO133X4ZWwk+IugGMeM/cN9b9HgZJFJUPe8iIhICCkAiIiIhJACgIiISAgpAIiIiISQAoCIiEgIKQCIiIiEkAKAiIhICCkAiIiIhJACgIiISAgpAIiIiISQAoCIiE75DXQAAAdySURBVEgIKQCIiIiEkAKAiIhICCkAiIiIhJACgIiISAgpAIiIiISQAoCIiEgIKQCIiIiEkAKAiIhICCkAiIiIhJACgIiISAgpAIiIiISQAoCIiEgIKQCIiIiEkAKAiIhICCkAiIiIhJACgIiISAgpAIiIiISQAoCIiEgIKQCIiIiEkAKAiIhICCkAiIiIhJACgIiISAgpAIiIiISQAoCIiEgIKQCIiIiEkAKAiIhICCkAiIiIhJDxuwCpfWvXWmdayzOrLOYy6zhLsHapgTkYOrA0AU1Ai991ilgL1losFpsDz7N4niWX9ch6ObJZ63eJABhjrDFYg/EwpI1jBh2Xvcaal11jfjFir/ve2rUm63edUtsUAKQo935ufbd1eGcOe5uB1wJdftckUiqbs6QzObIZj1TKI5cLRiA4nTHGuhHnoOuYR1wiaz+x9pqtftcktUcBQCbtvvvuc/sPzHurteaDwO1A1O+aRCrGQjrjkUpmSaU9CGYWACASNYdjrvu/ZtsD/+3OtXem/a5HaoMCgFzQvfeuj9pR+x5r+FNgqd/1iFSbl7NMjGdJTWSCnANwHJONxpz7ozbzH/9w7c2DftcjwaYAIOf11c8/825rzGeB2X7XIuK3XM4yNpomlfL8LuW8XNdkIxHn7z+1dvUf+V2LBJcCgJzVl+7esMiQ+3sDb/C7FpGgyaQ9RkfTeF6Q+wMgGnEG3EjsA5/8zDU/9rsWCR4FADnDVz+/7oPW8BWg0e9aRILKAmOjGZITGb9LOS8DxBLu9z71mdVv97sWCRYFADnpS196udlJTnwVY9/ndy0itSKd8hgZSWNtsHsDIlH3QCzmXfeJP3vtPr9rkWBQABAA/uffPTU1m3N/Clzmdy0itcbL5hgaSgV22uAJruskYzFW//F/e80Gv2sR/2klQOF/fvbp+dlc5FHU+IsUxY04tLUncNxg31N5Xi6RStmnPveXj93mdy3iv2D/tErFfenuDYscco8C0/yuRaTW5XKWocEUnpfzu5TzMo7JNcScWz/xmdUP+V2L+EcBIMS+8tkXplg3/aiBJX7XIlIvvJxlaCAZ/McBjslEo1z5ybU3vuh3LeIPPQIIqa/9zWMtxk3/XI2/SHm5jqGtLY4J+O2Vl7PRTNY89Xd/99JUv2sRfygAhFQmGv+yhUv9rkOkHrkRh+aWuN9lXJDn5RqSA0PP+F2H+EMBIIS+fM+6j1l4v991iNSzeNwl0RDxu4wLyqS9OZ/988f/0e86pPoC3kkl5fblv1u31OR4DmjwuxaRumdhYGAi8CsGGiDR7L7uj//L6l/6XYtUj3oAQsbk+BJq/EWqw0Bzc8zvKi7IAtkk3/S7DqkuBYAQ+eo9694D3OJ3HSJhEo25xOOu32VcUCbrdX3uvz/5Ob/rkOrRI4CQ+MIXtsWj2f/T3v27yFHGcRz/PjO7m8sPjYsQRMSAGAQDgrVoJfkDBC0U0T6QyjLFYmMhVopia7mdtYWdYqmFVQpFSzlPCeZub2ceC4srVvRcGJ/58Xr9BW+4ubnPzczOHt2LiCdKt8DUtG2Ow8PjiJ6/Lriu0/bq7NHl7dXN+6Vb6J4rABMxPz16O/zxhyKqKsXBAK4CNE2e/ZF+/ah0B/8PA2AC1ut1HSneKd0BU3bx0rx0wrmcbvLrq9WXB6U76J4BMAG//PTUKxHxdOkOmLK6TrG40P+PBTZtO7+c5u+W7qB7BsAEVCm/VboBiDg46P9tgIiIbdO+WbqB7hkAI/fJ+99eyxG3SncAEYtFHVXV/2evt9v82Aerb7wmfOQMgLGrN69FxDBuPsIELAbwMGDkiCa2q9IZdMsAGLsUvvcbemQxH8AAiIimzS+VbqBbBsCIrdfrOiJeLN0BnJkvqkG8gaU9bR5frXL/n1pkbwbAiB3+fP35yLEs3QGcSSnFrO7/qbeNSJfS16+W7qA7/T8K2Vubal/3Cz00mw/k1Jvzy6UT6M5AjkL20sYzpROAXXU1lFNvfrZ0Ad0ZylHIPlI2AKCH6tkAHgKIiLbJ10s30B0DYMRShF9e6KEhvAsgIqLN8UjpBrpjAIxaerh0AbBrOHcAfApgzIZyGLKX/FDpAuBvpGGcetuIYby0gL0M4yhkX1dKBwC7BnPibfNgUvnv/HDHzeU76KNhPAIQeSCd7McAAIAJMgAAYIIMAACYIAMAACbIAACACTIAAGCCDAAAmCADAAAmyAAAgAkyAMZtUzoA2JVLB0AYAGN3r3QAsKvdtqUTzmVWVQ9KN9AdA2DEUsqflW4Adh0fb0snnMt8lr4o3UB3DIAR29TLDyPiq9IdwJntto0Hx03pjH9Vz6vfL8byjdIddMcAGLE7d26cXG4WtyLFpxFxWroHJi3/9Z//b0cnEbnHTwGkiPmi+n5ZVTdur27eL51Dd3zZ40R8/N53y7hw/Fzk6lrpFpia001zdbtpnmxye6V0yz9JVf3DSdV+fvfuCz+WbgEAAAAAAAAAAAAAAAAAAAAAAAAAAAAAAAAAAAAAAAAAAAAAAAAAAAAAAAAAAAAAAKbtT5VuuQhsqkwWAAAAAElFTkSuQmCC;fontStyle=1" parent="1" vertex="1">
          <mxGeometry x="831.57" y="260" width="70" height="70" as="geometry" />
        </mxCell>
        <mxCell id="-HBnphbrW939YIXCwKM4-50" value="Machine Learning" style="shape=image;verticalLabelPosition=bottom;labelBackgroundColor=default;verticalAlign=top;aspect=fixed;imageAspect=0;image=data:image/png,iVBORw0KGgoAAAANSUhEUgAAAgAAAAIACAYAAAD0eNT6AAAACXBIWXMAAA7DAAAOwwHHb6hkAAAAGXRFWHRTb2Z0d2FyZQB3d3cuaW5rc2NhcGUub3Jnm+48GgAAIABJREFUeJzs3Xe8HVX19/HPvamkQOg9QKihI1U6iCAovYgoSlGk+SCgAooCKoIoHUGqqEhVpEjoIL2INKmhhQRIICEJ6f0+f6x7f1zCLefM2rP3zJzv+/Xar9/zSPbMmnPOPbPOnr3XBhERERERERERERERqaCm1AGI5GwosDewKbA0MA14DrgBeDxiHM3AikB/4EPgo4jnFhERaQgrAicCzwMtXbR7gME5xzIEuBz4ZL5zvwH8uvW/i4iISEbNwK7A/cA8ur7xt2/vAavlFNMh2IhDV+ef1xrzN4C+OcUhIiJSOQOAw4BXqP2mP397mfA334OoLxFpAUYDP2q9JhEREelAX+A4YBzZb/zt21EBY1sRmOqIZSxwMrBQwJhERERKrQf26/pdwtz429pzAWO8IFBMH2OJSc+AsYmIiJTOF4EXCXvjb2tzsBn6IYwMHNurwE6BYhMRESmNfsCZ2E06j5t/WwuxImDxHOO7HlgsQIwiIiKFtxMwgnxv/G1tiQDxrpBzjKOBXQLEKSIiUkg9gbOofyZ91vZBoLj7kv9IRQvwF7RaQEREKmZZ4BHi3Pjb2nkB4386UswvA6sEjFtERCSZL2GlcmPe/CdjS/dCOSxi7OOBLweMXUREJLoDgVnEvfnPaz1vSD2BZyNew2zg2MDXICIiEsVPiPe8v/0v/2/ndD2DCb8csLt2HtrgS0RESqIZOJ+4N8pPgIsIO+zfkSWB2yJf2+VYsSQREZHCagIuJs6NcQZwO/aLP1TBn1ptCFwFTMkYe73tWqBXlCsTEZHS6QssD6yH3aA2xCrtbQisis3Ez3uZ2e/J/2b4DvADYOGcr6UWC2ITBJ8j/+u+ARtdERGRBrQAsCV20zkbGAa8Bkyk9hvJBOAFbCj7XOBgYAOgtzO2U+uIIUt7HjiA4tbR3wF4nHxfg0uiXY2IiCTVD9gNu1E/Sb4z6me1nuN0YDugTx1x/iDHuEYA+1CeyXA7Yev583o9Top3KSIiEtNiwBHYr/vp5PuLsqs2FbgF+AZdPzr4ErZsLfT5pwGnYKMeZdMLOAYbbQn9uswjv5UOIiISWS9gD+CfwEzS3fS7uhnfCOzIZ3+JDwHG5XC+f2M1+MtuKeAOwr8+04EvRLwOEREJbEHsl+K7pL/J19reAE7AJhyG3sp3NjaXoGrL3r6N1SgI+VqNABaNeA0iIhLAUsAFxFtGlkebG/h47wKbe17UglsTS55Cvma3U565ESIiDW0R7BfuJNLfwIvUXgCWy/6ylsYiwD2Efe2Oj3oFIiJSlx7AkdhGL6lvtkVr/6KxtsHtAVxGuNdvGrBa1CsQEZGabAI8Q/obbRHbFVTveX8tmrA6DqFex8dRkSARkcLohQ33zyH9jbaI7a/opnU64V7PoyPH3uh6AYtjK2FWBpbB6naISIMbCvyX9DfZorZbKG5Fv9hC7Z0wCZtcKvlYB1ux80/gdTqvffEecD/wK6yglvZwEGkg38Gey6a+yRa13Ud9VQarrgfwD8K8tn+MHHvVLYxta/0S2d+Tj7AVP0Mjxy4iEfUEziT9DbbIbQRW6VA+qy/wNP7Xdza23FB8FgLOIOxqnbnATcAaEa9DRCJYBHiE9DfYIjdVr+vaCoSpqnh77MAr5uvAB+T3dzATm/vRN9YFiUh+BgOvkP4G23aTfRcbsnymtT0PvE36JYgHZ32BG8jOhCmw9MXYgVdAf+BPxPt7eBbbpltESmotbNJP7JvpJOBO4DfYZj3rY88ru9MXGyL+Grar3D/J99dOW7uhhtjEnIf/9b45etTltiR2Q479dzwR2Db/yxOR0NYEPiTuL4aTgY0JP4N+dayi3IOEX7b4MfYFK7XpD7yF7zWfi4oD1Wp54E3i3/zb2nRg19yvUkSCWR0YTf5fDqOwWgJDolyVWRo4ERge6Bo09F+/7bFtfz2vu1YEdG8xivH4bjqwVc7XKiIBrAC8T75fCI8Bu5O2Sl4TsBPwMNmv4z60WU1WN+D7DE3DJqdKx3ri+2yHbuOBlXK9YhFxWQj4H/l9CTyM/formq2p/8tyLLBsimArYggwA9/n6YjoUZdHyCqModpTQO88L1pEsumBLbHK4w9/JLZnfNF/Le8KvEP31zMG2CBRjFVyDr7P1RPxQy6FjShuie6f5XjdIpLR+YT/Y5+DFRwp05rgftgKgrF8/nqmYTvdLZEsumpZEns+7PmMaTLgZzUTpuhSXm0asGJeFy8i9dub8H/orwKbxryIwHoCWwCHAN8DvgIMTBpRNV2K73P2q/ghF1oef8uh25W5Xb2I1GVlbL1uyD/wa4EBMS9CSmt1fMWBXogfcqGlWO9fb5uFFRgTkYR6AE8S7g97Ntq2Vep3F9k/c/PQZMw2mxL2Rj0bWxH0DuE3ADstp9dARGr0I8L9QU8Bvho3fKmIA/B99lSLwVxEmL/lfwN7YPNh2jRjJZgvp/Otgutpb1H8ScEilbUq4bL6ccAmccOXCukHfEL2z59KMZuR+P6OZ2DbfXdnPWz/De/3xjq+yxWRrO4jzM1/PNoFT/z+QvbP4NgE8RbNKvj+jmdjE11rtRS2MZfnnMdkvFYRcdiVMDf/T7Da/SJe++P7LK4YPeJi+Ra+1++UDOfcFF9J52sznFNEHHoBr+O/+c/Bdt0TCWFRfMVr9o4fcqH8iuyv3YfYJk1ZeEo6P5vxnNKgmlMHUAGHEaZ4yrHAvwIcRwRsV8X/OvpvGCqQkvJsqHUzMDVj3786zhtzEzCRhtcb/0ShFuDPsQOXhnAu2T+TdyeIt0j+RfbX7luO8w5ynHce+lEnddCHxedAbH9wjzeBHwSIRWR+nhGA1YNFUU6ewltjHH0nYuWcs2gi+6MHaUBKALJrBn7iPMYc4OvAJH84Ip/jSQCWxco3N6q5jr79uv8nneoF9MnYdx7ZkwdpQEoAsvsK/mf/56GJO5Kf4ViZ2Cx6AssEjKVspjj6rurouwrZv5cnYj8qRGqiBCC7w5z9R6LynZKvucAoR/9Gri//vqPvron6qn6D1EUJQDZLA7s4j3ECvl8ZIrUY6ejrnd9SZm85+m6NlfmtVz9884Hec/SVBqQEIJuDsGd1Wb0A3BgmFJEueRKABYNFUT6POvo2AX+k/gl5ZwLLOc77mKOviNToGXzL/jzDfCL18CwFPDZBvEXRC5iM7+/8TmBgjec7yXmuFmCH7JcrIrVYEV+5ztfRrl0Sz+lk/6yenCDeIvFsq9zWXqbrG/PKWOEg73lmoSWAUqdGXuaT1V74buDnY3+wIjFkrUgHvuVsVXAjsJPzGGsC9wL/A4YB72BL9ZYHtgO2Icz38K343msRqYHnV8FkfAVGROp1LNk/r+cmiLdIFsC25vb+Oo/RtsvpNZAK0yTA+vQENnf0vwXN/Bcpi+nAlamDqMGrwL9TByHlowSgPl+g9kk9Hbk+VCAiEsWFFD9p/yV6rCgZKAGoz9aOvpOwZ4EiUh7vAaemDqILD2NbCIvUTQlAfdZ39H2Y7GVZRSSd84DnUgfRgVnA4ejXv2SkBKA+azv6PhAsChGJaS5wCMWbZf8j7Pm/SCZKAGrXE1jD0f+RUIGISHTPA/vh2yUwpCux+QkimSkBqN0Qsm/TORd4KWAsIhLfMOC41EEAdwNHpA5Cyk8JQO08O6MNB2aECkREkrkA2wk01ba7NwN7ALMTnV8qRAlA7ZZ29NVzOpHquBzYHSvsFdO5wL7ox4QEogSgdss6+mqbTpFqGYZt+ftkhHONxkqQH4ftQyIShBKA2i3h6PtRsChEpCheBrbAluJNyOH484CrgLWAf+ZwfGlwSgBqt4Cj74fBohCRIpkHXAqsCvwUGBngmDOAy4ChwKHkk1yIKAGoQ9YVAKBndiJV9zFwBrZaaD/HceYAKwDfxyYPi+RGCUDt+jr6ppoxLCJxzQVuc/Sfhx4ZSiRKAGrn2bNbCYCIiBSKEoDaeYbxPfMHREREglMCUDtPHfCFg0UhIiISgBKA2k1z9FUCICIihaIEoHaeql9LBotCREQkACUAtfvA0XeVYFGIiIgEoASgdqMcfVcNFoWIiEgASgBq56nnPxitBBARkQJRAlC7JkffZmCjUIGIiIh4KQHoXn/gVOAp53G28IciIiIShqe6XdU1A98CfgssFeB4XwxwDBERkSCUAHRsXeBqYIOAx9wG6A3MCnhMERGRTPQI4LN6AicATxP25g+wELBt4GOKiIhkogTgU2sCTwBn4tv6tyu753RcERGRuigBMAdgv/rznqm/O9Aj53OIiIh0q9HnAPQEfo0N+8ewLLALcHuk84nI5y2KPZLLS+8cjy0STCMnAEsBNwJbRT7v4SgBEIltRSzR3xPtzSECNG4CsApwD7BSgnN/pfW87yQ4t0gjOhT4A/nN7REppUacA7A28BBpbv5gr/lPEp1bpNF8D7gC3fxFPqfREoCtgUeBZRLHcSjpEhCRRrEqcFHqIESKqpEeAWwH3EExNuXpBfwM+G7qQKRL/YHdsJoQCwGTgSeBYcC0hHFJbU5GE/JEGt4mwCSgpUBtLrBpnhctmfUCTqTzz8xY4Gh8G0TFcizZP6PnJog3lF7ARNL/ndfbZubxYog0qrWBcaT/w+6oPYPqAhTNAthIUS3v3zUU//1r1ARgCOn/vpUASKFVfQ7ASths/0VzOPZbwH+cx9gQOCpALBLO+Vithlp8E/hVjrFIdnn8zccwO3UAIlUwAHiR8Bn6XODS1uNvFuB404H1cnoNpD5Z3s/ZwGopgq1Ro44AbEr6X/NZ2vA8XgyRjlR1BKAJ+BOwTuDjvobdJL4PTMEmhN3nPGZf4G9AP+dxxC/LaExPbKmZSAiPpA5AGkdVE4CTgH0CH/NGbDLh/MP+IYaA1wIuDnAc8dkuY7+dg0YhjeyvqQMQKbMvY8P0oYbkZgHHdHPOWieNdddO9l26ODQB88j2vs0DBsUPuSZ6BFCe9s9cXgmRBjEIGEm4P8jJwE41nHcVYEaA880DvpP56sWjB5bsZX3vvhw/5JooAShHe5HiJpFSUVV7BHAxsHygY30IbAPcXcO/fRO4IMA5m4DLCf/4Qro3F98ErM1CBSINpQWbA7QFVrdAJJoqVQL8OvCNQMd6B/tF91YdfX4NHIBt+evRC7gOq13+N+expD7PYPMxslBRp+qYCbyf4/FnA2OAp7C/9edzPJfHyti8pxWBxbCVTy1YojIBS5hfaf2/LWlCFLEP58eEGYp7H/vgZ/EVsj9Hnr/NRTUCYjuC7O/XOwnirYUeAdTfnkoQbxH0xn5E/RUYRe2v1xgskdkTlV6WBC4lzE13ArC+M5Y/BoqlrV2KjQpI/jYg+/s0i2JWBVQCoASgO8tgq5nG4P++Ggf8kvIWYpKS2QCYg/+DOw0b7vIagM0JCJkEPEj6HQwbQU98kzmL+B4pAVAC0JnewE+x776Q31ct2ATqE9CPF8lRE/AQYT6wBwWMaz1gaqC42toE4FsBY5SOvUX296iIEwGVACgB6MgWwMuEv/HP314C1o10TVKnsq8C2AfYOsBxzgauDnCcNi8Ahwc8HtgSob8C11LMX5pVMdLRN9QKFJE8fRcbVVwzwrnWwiqmHhLhXNJAmoH/4c9QHyC/Z7cXBIivozYZ2662T05xN7K/kP19+X6CeLujEQCNALRpAk4l/1/9nbUzc79CqUuZRwD2wrb69ZiEDf3PdUfTseOA23M47gDgDOB14EhsPwEJY4KjbxEnAYq0uQg4JeH5T8CWS0tBlDUBaCJM2dwf4hvy7c4crD7BozkdfwXgD9gStJOApXM6TyPxJINKAKSojsN+LKT2M7S8uTDKmgDshn8L3TuwHQPzNh2L9385nmMp4DdYMnMbNjrSP8fzVdkcR98qFdaS6tgd+F3qINo5F9g8dRBS3gTgaGf/mXS/wU9IE4AdyL/iV09gV+AfWGGku7Hr3Agtx6lVi6OvEgApmkWx8uJF+q7vBVwPLJg6kEZXxi+sVYAvOY9xHvWV+Q3hI2B7YBhxlov1AXZsbWBJzwvY0p93sccGo7HkZCa2bPHD1v/byBZ29J0ZLAqRMM4CFk8dRAeWB07DJqmK1Oy3+GaijgYGRo/6UwOA+zqIqyjtA2xTpSF5vQAFdyvZX7v9E8TbHa0CaNxVAFsQrjR5Hm02MDS3q5duFWlYqBa9gYOdxzgTW0aXyhRgZ+CShDF0ZWmsJv6r+B+1lJHn19JHwaIQ8fspNmG6qHpiMUoiZUsAdsb3BT0Wex6W2mxsRu5R+Cad5ak3cCFwfOpAIlvR0XdcqCBEnFbGNicruv2BwamDaFRlSwD2dPa/AKt7XRQXY/MZRqUOpAu/Bb6QOohIlsC3lPLDUIGIOB1JuO/354DfYxOKj8XmUL0a6Ng9UYnzZMo0CbAXNsM9q2nYmvmieRhb0ngpsG/iWDrSA6setlviOGLw7AQ5FY0ASMd6Yr9098FK48bYKS/EPKfHsRv+05389+2xeSLeWv8HYMuYRTq1A74JJ3+OH3LdDsKW76WenDN/m0ljLNk5keyv0ZMJ4q1FkSYB9sFqwt8GvILVrXgC+/JfNfC5ijIJcB3sWlP/DdfbLqe2pcP9sGXH3vNpfxPp0kX4PmAhNg2KYQlsY6Kizd4NsVVy0T1A9tenqJM6i5IAbIktPe3sXLOwJWuhqikWIQHYECs3nvpvt952G/U9PuiDVTv1nPOAOs4ngZRpDsB2jr7DgUdCBZKzj7CRgG3Jv3BQPTzr48tgILZsKqsXQgVSQTsD99P1BMtewI+BGynX91JnBgD/JO2S4yymAodhP0BqNRPbYdAzoXkdR1/JqCx/aIvhWy96I5ZllsnD2OS7rwOvJY4Fqj/BbQds5UNWSgA6tixwHbW/tnsBP8kvnGh+QDm3h74aGJOh32tYwpPV6o6+klFZEoAt8a1nzWNHvhhasORlbeA7wIuJ4piIVRCssm86+k4Fng0VSMX8HFiozj4/Jc5EuTx5Pk8p3eroe5ujr+YAJFCWBGArR98xwDOhAklkLrZP/XrYo5CbyW8L445cj9UuqKol8a1yuB+VAe5IL2wEq14DsQ1symoANtu/jIY7+r7u6Fu2RyWVUJYEwFM7fxj1Pc8qun8De2PPU38E/Dfn800AfpXzOVL7Dr7Nku4MFUjFrAEMytj3iyEDiWyJ1AE4eKqkTnL07ePoKxmVJQHwZNOPBouiWN4DzsZ2+lsdGzZ9kLC/RGdgv+A+CHjMoumNf5/0u0IEUkFLOvouFSyK+MpUX2V+nvfMU0RriqOvZFSGBGBZ6n+G2F5R12eHNBw4AyvMsQiwE7a2+k5s86Osx9wWuDdAfEV2CLCCo//LwIgwoVSOZ1SlzDfRMts8Ud9PHH0lozL8kXlm/0/E91yqjKYB97S2NktiEwmXx+puL49NuhkA9MeKefTBsvBXsck8N1Ht5/5gv/5PdB6jDAWmRGr1TeDKDP2agW84zvu2o69kVIYEYE1H32ep1vP/rD6k+sv4sjgW36//WdjkTJGq2A7bRKjex1rfxn5kZFWEpc4NpwyPAFZy9H0jWBRSNStiS9Q8bkOJlVTPn6lvV8x1sI3WPDrbb0ByVIYEwDMp5c1gUUiVNAGXYY8/PIqwtbRIaEtgk6c3ruHf7oBNPvYs45uO7QkhkZUhAfAsqXkrWBRSJccAX3Ye4zXgvgCxiBTRsthN+UpsH5D2hdh6YLVZbsDmGnmLNt2LrTiSyMowB2BxR9/3gkUhVfFF4LcBjnMaml8i4b2NLe31+jZwnvMYPbBVModgs/TfwxKBwdgE4lD+GvBYUocyJACeEYAJwaKQKlga27rUU/Mf4CWsRLNIaHMJ8711OXAyto9KCAvhW47dmQ8ob6n20ivDIwDPsyUlANJmEHAHvmIlbfTrX4puGsXdorq936My2smUIQHIGmMLKi4hZiBwN7BBgGM9h40iiBTdBcC41EF0YSRwaeogGlkZEoAeGfu14NufWqphYeyX/yYBjjUX+D7l21paGtM4rNZFUR2DjVRIIlVOAJrxbSEs5bci8Bi+3STbuwD4T6BjicRwDbYhWtFcD9ySOohGV4YEwBOjpxa5lNtm2DImTynp9t4FfhHoWCIxfRf7/BbFcOCw1EFIORKA6Y6+ZVjlIGH1wGY/P0K4HeVagMPRjmVSTqOBnYHxqQPBHkvshm/bYQmkDAmAZyZ/1r3IpZxWAf4N/Iqwyd/v0Za/Um6vAnsCUxPGMB7bZ6DRNmgrrDIkABMdfcu8p7jUrj9wKvA/YMvAx34Q+GngY4qk8DCwBTb7PrYPsI2G/pvg3NKJqicAnn0EpPgGYDOJ3wZOAfoGPv772BanWk0iVfECNj8m5uY79wFfAF6MeE6pQRkSAE+RiBBFX6R4BgNnAaOwcqeeapGdmQ7si3b7k+oZjY2UnUi+jwSmAMcDO6G/o0IqagLQG/vyfQrY3nGcVcOEIwWwHDZz+HZsk6cfk98cj9nAfmiHMqmu2dieGGsCNxG2suVs4E/AGsA5gY8tARVtlvyiwJGtLcTz+3UCHEPS2hs4GtiaOAnrXOBbwL8inEsktZFYsrsiVuTqULJvwDYauBa4CBgRIDbJWVESgGbsS/dswm1eAbBWwGNJXAOA64CvRTxnCzbKoI1+pNGMAE7CJtNuhiXcW2M7E3Y20vYR8Aq25PZ+4FEsgZaSKEICsDVwIbBuDsdeAasDrzWn5dITq14WqoJfLeZgv4CuinhOkaKZCTzU2tr0wX6YLYoVV5uALenzTNCWAkiZAAzAbvzfIb+SvU3Ys+NXczq+5ONE4t78J2NzTu6OeM4yWAgY4ujveYzXz3nuZRx9+zjPvbyjby/nuQFmYb/OZzmP02YmtiLm/UDHkwa3DnZTbonQvhDpmiSMAdivixifjRbgPWC9KFeWxrHEey3VitXGYHthnIhNyBNJ7lBsB6hYfwQqBlQuuxLvs/EENkJUZUoA1NraY1ghIBEg7jLAZuAPwBXAApHO+TKWBUt5xPg1Phf4JfaY4b0I5xMpgs2xCXtXY49YpMHFSgB6Yh+6IyOdr80fI59P/PrnfPx3gG2wyoGq8CeNpgmbd/U4NklaGliMBKAPtqzqwAjnau854LLI5xS/vH6Rz8HWJ6+PDYWKNLL1sL0B9IhUctO2nCv2s67h+GbiSjobEP7zcBdW8awRaQ6AWlftcexHmkhwlxL3wzwX+AuwSIyLk9w8S5jPw8vALpFjLxolAGrdtbMRCex44nx4p2Drt48HVo5yZZK3LbFkLutn4gFsNUFR97qISQmAWndtJvrulID2wPcF3l37EPgddqPoHemaJK4jsE1Eav1MzMBGfzZIEWyBKQFQq6Vdg0gAg7ESkXl8SB/CNofRTb8x7Ap8QOefh+nArdgE04USxVh0SgDUamkzsLLp0kBClwJuwmbeh/4yfgXbpOKmwMeVYrsduAfbrWwHbNlSL6yK5APYjn2TkkUnUh19gJ2Av6cORMrrKMJmpdNaj6lnuSLZaARArdZ2JdJQQo4ArAz8NuDx/ottEfxawGOKiEjHtH16gwn5y/pMwlVxuxYrW6mbv4hIHCoK1GBCjQBsjE3OC+ECbNhyXqDjiUg2nwAfpw5C6tKD7CV+8y7DLRV1P2GeQf0iduAiFeeZA3BugnjFZzGyv9/jEsQrCYV4BPBlYPsAx7kU26FNREREchYiATg+wDGGYbP9RUREJAJvArASNgLg8RFwCFY5UERERCLwJgCHOY/RAhyMlfYVERGRSDw3797Yzdvjamz4X0RERCLyJAA7AEs6+k8Dfu7oLyIiIhl5EoCdnec+G3jfeQwRERHJIFUCMB0439FfREREHLImAGtgtf+zuhZVGBMREUkmawKwo/O8lzj7i4iIiEPWBGADxznfxnb6ExERkUSyJgDrOM55u6OviIiIBJAlAegBDHWc805HXxEREQkgSwKwMtAv4/lagKcy9hUREZFAembos6LjfKOAiY7+IiKSj0WA8TkefyYwBngc+Av6MVhK+5N9v+l/JYhXpJEdS/a/V7XsbTbwHnaTuw74JrBwN+9VCItFur4Q7XpgYD4vg9QiyyOARR3nG+noKyJSFj2BZYFNsB9N12Cbnl2DbxS1Sr4OPAQMSB1Io8qSAHiy2E8cfUVEyqwXNhLwGnAG2R7BVs0GqC5MMlkSgIUc55vk6CsiUgV9gBOBu7Dn7o3um/hqy0hGWRKAOY7zzXb0FRGpki8BjxFnbkCRNWFJgESWJQGY5jifnvWIiHxqDeBG9Dhgs9QBNKLYCcCCjr4iIlW0A3Ba6iASWzx1AI0oSwIwxXG+xRx9RUSq6jhghdRBJJRn/QHpRJYEwFPIZy1HXxGRqupLY48CPJ86gEaUJQF4w3G+odheAiGsyaczaYcDbwF3Az9Ck2pEpHz2p3EL49yYOgCpzUBgHtmrP2XdSKgJ2Ao4G0tCujrHRODbGc8jUiWqBFiutl/Hb2PNylQJsK3d47xmiex9sr/Zx9R5rqVa+7yU4VwnZLw+kapQAlCu9ueO38aalS0BGAUs7bxmiewBsr/h99V4ju2AfwKzHOeaB2zruE6RslMCUK72XMdvY83KlAD8B1jeeb3ikGUOANgbl9VWdF5NsAn4KrZb1APAHlj5zKyagHMc/UVEYloudQA5mwbcCxwIbIqNAEgiWYtP3Af8JGPf3tjz+Qvn+9/3BH4BrJ/xuJ3ZAFgPeCHwcUVEQuuf8NzjgVVyPP5cVA6+VotiozmLYitEPgEmYBvqearxBtEXy+SyDv28waejD0Oxmfx5DjUdmsNrIFIGnkcA5yaItwr6kv01n+E8t+cRwDjnuSWbvsCOwK+BR4CZdP4ezcTmw12K7aaYrLjefZ0EWGs7CNsFao7zOLW0n+XzEogUnhKA+JQASC2GAGdhr3vW92wacC2weeTY+bEj6NjtBzm9BiJFpwQgPiUA0pXlsLoHcwl7n3sontC5AAAgAElEQVQA2KieQLJOAgS4hgI8i6jRM6kDEBGRhtYTK/n8KrAvvvtvR7YDngL+QI0b73kCGI09uy+6d4CnUwchIiINa3HgQayQXZ674jYDR2Ir9dat5R97XOHsH8MvsaEWERGR2FYFHgW2jHjONbDl9Dt39Y+8CcAd2EhAUf0VuDp1ECIi0pA2wn6Nr5bg3P2BW4F9OvsH3gRgDnCB8xh5mAecDxycOhAREWlIKwK303nhuxh6AX/Dlhl+TohJCBdSnFGAqdiv/s2AH6KhfxERiW9hbIR8qdSBYMX3bsCWHX5GiARgKlbAIJVx2E1/P2BJrMqgp1SxiIiIx4XYlvVFMQhLAnrncfBewFvEW9c/C/gHNqwReimFSJWoDkB8qgPQ2HYi3r2w3nZS+0BD3TxnYzv35W0s8HNgBWBvbB/peRHOKyIi0p1+WIXbojoZGNz2/wmVAOwBHBPoWB0ZB5yGbVTxa4oz50BERKTN94CVUgfRhX7MNwrg9WVs2CqP4Ypp2A6BeRZOEKkyPQKIT48AGlMzMJz0w/y1fMaWaQvYY0Ns6L+P8zgduQNYGyvkMyWH44uIiISyC1b0J5QPsdK+j2HbAIfSB/gOWG3irJYGbiH8/tVjgcOBmwMfV0REOjcIm8wt2Swa4BhzgT8DFwHPzfffVgEOA44GFnCe50DgjKyd+wJPEH5o4j5ahyZEJAg9AoivrI8A1NK2D6mtXPBqwGsBzjck6yOAP2DFdkKZA/wEW9b3QcDjioiIFN0kbDe/R2v4t8OBrYARznNunyUB2A84xHni9iZjqwh+h5b0iYhI4zkaeKWOfz8W+Ab2Sz6rjetNAFYGLneccH7vAVtjE/5EREQazctYvf56PYlt9pPV6vUkAD2Aa4EFHSds70Vsp6TnAx1PRESkbG4g++j3dY7zrlRPAnAssInjZO29AHwJm/QgIlIls8m+EZl3EqCUz1OJ+i5YawKwInCq40TtvQDsgIpOiEg1zQXGZOz7XshApBTGOvp6fkQPqDUBuIww6/3fwWb66+YvIlX2YMZ+9weNQsrA81h9kKPvjFoSgD2wcr9ek4DdgI8CHEtEpMguy9BnHnBl6ECk8IYm6ju5uwSgN/BbxwnazAb2AV4KcCwRkaJ7BJs0XY9LsMnR0lj2SNT3/e4SgKOwqkNeJwL3BjiOiEhZfA94uMZ/Oww4LsdYpLh2BDbO0G9p4FDHeV/vKgHoj924ve5EJUVFpPFMwx6f/pbOZ/dPBU7BHo/OihSXFEsT9uhnYB19erT28czNe6GrzYAOB5ZwHBxshuLB+KoVNbIB2HswA5gOTEgbjojUaRb2Q+o8bLh2Q2Bh4GPgP9iGapoULetgRX32pvvv+T7YHJOdnefsdKLqAlhNfu9mA94AG9EgbAvkN+h8w4iHgSuwIcMNsWxQpCPaDKixaDOgcre3gX2BzkbntwOeDXCej4AenY0AfBt7vuBxEzb8L7XbBnvdFu/i3yzR2rZq979NBB4C/g78ExtWFBGpx0TsB4Vksz9wuvMYKwE3AqOBu7ENf+YCy2L1c1ZxHr/NDXRRrOoFfNnFpNaApXZbYEP93sxuMraf9EZxw5eC0ghAY/GMAOhRhM9ALIlKPYpQS9sQOh5m2AZY1/lCnAa87zxGI+kHXI892/EagI3g/AfLILcJcEwREenaZMpRx+Fe4L+d/cfr8WUWo4C++cVeSceQb7b3L2BItKuRItEIQGPRCEBag7FHsKl/4XfW5gFbtgU7/wjAgthyFI9fow0t6rVPzsf/Krbl5ClAr5zPJSLSqEZiI+BFdS3waGf/8SB82cUIrHqg1Cfmc6P/oNGARqIRgMaiEYD0ehJmpn7oNpb5JvfPPwKwv/PCf4+KWdSrCXtuH8tGwDPA7hHPKSLSKOZg9W+mpA6knRbgO9jqgv/TPgFYCNjecYIpwF8c/RtVW2YW08LAzVipZxERCesF7Af1nNSBtPoFVm76M9onAF/B93z4r9jyP6nfYwnO2QxcBPwqwblFRKruDuAHqYMALsbm5nXpz/ieL3iXDjay3Uj7bEhJQHVpDkBj0RyA4jkEmEma7/bz6byq4P9pwkrMZj2Jtvn1u5+0SUARMlUJTwlAY1ECUEzbA+OJ930+Aziyu6DaMoPV8W3883dHXzH7A8MTnv88YK+E5xcRqaoHsC1/74twrtewyrIXd/cP2xKALZwnVALgNxb4IjY5L4Vm4CrC1ZoWEZFPvYVtD30AMCaH408GfgqsRxeV/jpyJdmHGt4ME7u0swlwNrbBz2vYzoxTiDN09Cyq5FglegTQWPQIoBwGAIcD/8P/nf0RtoPsIlmDedFx8iuynlTqthT2LOlU4HGsrGMeScAZka5H8qcEoLEoASifrbG/tf9iywZrea9GAn8CdsWxeq9na1ste+w84ugr9RnT2h7AkoCVgcOAI7CdqEI5DlvW+UrAY4qIyOc93NrA6vFsim0LvDSfjsZOwSrGDsdGhUeGOHFPbAKgZxc6JQDpvAWcAPwWq/N/FNAjwHF7A5cA22LZpoj49AN2BDYAFsV+bT+NJfNF2TtlIaxKaFGNA94GbgPuwUZAq+YT7Nqi2Rffswcpjo2wORmhHgV8LW74kgM9AkirCfgh8DEdv8ZjsFG8UDyPAMrUnsWSKXH6MdnfhIcSxCtdWxAr+Rjij+zJyLFLeEoA0umFrZCq5bW+ihoKttSgURKAFmxY/KsBXrOG1Qws7+j/WqhAJJhJ2EY/1wY41qbYshURqd85wN41/tuDscd4Urv+wD+wMvaSgTcBeD1UIBLUbODbhKkpcHSAY4g0mvWooRLbfE4CVs0hlirrA9wC7JI6kDJqBpZ09H87VCAS3FwsCfDO5N8F32ek6HoCy2DX2JQ4FqmOo6l/SL8X8L0cYqm6PsBNwHapAymbZmxr2Kxib2Mr9ZmKlRie5ThGz9ZjVM0uwJ3Yc8T3sclYE4HrscmUIh5ZH53pkVs2/YDbsTX1UocPyD4JY2iCeKV+p+ObbFOlpZ796X5i1jzgd4RZUpmaJgHG14w9hsvymn/sPHcjTQLsqE3GX9q+oXhKzC6VIF6pX39syWbW93kWVrqy7HpR366Ll6QJMyglAPH1Jftr7q0J0OgJQAu2ln5T5+vYEJpxlBHEXmgpvqnYjOSselGNobUTsVLKtToc2DOnWEQkHwsCd6FHed1qxrf2NMS6VYnjSmxYMqttA8WRygCs5kW9fhk6EBHJ3SCsop6KBXWhGd/MZ8/ogcQ1FsuKs1orVCCJ7ES2/RLWBtYIHIuI5G9h4F5sSaZ0oBlbLpaVEoBy8SQAqweLIo11EvUVkXQWxZKAtVMHUkTN2PPhrKowS7qR/NvRd0U+3ZmqjBZ19F08WBQiEtviwH1o1drnNGPLJrIq8w2hEQ0HZmbs2wNYImAssXmSVc11ESm3JYEHgTVTB1IkPfElAMsCI8KEIhHMwd6vrMP5C4YLRUQK5hPgS6mDaKcf8GdgpUDHWxKbGLgttmtqw+uJr5rfYOCxQLFIHBMcfcucAHjmuuhRlzSCOcB/Uwcxn+2xXWcHBzressADwDbAO4GOWVrNWBnUrFYMFIfEM9HRt8yPfKY7+lahCJJIGY3AapC8G/CYy2PzoUKNLJSWNwFYIVQgEs0YR98Pg0URn2eyq2e/DBHxeRfbI+GDgMccjE0M9OyGW3rNwChH/4bPoEoo6xDfJ8AbIQOJzJO8rBIsChHJ4g1st7/RAY85BHscsGzAY5ZKMzYzPKuN0QzpsvkH2eqN/x3froKpeRJdzRwWSW84NhLwUcBjroLtD9KQ+9o0A686+i+MqqSVzWjgvDr7TKH8JXFHOvquSgP/ShApkJeBHYBxAY+5OjYnYOmAxyyFZuA97As+q80DxSLx/ALLemsxBzgQ3w20CN7EtxdCPZsIiUh+/oeNBIwPeMzVsSWCiwU8ZuE1Y9snvuA4hhKA8pkNfA24Anv/OzMa2AW4JUZQOZuOfXFk9Y1QgYiI2/NYzYKQScDa2A8jT9XQUml7fv+U4xhV2Ca2Ec0AvofN4/gj8Bo2U34MNhx2LDb0fW+i+PLwtKPvl4HlQgUiIm7PAzsTdlv6dbGRgIZa+bMf9kswa1s/fsgidTsI3+f83OgR+x1LY11vEfQl+2ueZYJue4s5zh3yuXpMXwQm4fvbnr89DSwU8yJSaBsBeMJ5nP28gYhEMAxfRcDD0GRAkaJ5AntU6an1Mb+Nsd1Ty1z9tFttCcAo4HXHcb4ONPnDEcnVR1hZ0az6AecEikVEwnkU+Aq+Ce3z2wy4ExgY8JiF0n4N/z2O4wwBvuCMRSSGm5z99wP2DhGIiAT1KLAHvrLf89scuB3oH/CYhREqAQD4jrO/SAw3Y0sbPa4AVg4Qi4iEdT+wJ/65FO1tA9wGLBDwmIXQPgG4D5tIkdWhNNDyCSmtj7AkwGMQcDe2vaiIFMvd2EhAyCRge+BWKpYE9Gz3/56BTZLaP+Ox+mGTpM7wBiWSs/PwT1xdGft7+Qq+LbVFimJB8l32OwOrLfI4djP1bE3enbuxuWk3Ab0DHfPLWCn1PYGZgY5ZKHvhWzoxhnJvGSuN417CLBd6nWJvFqRlgPGVdRlgzDYROJ78J4/vhe1hEjL22+g8qVgY+CrwQ+A3wFXA9cClwFnAicBOwOJBrzKQBbCszPPiHBw9apH6bQLMI9yX2b5xw6+ZEoD4lADU3q4h/w3l9sWqn4aM+2agV+vx1wLOxiqNzq3jGG8Dvwc2yOm6M/kDvhfmPSo6Y1Iq52+E/1IYHPUKuqcEID4lAPW1U5zXXItvYJN/Q8Z9F/Y4I8SxXmqNMfnuuuviv5jTokctUr+lsF/vIb8UpgMXASvGu4wuKQGITwlA/X8zMRLnA6nvF3qK9jw2ryipp/FdxDRghehRi9TvUPL5Q56LLUn6LrBStKv5PCUA8SkBqL/9zHndtTqY4icBLdj+LLmvOOhsAsb+wHXOY9+ESgRLOdwE7JPzOUYBrwLDseW2niW39dgS2/kxi/OwBELq05fsxWhm4ptIvRjlXJVyP7BDpHMdht1gi1699n/YSoZXY5+4B7Z/ujeLUQIgRTcYOIn0GX8Rm0YAstEIQP0t9k3uSMJNAs6zjcdKEkd3VIZg528foy1UpXgWAf4f8Czp/8CL3JQAZKMEoP72X+d1Z/H/HPHGbJOwksRR9QVGOgNvwTZf6RE5dpGODMZWuUwn/R91GZoSgGyUANTfrnVed1bH1xFjyjaWBOXHvxsg8Bas+IFIKgthN7OZpP9DLlNTApCNEoD6W8rHxSd0EVeR2ktELkXcA3glQOBzgN1jBi7Sal+s/GjqP94yNiUA2SgBqK+9wmfL0qfwM9K/DrW08/N6ATqzW6DAJwMbRo5dGteCwJ9J/wdb5qYEIBslALW3aRTnvnAq6V+P7to8YNOcrr9TtwUIvAXbia3IddOlGlbChstS/7GWvSkByEYJQG1tHLCd83pD+xXpX5fu2qNEXsK4EpaphQj+FQq6EYJUwiZYopn6j7QKTQlANkoAum7jgAso5nbaXyD961NL2zHExdb63OUdrLzvmQHOORR4GNta8b0AxxNpsxlWn3uh1IGIlNAkYO8cj9+C7Rj7GlaNr4iOSx1AjY4B7ol5wmZsSV+oDGYEsGrMC5BKWw/4hPSZeZWaRgCyKesIwDjnuctuQcItER4PXI1tC3wAcDRwGfBBoOPPI0GNnVWAKc7A27cPgHWiXoFU0bJYqd3UN8yqNSUA2SgBKKcD8f/NTAN+SuflnHtjRfYmBzjXDwJdd11Cb57yCfkOO0m19QKeJP3NsopNCUA2SgDK6Rp8fy/jqL1s71Dgfef57nJcq8uVNQZYT7sU+zIXqcdZpL9RVrUpAchGCUA5vUv2124OsH2d51sPe7+znnMC9mg+ugWA5+oMtpb2CLBMxOuQctuCcmztWdamBCAbJQDlMwjf38ofM57Xu+zQNY8ua/Wl6cBewBOEXcqxJbZ++wTgCuwCRTrSE7iYfDLgudhy1dewyTwTczhHLBtT/y8TkUbjnZD++4z9LsTud1lHv1cC3sjY120jwk4KbN8eBdaKdylSMiF2q2zf5gHDsP23B0W8jrwdi0YAYtMIQPl4Kt56b8CPOM59qOfE3l9PzwDfIp81nVtg27WeASycw/GlvPoCJwU83iPY520X4AbK/YtfROq3oKPvy85ze/r385w4xPDpLVgWMi/AsebXG9tJcCRWhGiRHM4h5XMItvTPayZwMLA19jhLRBqTZ8v6mc5ze35A9/acONTz0z8DR5LfM/sB2HOSEcDpwNI5nUfK4cgAx/gQq0N+dYBjiUi5TXf09f4YWcLRd6rnxCEnUF0K/D/ynbg3ECuyMAr4F7bVa58czyfFswX+uSET0K9+EfnUx46+69J54Z/uNAFfdJx7vKNv8BnUFwHfBmYHPu78egBfBW7EqgleDHwNSxCk2vZ39p+DTfQbHiAWEamGdxx9B5K9mN1O+EYQRjj65mYXbGgij9UBXbXZ2OqB04BtsRmxUh1N+Ip1tGAjSI1EqwDi0yqA8umBb8fbt6h/Ql4vbCJ91nPOw/mjN2sdgO4Mw56v3kyYyVq16okNEW8B/KL1f/sYW8/9Kvarb2Jrm4QtYZwMjMWeCecxkVHCWQsY7Og/CjgnUCwiUh1zgf9gjwazGIJVyK11VVwT9l20Ycbzgd3XJjv6525p4HHijwRkaROBv2HPc6SYvovvPT4oesTpaQQgPo0AlNMv8d9Hbqb71WoDscnH3nNd4L3gvEYA2ozGRgLOB76f87m8FsK2bdwfe4TQVqJRimMTR98x2GYfItKxgdi8qqIaiz0CvAP/2vuO3AL83HmMPYHNsQp/NwBvtvtvg4H9sMnyyzvPAzYR3qUpQBC12gu4nPKs5f8N8LPUQchnPIKVi87iAuCYgLGUxbFkf+zxP7RSIoseZK/QNpPsM8rBRgDGOvqXxTBsO9y3Ax/3FWynvlA+xna8HUTYe98orAxwHkX4crMccD/ph/trafOAbfJ5GSSj98j+fu6WIN4i8DwCUIvfvFUoPY8Aytbq2X63VkcX4LpqaW1z3EqnCcuOx5P+Reyu/Tufl0Ay6IFv57/l4odcCEoAytXe6vhtrFkjJQAt2KO9kDvI9m89Zurr6qp9QqDy+Cn2Em7BZksOxSZMFNlW+Ko0STj9yf55nQG8HzAWkbyoPkV9lsTma4UyFfh1wOPl4WysmJlbigSgzYfkM5EjpGa0I2FR9Hf0/QRLPEWK7v7UAZTQN/Ft5jO/S7CN6IpoOHBWqIOlTAD6E6ame95CfrAkO8+GG65ymSIR3ZY6gBLqQ/bJwR2Zi2045l2SGdoc7PF5sLhSJgDfBRZNeP5ajUkdgAA25JW16MWIgHGI5OUF9AggqxDL6tp7AVuuVyQnYZVug0mVAPTCJicV3RTsgyDptQB3Z+ybtZ9ITN416I2s3jK8tbicgMPtTldjz/6DSpUA7AeskOjc9bie4g0DNbLzM/QZD/wldCAigT0M3J46CPmcE7E5ASldz6dVUINKlQB8x9k/RvGDCcCpEc4jtXsUW0FSj+MINGNWJCfjyV44SPLVAhwFnE6aicQXUvv+AqWwNDaZwbMO8ivA2thjhGGE33lwGrBDXi+AuPTGlo929x7Ow56ZNTrVASh2m03Y75pGqwPQ1mI8Ut6bT1cU5d2mAYdHuKbovF9IT3ZwzD7YDoBHA1cBzwGzMh7/JWCjoFcsoTVhWfmHdPwevgjsmCy6YlECUNw2hez7yHdGCUC+VsJ+dOZ5LU8Qthxxp/LeDKgjBzj7n9bB/zYTeKy1temNbdG4PFYFbnBrG4ht/NMLW+LXG5td/ga2BOdWKjTcUlEtwB+Ay7ByzetgK0rGYLtPFnUNr0ibkcDuwPOpA5G6vAPsAuyBPSJeL/CxTwauw77jKmcVfJmRZuSL1EcjAMVqk4FTgAFdvWkOGgGIpwlLBm7GfoRmiXs2cA+2WV6PuOHHHwH4krN/vRPApGs9sfkYIpKfudgE1luBa7FHV0U0mbSTEQ/Cbqhl0YI9DhiG7fS3fWv7AjaE31ERucnYFsFPYyPWw7AdA5OInQBs5+g7A+3n3pUewMrY8sr2jzyWA5bCfnEsgG01OgB7BALwEbYE6SrgzrghS8HdT7H3hy+6T4APsHlFZViJMgu4KeH5N6dcCUB744G/t7Y2A7FNe9rusxMpWFXSmAlAE7Cto/9tFOzFS6gvsC6wPrBB6/9dh2z18pcA9mltw7AlJ2X4spL8/Q+bZyEi9ZtM9uqlUcRMANbEdm7K6tZQgZRQMzbZ5MvYkqEtsV/zoe0CPNh6/Ck5HF9ERAoiZgKwtaPvXOCuUIGUxALYDXkfbO7E4pHOux5WcU+FSUREKiz2CEBWT9AYw/89sV/5+2PLTFLtRHgQ8DvgtUTnFxGRnMUsBewpbPBwsCiKaQhwDjAaew7/bdJuQ9wM7Jvw/CIikrOYIwCeBOCZYFEUy5bYlpN7kqYoU1e+kDoAERHJT6ybzoLAMo7+Vars1gP4JnA8NpO/qBZNHYCIiOQnVgKwqqPvBODdUIEk1ITV/f4lkeo8O41NHYCIiOQnVgKwhKPviFBBJLQDcCawYepA6vBU6gBERCQ/sRKAQY6+o4JFEd8awMX4KiCmMJu0FcFERCRnsVYBLOLo+16wKOJZABvqf57y3fzBkpZ3UgchIiL5iTUCsLCjb9nW/++IbVW7SupAMnoUOCF1ECIikq9YIwALOfrODBZFvgYAVwB3U86bfwvwZyyBKctrLiIiGcUaAZjn6DsrWBT52RDb5nO11IHU6RPsEUvbboBVrbcgIiLziZUAzHb0LfJ+9c3Yev5fA70TxwL2K34UMLxdG4NVGByLbf07B7vxi4hIA4uVAHh+xQ8IFkVYCwPXY0PmqUzAntk/1dqeBiYljEeqZWM0H6RssmwJLg2qDCMAKWvid2Z14DbiD/m3YDf5u7C5Bk9jOyWK5GGL1iaNIfXjVs9csaL+UCy0WAmAZ1JZ0RKALwM34FvZUK/nsNGGG6hGVUQRKZ4JCc65APA94AisbkpWv8SWXF+I/TjTD6MCOQD79Zql3Z4g3s4chY1mZL2Wetok4BKKvV+AFN+xxPm8qpW/3Uo8zdiNf3QO1/EaVn1VCmIrfG9mEfyKOH+EI4CjgYFRrkqqTgmAWq3teOJYBXgiwvVcCywZ6ZqkCyuR/U2cSdqtcpuAszuIK3R7GzgG6BPnsqRBKAFQq7XFqF+yDza6GeuaRlGuPVgqqTf2TCbrm+jZTdCjGRuGz/MDOgb4PmmTHKkuJQBqtbTnyd+JWE2Y2Nc2Fdg3wvVJFz4g+xv4rQTxNgNXZ4i11jYNm7ii2auSJyUAarW0vcjXLxJf31yUBCR1F9nfvEsSxHu+I97u2kP4ZryK1EoJgFp37UnsUWdePJPAQ7aZ2CouSeDXZH/jXowc68mOWLtqE4CDyPePTaQ9JQBqXbXJwDrkZz1sCD71dba1TyjnXi2ltyfZ37R5wHKR4jyQfJ5TPQEMiXQNIm2UAKh11uYCu5OfQcBbBbjO+dvDxNsIT1otj+9NOypCjLsSfp3/HGxEoUeE+EXmpwRAraM2C1uHn6c/FuA6O2vH5njd0gnPRMAHco5tLWw4LOSH7GP0zEnSUgKgNn8bh1XNy9MG+FZ+5d2mAIvldvUlEXsY5B5H362BpUMFMp+FgJsJOyP/JWAT4N6AxxQRyWoOcCn2zP/BnM91KsUeZu8P/DB1EI1mX3xZ2yk5xNQE/N0Z1/ztAYq3h4E0Jo0AqL0FnEO8lUerk2a9f71tAr4NiEovdvGZu7FnT70z9v8+8Bt8uwvO7yRg74DHuxn4JjAj4DFFUngGuN/RfwjZ116/A9zoOPcy2ITeLEYDf3GcexGyP1+fAFzmOHf747wHvICNRsZ0GOFWOo3Ftjofjt03hgDbEGbb40HA/tioiERyH76s7esBY9kGGxYLlVFeRLGHvaTxeEYAznWee2fHue90nntTx7mfcp57Nce5hzvPnVoTMBL/d+kI7Lu+ox+LfYEjgQ8DnGdYsCsvoRQ3K++OUz8nzIz6AcBVgY4FcDHwA2zoS0SkEa2HrfjyuAtYG9v+fFYH/30G9n27AfAf57m2p4E3XkuRAFyLb3h8LWyI3esswq3LvxK7+bcEOp6ISBlt5ez/OLAHNku/Ox9go0yeUZM+2ATzhpQiAfgYe07ucSrZ5xEAfAk43BlDmxuwZ1765S8ijW4TR9+Z2LyNmXX0+Rj4Lr4fX0MdfUst1fPqy539V8Im72WxIPaLPcQklYex0r66+YuI+MrsXodti16vR7Dv4qxWd/QttVQJwEPA685jnASsmaHfKcAKznMDvIoNVWm2v4iI8ZRs/4ejr2fFyGqOvqWWKgFomzHv0QcbSajnGlYDjnaeF2AStrfBhADHkji2xR7XjMY+f/OA14CzsRElEfHzrKt/1tH3eUffhq3ZknLJ2uXYOlWPzamvONA5+OYOgN08DsE/giFx9AOuwSqf7Qcs1fq/N2FDf8cBL2PLikTEx/P9OjVRX+89obRSJgAzsaI+XidjM0G7syPw1QDnOwvfUJXE0wu4ne5XjSwA/AH4Se4RiVTbdEffRRx9Bzn6hiwsVyqpi9ZciRWN8GjGfuF1taSvJ/6iJmCV0X4e4DgSx8nYOt9a/QbYLKdYRBqB57Ho+o6+Gzv6jnP0LbXUCcAs4PQAx1kEKx6xZCf/fX+yTRhsbyrwLRo4WyyZQcDxdfbpQT77TYg0incdfQ9w9N3f0Xe0o2+ppU4AwEYBnglwnFWxJGD+SSjNZF8y2N4J6Ll/mexOtnrhO6JtQkWyetPRdw+sul+9dgM2dJw39l4JhVGEBGAutsnPnADHWh+4g88+D9oT/6//p4BLnMeQuLJ+ITST7UtIRHz7KPTENmGq53n+ctkpajgAABg+SURBVPg383nO2b+0ipAAgC3/uCDQsbYAHuXT9agnOo83BzgCFfspG89uYYsHi0KksTzq7L82tmtsLfUEhmIFgJbq7h92YQbwmKN/qRUlAQD4Bb7nR+2thX0Qfwhs5DzWhTRwhlhicx19Q2w1KtKIXsP/qHQTbBvjH9PxaMDy2NyxZ/HX8HgY3xLCUuuZOoB2pmLr6+8hzA59K+Cf+T8B+HWAWCS+aY6+/YJFIVKfpfFVtevOPGwb3UexLZdr2XSnXjdgP+g8FsGWXP8GeBErEdwDq92xOuF2cb0m0HEkkJ/h3+M5VKt3FrkUx1lkf99PSBBvXo4l++vgTaB3dpz7Tue5N3Wc2/McG6ziaOrvrlraR8D3nNfakeWxFV6pr6+79jFWA6RhFekRQJszgGGpg8DqE3jLFUs6nvKek4NFIVJciwOXYUWwQhqFjQIU3fn4CheVXhETgHnYevt3EsfxO+rbllKKZWFH30nBohApviOx+VIhnUqxvz8/Bs5LHURqRUwAwJ6970O6X2IfYvUJpLxWdfTVJk/SaH4JLBHweG9hv7CL6ico0S9sAgA2w3N30my32/BDQyXXjG+P77GhAhEpiYHANwIf81Rso62iuQ/4U+ogiqDICQDYDm5fJ0yRoFpNx56LSXltgG8mvyo+SiOqZ9+MWkzHyvt6VuSE9gH2iLkldSBFUPQEAOA24GDiFeK5EXs+JOX1JUff94FPQgUiDamsN5daiu/U60UsCfDU5QhlKrA39ohXKEcCALZWM1S54O78McI5JF97O/q+EiwKaVQTUweQUV5L4m4FDidtNdUZ2F4DTyaMoXDKkgAAXAHsRb7DSS+jD0jZrYlVEstK7381eG7C3kmg44DxzmNUzRXAgVh9gNgmYDUp7ktw7kIrUwIAcDuwHflN0ro+p+NKPN7lTPqSqIaRZF+G9obz3C3Yd5V81rXY9/f7Ec/5KrAl8O+I5yyNsiUAAE9jb+hbORw7zxKckr/lge84+k9FIwBVMZ3sydxtAc7/W+JOXi6Lx4EvkP+PrXnAxdiuoHqs14kyJgAAw7E3NmS1qedajyvldRbQ29H/QdIMUUo+zszQ5z+EGQV6FStrLp/3EbbkcGfg+RyO/yj2GPAotJy78r6NbWjhrQv9q9iBS1A74v8M7Bc96vw16l4Abc6t45yTsO1oQ/o59ms0dd37WlqKX8pN2OS8u7CVAlljnwncDGwVN3wpgjWw7SM9H/4to0ctoSyBPVf0vP/jgb6xA4+g0ROAHlit++7ONxbYOtA557cZdoObXUMcjZYAtDcYOAJbNfAB3cf7LvA3bBfZRRLEW3pF2g7Y4zXgKrLXdp6EfwcwSaM3cB2wjPM415Gm6qTkay42FHwHcAqwMfars81k7CZyGjAmpxieBL6C7U+xJrAk4baznd9ywDk5HTtvI4FLWhvYZkVDgEWB/q3/22zsxv8O5V1uWRhVSQDAN3T3EPbBknJpBv6Cv4LZXOACfzhSYMNa23LAUGAAMBqb+xNr05oJwGM5n2PNnI8f01hUljtXVUoA1nX01czv8ukNXI2Viva6EZX/bRTvtTaRhleVBKAZWMvRXwlAuSyODdl7Sv62mQecHuA4IiKlUtZlgPNbmU+fEdWrBXgmYCySr+2xYdsQN3+wRwhF3LFMRCRXVUkAVnP0fRftC10GS2E36/uAZQMdczy2L7iISMOpyiMAzy5WrwWLQvIwBFvKdijhNys5EU0yEpEGpQTAKnZJcTRhM5m3xwrzbMFnl22Fci9wZQ7HFREpBSUA8GawKCSLjbHqXWtjj3KGkn9Rjw+Ab5F2e1IRkaSqkgAs7+gbc2cq+dRG2GYdG0c+71zgAKweuYhIw6pKArCYo+/oYFFIrfbDqq+l+PwdhRV+EhFpaFVZBTDA0Tev8p/SsU1Id/M/Gbg0wXlFRApHCYAtBZN4LiPNzf9sVPBHROT/KAHQftExbQWsF/mcLcAvgB9FPq+ISKFVYQ5AM9AvY98Z2KQwicO7aU+92naC07C/iMh8qpAA9CD7OnH9+o9rcMRzjcGW+t0f8ZwiIqVRhQRgjqNvVR6BlEWs0ZZ7gQOBDyOdT8IbApyQ4/GnAqOAR9A8IGlQVUgAWrAbS48MfXsHjkW6lnfVxU+w5/0XoSI/ZbcacGaE88wBbgJ+CoyIcD6RwqjKL+CsowC9gkYh3bkLS9hCawGuAdYALkA3f6ldT+AbwLPEn6MiklRVEoDZGfv1RElATK8CdwQ83jzgFmAzbMhfNR0kq4Wxz9JaqQMRiaUqCcAUR9+8687LZx0JjHMeYypwNbAusCfwtPN4IgADgSvIZ/MpkcKpSgLguaEsHiwKqcUoYAdsQ556zMEeIRwILAUcDLwcNjQRNgM2TR2ESAxVmAQIvgTAs4+AZPMCsA5wGnAQHRdymojd4B/Gavc/hm+kR6RWuwBPpg5CJG9VSQA+dvRdJlgUUo/xwA+wpV4bYr/qm7ARgjeBselCkwY3JHUAIjFUJQHwjACsHCwKyWIathZbqqesIzYLpg5AJIaqzAEY5ei7SrAoRKS9kakDEJHOVSUBeNPRVwmASD7eBV5PHYSIdEwJAKxNdV4HkaI5P3UAItKxqtz43nD0XRBYNVQgIvIZVwCPpw5CRD6vKgnAJOAjR/+NQgUiIp8xG9gLK7UrIgVSlQQA4HlH342DRSEi8/sQ2Ar4LdqCW6QwqrIMEOAZYMeMfbcOGYiIfM404ETgdOzvdCgdF4AKZRVg7xyPL1J6VUoA/uvouz6wBL7HCCLSvcnAPyKcZzeUAIh0qUqPAJ5x9G1CW4GKSLktAHzN0X9xYNswoUgZVCkBGAmMdvTfIVQgIiIRLY09WhmJzbPIajHgQeA5bLOt3v7QpMiqlAAAPODoq4mAIlImzcBhWLGlnxJuY7P1gauAl4DtAh1TCqhqCcC9jr6Dg0UhIpKvtbD6CpcCA3M6x6rAfcAfgP45nUMSqloCcJ+j78xgUYiI5GcHbHvsTSOcqxk4Eks2lotwPomoagnA+8ArGfu+FDIQEZEcHAwMAxaKfN51gSeB9SKfV3JUtQQA4PqM/W4JGoWISFgHY8/meyU6/7LYY9aVEp1fAqtiAnAZMLHOPmOAv+QQi4hICFsCl6QOAlsqeAcwKHUg4lfFBOBD4AigpcZ/Pwc4BNtPQESkaIZgI5R9UgfSaig20lrF+0dDqeobeD3wXWBGN/9uCnAAcGfuEYmIZHMhsGjqIOazE/YdKyVW1QQA7FnZBsC1fH6G/3TgamxCy01xwyqMXtis3qHEn1AkIrXZH9gldRCdOAMroS5SaH2BTbDlMxtSnKG0FNYBrsMeebS0tnlYKeXvU639IQSO5dP3ud52boJ4Q9mN7Nd9W4J4OzIA+IDs1xGjXZXb1YtIME3AScBcuv6Dfgat960SJQDlTQCOJP0Nvrs2C1gmrxdA8lXlRwDyWT8HfkP37/mGwMOEKysqItkckTqAGvTCyhFLCSkBaAybAKfW8e9XAs7PJxQRqcG2wNqBjvVv4IfAV4EtgD2Bs4B3Ah3/e6SrTSAi3biD+of25gFrpAhWgtIjgHI+ArgA//D8y8DmXZyjF3AUMC3AubYOcdESl0YAqm9Bsm113IT9UhCR+LZx9n8I+CJWw78zs7GNfram/uJp81MCUEJKAKpvFbLv671WyEBEpCaL4Bv+fwfYi9qLmz2DLTdscZxTCUAJKQGovkUcfZcMFoWk0uTo67khSHab4Ptu/gkwvs4+d+OrifJFfJ81SUAJQPXNdvTNa59xiWeAo++sYFFIPZZy9H0P+EfGvp6JvwNQUaDSUQJQfZ4vcSUA5ed5D+evoClxeJbg3kX2kZsngQmOcy/t6CsJKAGoPiUAjU0JQPks7ujrWdo3Dxjh6N/P0VcSUAJQfZMdfZUAlJ/nEcDUYFFIPbJO2gXb3dTD88hQ95OS0RtWfeMcfT03DykGTxLn+exIdlMcfb1leT1lwD0/NiQBJQDVN5Hsvwp64huOlPQ8z2U/DhaF1MPzHH57R9818CUQ9a48kMS081tt+gDbYWU0F8duqi8Cw/AX0MjbPOwPM+sM3dWBseHCkchWc/TVCEAabzr6roMtI3w6Q99DHOedDrzv6C9SSAcA79Jx+cspWI39otfBfobsJT4PTRCvhLEkvvKuZa4DUeZSwKvhe98epf4fd6thN/Gs53w+y4VKWnoE0LXfA38DBnfy3/sDp2BFNAbFCiqDtx19Vw8WhcTm+fU/FfgoVCBSlzfwvfZbYPs41FqYZ1HgFqCv45yPOfpKIkoAOvcD4Pga/+12wL34qu7lybM0SAlAeXneuxGoEmAqLdgOfh5HA9cBC3fz7zYEngKGOs/3gLO/JKAEoGNLAr+ps89GwP34injk5S1HX+8Xg6SzpqOv5zm0+N0c4Bhfx/72T8fmBbSt6lkSe0RyPTZXYGXneaZio6AilfBjsj8Lex0Y8v/bu/dgq8oyjuPfcwEORHEfbhqhgRldoGgkSyOkKIIy7QKNkoblZDhG0c0sxUvkdHEyy9KxHEFLSZ3RJBu0aFQkGUKFIIPkktV4ORjCAQ7BoT8eznA452z23uu9rb337zPz/Hn2et+1zlrvurzv88Rv8jFNInt/2nBLTSrprCb7cb8qQXt9quQ5AAC9sQnGLnMBCp3Pvn9zSaB9IIHpDUD33ufwt2OxEpwTPbXFh3XYiZ9FHfaJQypLP2CCw9+v89WQBJqwm96sRgGjPbUlq73ALQF+N0TBnhsC/KZIMhtxvytuAWbHbvgxPEP2vtyUoL3iZgZu/7+V+OlnBHA1NoHO9fw9gL2GnxyzA52MwG1mfoxYHqz3Iok8hb8T5HtAQ9zmd2sJ2fug78GV5/tkP94vU1lvBxuBBdhNd4hB7n7g+Gi9OdqiEtuYIg5gkwhFqsrd+D1RHqHwUsJYLsStD6PiN1kcrCH7sX4gQXuzGo9bX0uNV7CVQbFr3vfhyIqMvMVPwnVbJJ3z8X+y7AA+FrMTnYwr0K5S4+L4TZaMTsBtstel8ZucyVnAHuIOerdjmUFjOh172k494HeMv6FaIVKlegHbCXPi3EX2tLwu6nD7Nro6fpMlo8tw+x89NX6TyzYfOEiawW8FxdfX+/YND+32FbuBt4TtrkhaU7DSmCFOoJewvNuxv7Mudmx3JU4Mq0UbyH6Md5D/GiEuy3R9xRosE2gsddhk3NT93g9MD9xXkVyYQ9hXb0/gtlypXLMd27soYlslmwm4HeM74ze5LGeS7sm/c9xL3Jv4Btxv4l2iFZgVvJciOTKLcG8CDmHfan+DW9a2Ug107Mt2Kmt2eC1ymf1/CDgveotLNx57/Zx64O8Y1wbtcVd1uB/jLLETt/woIhXro9jdb8gT7CB2d//mwH1Z7tjOGYHbJ9n1BZrJfmxbyW89i0as4lzqAb+78/adAftdyCxsZUKMPq4FxsTplkg+fYA4J1wbsAw4gzBLjuY6tm9lgDaJH1/C7djmefnffNIP9oXiSdLMmxiN5SgI1a+9WLVTlyqBIlVjPPAc8S4sm4Cv4TcXf39gn2O7pnhsj/jRE/gnbsd1TvRWl2Yk8Z52s8b8YL0vbjqwqkC7ssR+4Bfkr6aJSHLHEf9V5AHgIeAC/FQbdE109LCHNohfrm92dpHfdd15zobXHv8CeoTaASWaDNxK9pulzcAVKOmXyDG9Gv/ZAsu5GXgc+Ba2giDLRWeah3ak+O4p3WvAErO4HM+bo7e6NL3wk9s/Rnw80D4oVxN2M7AQq2ewAVve2d7O/dg+/TNwGzCPOJOQRapGHfBlwq4QKCVagD8A3wE+AZxE8doD9djdvst2VxA/Lap07yLc/49Oid7q0pyLn/OkDXgUS6gzC5iJpce+A3+fF/4YaB/4lPccDyIV5TTs9V/Km4DO0YpV/1sG3Ii91pvHkQvfVOxVoet2znHee+JqMG4z/w9hSW3y6j7c/0/Xcuw3VoOwkrYu6ZPbbzJSZPkUkYQGA0tJP/DHjv9gdeclnZ/hfhzzVLa6o3qOfnWdJe7HCuqU4lzckwylrPchIgl9CvcLVqXFj73sOcnibbhnqtxKfl8Lj8etb2spffBv93XHbV6fpaMiUh1GYClCUw/MsUI1wdNoxM/SrzxXefw8bn17V4ZtNgDrHbaZ588pIhLJdNwn2lVKbCS/S8iq1TW4H7ft5DvJy5Vk75tLwqoLHLb7X4ftikgVaQK+Tf7yl4eIxZ72mRQ3BT8FcS6M3fAy/ZTsffumw3aHO2z3EHGrBIpIzg3DZhmHrieQOub62mFS0GD8rDrZRPrENcXcRfb+uU5sdLlpH+q4bRGpQidgT8ohSwynjBbgTd72lnRWD/wWP8fqI5HbnoVLX8903PaLDtse7rhtEalio7HZ89X4aWATWgsdiq8ysMtjNzyjX5G9jxc5bLcJt5wAmg8jIkUNwlL6uhZxyVuswdIliz+X4OfYtALjIrc9K5ccB7922O77HbbbijJkikgZGoAPYcsHU6cW9hUPYXncxd3Z+Jn0dwi4KnLbXSwgez93AUMybvd2h+1uzLhNERGGYWl7V1D5cwXuxL5bS3bvBvbg53hspLJuymbi1t8bM2zzFNxutu7NsE0RkS6GYku17iP/9dALxWLyP9s8r6ZiT7I+jsMB4NS4zXc2BPf8/OeVsb0RWG4El+19NVtXRUQKa8Qym12BVf/bSfrBvdRYhtZGl+tsYB/+jsHCuM335inc+n0QywlQLN3xJPzMxZno3GMRkSLqgZOBOcB1wIPAs/j7Vuw7HscmPUpxc/H7+Wcl+c33X8xC/OyDDcDngJEdfrs3MA1bbeD6puEQsA198pIKotmq1acJeD1wHPYJYdjh6IctT+qDfQfux5HPCmAXwB2d4sPAZI9t2wh8ELtQSld12NPqlfg7N5uxp9Ktnn4vtjFYaWuf16q92NuVAR5/E2ARcKnn3xQRSWIQ9lbB55uAZmxylxxtAFa61ue+Pog94Va635P+DVax+B+W30NEpGq8Fcvw5/Ni2Qb8AE0ObDcR2IL/QcklH36evIf0A3yxuDVU50VEUvokfr6Rdo5VwKiI/cibOixjnc/Jfu2xmOr6xPcA6Qf5QrEHPf2LSBX7CmEunruxlQ09o/UkH8ZgKXlD7NM/UVnr/UtxIvbtPvVg311cFrDfIiK5cB3hLqJPUnnr1LPoDVxDuMqQ6/A/uS0v5pF+sO8cq6i9m1cRqUH1uKVJLRZtwC1UZzGhOqwC3z8It//+jq34qGZLST/ot0cz8LqgvRURyZFGrNBKyAtrC/a2oeOa7UpVD5wF/IWw+2wb8NpIfUqpD/AY6Qf/PVhiLhGRmtII3EH4i+w+LJ97JU6wqscmT64j/H7aTG09iQ4EVpN28J8evJciIjnVgM00j3HB3Y+9+p1J/pcOnohNavSdP6FQ/BXLYV9r+pImP0AzevIXEaEOuJa4F+AXgB+Rr5zr/YHPAo8QZrlkoVgJDI7Qv7xqBK4mXvrrWl+2KiLSxRdIU7p4M/Bz7FV7zImDPbAyvZdjS+5Czeg/VizFVhSIJQraQLh93YIlVdJsfxGRbswkbYXCNux7+/XY0/jp+LkpeBUwAbvJuBz4HZa7IGU/F6GiM531AC4BnsPfvt4P/JLaml8hNaSaMoVJemOBe4BxqRvSwcvY8rgtWPGjndgA3h4HsfkMPYHXYPUPBmErEMaSr5n1u4DzgbtTNyTHegGzgU9jN4FZbpS2A0uAm6ncIkoiItH1JfwywVqM9cAbyjgOAsOBc4CbsHLUzXTdr63YRMp7gAXA29HbFRERJ5/hSLlhRfZoA25A3/t9acQyJQ7FcgqIiEgAo7GZ8akH0UqNfwMzyt7rIiIiOdAAzEdvA8qJNuz7c/8M+1tERCRXRpKvPO55jfXA5Gy7WEREJL+mAU+TfqDNWzRj+RQas+9aERGRfKsH5mBLrFIPvKljN/BdLL+9iIhITeiF1XjfQvqBOHa0AD+kOksfi4iIlKQeyyT4BOkH5tDxAlYsqJZz+IuIiHRxGnAbsJf0g7XPeBTLTtfkb1eJiIhUnwHAxVjFu5gV9nzGVqxa4sl+d42IiEhtOB74IpZUKEXVwXLiGezb/iRUa0NEckwXKKk0/YH3AlOBM4CT0jaH54HHgIeBB4Fn0zZHRKQ0ugGQSjcQeAcwESvk8kYsBXGI2u3PYyWHnz4cK4FNAbYjIhKcbgCkGjViNdzHACOwqnBDDscgbNVBX6yGfLsWrP77K8BLh+NFYBu2THELVkpYRERERERERERERERERCSv/g82nuqq3YtZXwAAAABJRU5ErkJggg==;fontStyle=1" parent="1" vertex="1">
          <mxGeometry x="838.13" y="510" width="70" height="70" as="geometry" />
        </mxCell>
        <mxCell id="-HBnphbrW939YIXCwKM4-53" value="Ad-hoc SQL Queries" style="shape=image;verticalLabelPosition=bottom;labelBackgroundColor=default;verticalAlign=top;aspect=fixed;imageAspect=0;image=data:image/png,iVBORw0KGgoAAAANSUhEUgAAAgAAAAIACAYAAAD0eNT6AAAABHNCSVQICAgIfAhkiAAAAAlwSFlzAAAOxAAADsQBlSsOGwAAABl0RVh0U29mdHdhcmUAd3d3Lmlua3NjYXBlLm9yZ5vuPBoAACAASURBVHic7N15fJXVtfj/z5lPRgIZCEkIUyDMIMqgIE44Dyhq8SLqt7UqWm9vtbbW4d7an612cqjVWqu1OILiXG21VnAGQZnneQgJkIHMOfPz++OARQVM9n6e85yTrPfrlRdo2evZluScddbee20HQnROLiD3wFfe136ff8g/pwE5gANwA1kHxqcB/gO/zz4QzwDqD/y7GNBw4PdRoPHA7xuB/UDdIb8e+rUfqAaqDowTQghbOOyegBCK/EDfQ776fe2fC+yYVAdEiCcBO4CdwK4DXzsP+dpv2+yEEJ2eJAAi2fUCRgCjgOFAGfE3+152TipB9gFrgPUHfl0HrAX22DkpIUTnIAmASBZ+YBgwkvgb/kjib/p5dk4qSe0nngisBZYBi4GVQNjOSQkhUoskAMIuA4CJwAkHfh1CfJ1dqAkAy4knA0sO/LqJ+L4FIYT4BkkARCJ4gGOIv9Ef/Cq0dUZdQz3xROBjYP6B30uVQAgBSAIgrOEEjgXOBk4FxgLpts5IADQDHxJPBuYDK4ifZhBCdEGSAAiz5AFnAOcc+DXf3umIdqgF3ieeDPwT2GbrbIQQCSUJgFDlJF7Wn3Lg62Ti5+hF6loL/B14E/gE2T8gRKcmCYDoCBfxN/rvANOQHfqdWQXwBvA68SpByNbZCCGESDgnMBl4hPj5c0O+utxXPTAHmAp4EUII0akNA34N7Mb+NyD5Sp6v/cDTxJd9pIIoRAqTH2BxqAHA1cBMoLfNcxHJbyvwLPAcsNHmuQghhOggHzAd+DfxI2F2f8KUr9T8WgT8AOiGEEKIpDaIeIl/L/a/echX5/lqI75EcAxCiKQmSwBdix+4FPg+8Y19nZrL68OTloknPRNPehae9Ay86Vn/+XdpmXjSM3D70nE4neBw4PbH+xU53R5cbk88ji8t/r8bBpFAKwCGYRAJtsV/H4sRDbYRi0WJtLUQPvAVCRzy+wO/hpobCDbuJxaN2PN/SmItBP4EzAOCNs9FCPE1kgB0DfnEy7M30Ika9DjdHtK65+PPySMtJy/+6yH/7EnPtHuKh2cYBJsbCDTUEmyoI9C4n0BDDYGGOgINtbTWVBENdar3yxrgSeAx4vsGhBBJQBKAzq0cuAm4EkizeS7KXF4fGQXFZPXsTWbP3mQUlJCRV4g3s5MuNxsGgYY6Wmoqadm3m5bqSpr37aa1purLqkOKihHvLfAb4nsGhBA2kgSgc5oM/Bg4j/g5/pThz8kju6gvmQUlZPQsIatnb/zd83E45FsVA9oaamncvY2Giq0079lB856dhNua7Z6Zig+I70F5h/jeASFEgsmraufhAi4GbiF++U7SczidZPXqQ7feZeT0Hki30oH4snLsnlZKMAyIRcJEwmECtfto3LOd5j0740nBvgpi4ZRp3LeceEVgHhC1eS5CdCmSAKQ+J/BfwM+BgTbP5ajcvjS69S6Lv+GXDiS7uD8ur8/uaaU+wyASChMNB4lFYxixGM17dtCwayMNOzfRVLU9FTYdbgV+D/wNCNg8FyG6BEkAUpeD+Cf+XwBDbZ7LETjIKuxNbtkIepSNIKd0YHw3vbBMLBolEgwSjYS/LKzHImGaKrd9mRA0792FYSTtLcBVwC+BJ5D7B4SwlCQAqel84P8DRts9ka9z+9PpMWAYuWUjyC0bISV9mxiGQTQUJBIKYcS+usQeDQbYv2MddVtWU79tbbJuLNwK3EW8y2DSZitCpDJJAFLLmcTf+MfZPZFD+XPy6DlsHHmDRtGtd5l8yk8iBmBEIoSDQWKRby4DGLEojRVbqNuymrqtqwk21iV+kke3Gvhf4rcSymZBIUwkCUBqmAD8Dphk90QO8nfrQcHQsfQcNo7s4n4gu/STnhGNEQ4FiIbCR/wzLfsqqNu6mtqNy2mt3ZPA2X2rz4A7gPfsnogQnYW8aie3EuJHpWaQBH9XvqwcCoaOpWDYWHJ6l8mbfooyYjEiwRCRcCh+nOAIWvZVUL3uc2o2LCXU0pjAGR7Vv4GbgVV2T0SIVCev4MkpjfhxvluBDDsn4vL6KBg2ll6jJpHTZ5Ccx+9MDINwKEgkePREwDBiNOzcSPW6L6jbvJJo2PYuhRHgz8D/Eb+eWAihQF7Nk4sD+A7wW6DUzolk9epD0ZiTKBwxAbc/ZZsIinYwDIiGQkRCgW9sGPy6aDhE3ZZV7FvzGQ07N2HzsnwNcCfxEwPSQ0CIDpIEIHmMAR4ETrRrAi6fn/zBY+g1aiI9+ifpyUJhmfjJgRDhYPCoFYGDAvXV7F29iL2rFhEJtCRghke0HPgh8JGdkxAi1UgCYL/uxDuhXY1NbXuzi/pSfNwp9Bw+XhrziAONhUJEgkGMdiQCsUiI6vVL2bPiY1r2VSRggodlAHOBnwK2TUKIVCIJgL0uBv4I9Er0gx0OB7mDRtPnhDPJ6VOe6McnTCTYRqChjnBrM5G25viVvK1NhFubCbc1E25tIdLWTDQSJhYOEYvEd8hHQ0FisXhVORpoxTAMHE4nLl98OcTl9uA8cF2w258ODgcut+eQa4YPXkF8yD+nZeDLyvnyyuFkZ8QMIgd6CbSnIgDQtGcHe1d8Qs2GpXZ1H2wmflrgYaR/gBBHJQmAPQqJv/FfkugHO91uCoaNo++kc8nIL0r0400XDQZordtLoKGWQH0tbfXVBOprCTTU0lZfQ6TN1tL0Ybn96Ye9xvjg75OtCmPEYvE+AqFQu1f8w63N7FnxMVXLPyQSaLV0fkewEPg+sNaOhwuRCiQBSCwHcAXwANAjkQ/2ZmTR65gT6T3+9JTszmfEYgQaamnZt5vGqu20VMevym2tqWpXmTqV+LJyyMgvIiO/mKyiPmTmF5NRUILT7bZ1XrFolHAgcNiGQkcSDQXZt2YRuz+fT6i5wcLZHVYYuJ/4aQFpKyzE10gCkDgDgceBkxL5UH9OLn0nnUuvURNxeryJfLQyIxajee8uGnZtpqFiC817d9FSU4UR7bobvZ1uDxkFxWT2LCGrsA85pQPJ7Nnblq6LsXCYUCCAEWt/hT0WCbNv7WIqv1hAoL7Gwtkd1grie2y+SPSDhUhmkgBYz0X8TP/PiZ/vTwhfVg59TzyPomNPwumy95Pjt4kE22jcvY36nRtpqtxO/c5NdpWNU4rL6yOzsJSc0oFfXqfsSUtM24j40cEg4WCgQycBDSNG7cbl7Fr0Dm11e62b4DdFiFcD7gKS8vIDIRJNEgBr9QGeBiYn6oHejGz6TDqXkuNOTtpP/NFwiPrt66ndvJq6rWtoqa5C2rzrczidZBQUk1M6iNwBw+neb4jl+wmMmEE40EY0fOT2wocdZ8SoXvc5uxa+nej7BzYAlyPVACEkAbDQJcBjJGit35OWQcn4KZQefyZuX/I17mnbX03d1jXUbFhO3da1X+62F9ZxOJ1klwwgf9BoevQfSlavPpa1b45GIoTbWr+1kdDXGbEo+9Z8xq6Fbyey3XAE+BXxi7XkpIDosiQBMF828AgwMxEPc3l99Jl4Nr0nnJFUb/yxSIS6rWuoXvcFtZtXEWyqt3tKXZ4/J4/cshHkDRxJjwHDvjzGaBbDgEgwQCQU7HBBJxoOUbXsQyq/mJ/I5Z9/A1cBlYl6oBDJRBIAc00EngH6Wf0gh8NB4agTGHDaJUmzqz8WiVC3ZTU1G1ewb93nhFub7Z6SOAKXx0v3fkPoNWoieeXHmHrCIBaNEm5rI6awaTMSaGX35+9RtfSDRPURqCG+QfCNRDxMiGQiCYA53MCPgbsBcz9WHUZ2cT8GnTWDbr3LrH7Utzr4pr937RJqNiwjEpD9VanG7U8nr3w0PYeOpUfZcHM2jRoQUdgkeFCgvoYdn7xJ7cbl+nNpn2eA64HkaxwhhEUkAdBXDMwDjrf6Qb7s7pSd/h0Kh4+3/SrepsrtVC77kD2rFsmbfifiSc+kYMix9Bo9yZQEU6caALB/+zq2v/8KbfurtefSDmuB6cDqRDxMCLtJAqDnROBF4p39LOP0eOk9fgr9Tjwfl89v5aOOKhJoY++az9j9+fs0Ve2wbR4iMTLyetFr9CSKxkzGk56pHuhANSASCGIolAOMWJQ9Kz5m56f/JBoKqM+jfdqAWcRP7wjRqUkCoO4m4tf2WnrIPnfgSAafeyX+nFwrH3NUTZXb2f3FB+xZ+SnRsDRU62qcbjd55cdQfOzJ9Og3RLn6FItECQdaiUXVNt6HWhrZ8fHfqV77ORYfGzWI9wz4GfETA0J0SpIAdFwa8Cjx3cOWcadlUDblEoqPPdnKxxxRNBSkasUn7Fr0Lq21e2yZg0g+6XmFFI85iaIxJ+H2K5w6MQzCgWD8pICixt1b2fLunEQsC3xIfElAfgBEpyQJQMeUAa8AI6x8SMGwsZSfcwXejCwrH3NYoeZGKj6fT8Xi92QXvzgil9dH0TGTKT3+TKXqVDQcJhxo63DfgINikTC7Fr1N5ecLMAxLj/LvJt7TY5GVDxHCDpIAtN+5xHcKd7fqAb6sHMrPvYL8wWOsesQRNVXtYOfCd9i3Zold17haJicnh9LSUgoLC+nRowfdu3f/yq8Hf5+WlkZaWvxTbXp6Ol5vvJNidnY2TqeTaDRKU1MTAG1tbQSD8U+xDQ0NxGIx6urqqK2tpa6u7itftbW1VFdXU1FRwf79++35P8EiDqeTgqFj6XPCWWQV9e3QWCMWI9zWRrQDlwt9XUv1bjb/aw4t+yqUY7RDEPhv4nd5CNFpSALQPncS7xpmyf9fDoeDknFTGHDaxQm/CrZuyxq2f/Qm+7evT+hzzeTxeCgrK6O8vJzS0lJ69+5Nnz59KC0tpbS0lKysxFdSjqSpqYnt27ezc+dOduzYwY4dO9i2bRvbtm1j8+bNRDTeDO3Wve9gSk84i7yBI9u9T8AAIoEg0WBAeVXfiEapWPwuFUvetfrCqD8TTwRS9y9JiENIAnB0HuLtfL9r1QP8ObkMm3YdOaUDrXrEYdXv3MTWBa+yf9u6hD5XV2FhIUOGDGHw4MFf/jp69OgvP7mnsnA4zPr161mzZg3r1q1j5cqVbNy4kV27dqXUlccZBcX0P2kqBUOPa3ciEItECLW2av13ttZUsflfz9O8d5dyjHZ4G/gO0GTlQ4RIBEkAjiwLeAE426oHFAwby5DzrsKdoBvcAOp3bIi/8W/fkLBnqsrMzGTs2LGMHz/+y1+7detm97QSwjAMQqEQ4XCYmpoaVq5cyRdffMGSJUtYunQpLS3J368mu6gv/U+5iNyBI9v1541YjFBbK7GI+qd4Ixaj4rN/seuzd+K9ia2xmviS4E6rHiBEIkgCcHjFwJvAaCuCu31plJ3xnYTu8E+FT/zFxcWcdNJJjBs3jvHjxzNkyBBcLpfd07JdNBr9MhkwDINIJMK6dev4/PPPWbJkCUuWLKGqqsruaR5Rt95lDDh1Gt37DWnXnw+1tREN6R03bdi1iU1vP0uouUErzlFUAecBS616gBBWkwTgm0YCbwElVgTPLunP8GnXkdajwIrw39Cybzeb/vUCtZtXJeR5HeH3+5k4cSKnnXYaU6ZMYciQ9r1BdFUHqwKhUIhY7Ks73zdv3syCBQt4//33WbRo0ZcbFJNJ976D6X/qtHYtd0XCIcJtAa1P8eG2Fra8O5e6LZZ97zcDlxF/vRAi5UgC8FVnEm/ra/quMYfTSd/J59Nv8gU4nE6zw39DuLWZrQteZfcX72PEkufG0/79+3P22Wdz2mmnMWnSpE6xdm+HSCRCMBg87KbBtrY2Pv30UxYsWMCCBQvYsSO5ujYWDBvLwNO/gz8n76h/LhaNEGpt0/7+rV67hC3z5xGzpolVFPgh8CcrggthJUkA/uMG4CHA9JqzL7s7Iy69ISGX98SiESoWv8e2D95I5LWqR1VWVsZFF13EhRdeyMiR7VsPFu1zcHkgdJSS+caNG3nzzTf5+9//zqZNmxI4uyNzuj2UnnAWfSede9STL0YsRqi1VfkugYNaa/ew8a2naK21bKnkl8D/WhVcCCtIAhB3G3CPFYG79x3M8Euvx5uRbUX4r6jbupaN/3yOlmr7rzfv06cP55xzDhdddBHHH2/5PUldXiwWIxAIEIlEjrqT/mAy8Prrr7Nly5YEzvDwfFk59Dt5KkVjTsJxpBMDBoRaW7T6BQBEwyG2vDuHmg3LtOIcxY+JtxAWIiVIAgC3Ar+2InDxsSdTfs5MHBZvZGut3cOGt56hbutaS5/zbXr06MFll13GFVdcwfDhw22dS1cVi8W+rAh825G61atX88YbbzBv3jyqqxNy294RZZf0j19xXTLg8H/AgHCwjUhQv4y/d9WnbJ3/MkbM9J4BIeJdQjeaHVgIK3TlBMAB3Ef8Uh9Tubw+hlzwPXoOH2d26K8wYjEqFr/HlvkvE9Xora7D6XQybtw4ZsyYwfTp00lPT7dlHuKrDMMgGAy2KxGIRqN8+umnPPfcc7z99ts2NiNyUDjqeAadNQPPEY7GRkIhwm3610837t7KhrdmE25p1I71NY8SX04UIul11QTASbyr1zVmB07PLWTk9BvJKCg2O/RXNFZsZd3f/0bzXktboB5RSUkJM2fO5IorrqC0tNSWOYhvF4vFvkwE2mP37t288MILzJ07l8pKe5aS4i2xryR/8DGH/d+jkQhhzaZBAMGmeja8+STNe0w9zl9J/BixEEmvKyYAbuApYIbZgfPKj2HYRdeo3ZLWTtFQkC3vvUzFkvds2d0/duxYbrzxRi644ALcbktvQhYmikajBINBwuFwu//8+++/zxNPPMFHH31k8ewOr2DocZSfMxNv5jebP8WiUYItLdrNfmLRCNvmv8Te1abe9dMNML20IITZuloC4AWeBy42O3Dv8acz8Kz/OvJGJhPUblrJ+jefJtBQa9kzDsflcnH++efz3//934wbZ+2yhrDW0Y4PHsnatWt57LHHeP311xO+POBOy2DgGdMpGj3pG22FjViMYEuLKYlw1bIP2P7B62bdLNgdqDcjkBBW6koJgBd4DZNb+zqcTgadPZOSsaeYGfYroqEgG99+nsqlH1r2jMPJysriqquu4vrrr5cyfycTCoUIBAIdKqNXVVXx5JNP8uyzz355K2KidO83hKFTr/7G1cNGzCDU2kwsqv/GXbdlFRv/8QyxiNZGwybiCYCltxIJYYaukgC4gReBi8wM6vL6GH7J9eQNGmVm2K9o3L2VNa/8hdbavZY94+uysrL4wQ9+wI033thleu93RQc3Cna0a2BzczPPP/88jz76aEJPD7j96Qw+70p6Dh//lX9vGAahlhbtXgEAzXt2su71xwm3Kic4bxFvESxE0usKCYATeBq43MygvqwcRv3X/3T4DvT2MgyDis/+zeZ3XyQWTUzZNSMjg2uvvZabbrqJ7t27J+SZwn7RaPTLHgId0dbWxvPPP8/DDz+c0ETgsJdoGQbB1lZiJixRBBpqWffaX2irU0q6zyZ+Y6AQSa+zJwAO4sdyrjMzaGZBMaMuvwl/t9xv/8MKAvW1rHn1cep3JObGvvT0dK666ipuueUWCgoSc0eBSD4qywIAra2tzJ49m0ceeYSGBssu3/kKf04uwy66lpw+g778d4ZhxLsGmpAERAKtbPj7kzRUbO7IsDeBC4DUubtZdGmd/aq1B4EfmBmwR/+hjL7iFss6++1ZuZAVzz9Ia+0eS+Ifyuv1cv311/Pss88ydepUMjISdy2xSD4ulwuv14thGEQ7UE73eDyMHTuWK664Ao/Hw+rVq9t97FBVJNDGnpWfYhgGOaWDcDgcOBwO3F4vRjSqvTHQ6faQN3gMwcb9tNZ8+3HI7OIBjLzilmcrl8z/QOvBQiRQZ04Afgn8xMyA+YPHMHL6fx+1d7mqWCTChn88w5b3Xk5Iyf/cc89l7ty5XHrppdK8R3zJ4XDg8Xhwu91Eo9EOVQN8Ph8nnHACl112GU1NTaxdu1b7rP5RGQb12zdQt3UtuWUjcPvix29dHo8pSYDD6SS3bCTerBya9+w47GVCTpeb4rGnMuD0y3B7/af0mTyVnZ+8JUmASAmddQnA9N7+hSMmMPSiayy5yS/YuJ9VLz5CQ4X1vdnLy8u55557OOOMMyx/lkhthmEQCASUP81v2rSJu+66iw8+sP790JOeyfBLrqdH/6FAvD1AqLXFlOUAgFgkzP7t62iq3Eok0IbL6yMjv5geA0bg9v8ngXbgwOX1/O+Hv7nhl6Y8WAgLdcYE4AbgETMDFo2ZzODz/58lZ/zrd2xg1bxHCTVbu3bao0cPbr31Vq677jpcFt9NIDqXcDhMIBAgpviJ+t133+XnP/85O3ea2nHvGxxOJwNOvZg+E88Gh8P0JKDd83CAy++98cN7bjD1dUgIs3W2d4JziHf5M+1jesnYUyk/70rz3/wNg50L32HNq48TDQbMjX0Ip9PJrFmzeOGFF5g0aRJOCyoYonM7uDcgGo0qJQEDBgxg5syZpKWlsWzZsnZ3I+www6Bu61paa/eQWzYCp9uNy+MhFoma1eCn/VOJGGf3P+XcrTs+/sfKhD5YiA7oTBWAMcAHQKZZAftMOoeyKZeaFe5L0VCQda8/yd41i02PfaihQ4fy8MMPM3bsWEufYxfDMFixYgUbNmygurraujcWm3g8HvLz8ykvL2fUqFGWdplsL9WTAgft2rWLn/3sZ5YvC2Tk9WLE9BvJyC8ytU9AhzicMZfHOe2j39z4emIfLET72P+KYo5iYBFQYlbA/idfSL+Tp5oV7kvBxv0sf+4BmvfuMj32QX6/n5/85CfcdNNNeDwey55jl3379nH//ffzyiuvUFVVZfd0EqKoqIhp06Zx8803k5+fb+tcYrEYra2tHTop8HUvv/wyv/jFL6irqzNxZl/l9qcx/OJZ5A4cGe8Y2NKsvIyhzOGIefy+sz64Z9a7iX2wEN+uMywBZAPvAQPNCjjgtIvpd9IFZoX7UvPeCpY9/VtLu/pNmDCBl156ialTp3a6tX7DMHjooYe4/PLL+eSTT2hubrZ7SgnT1NTE4sWL+etf/4rP52PcuHG2VQQOnhTo6HHBQw0dOpQZM2bQ0NDAqlWrTJ5hXCwSYe+axXjSMulW0h+X10s0HEr0KX2HEY3N6DP5vPk7P/mHtZsghOigVK8AeIi33jzdrIB9J5/PgFOnmRXuS7WbVrLqpUctW+9PT0/nnnvu4Xvf+15SlIrNFggEuOGGG5g3b57dU0kK06dP55FHHsHnM/9IakeEw2Ha2tq0jvvNnz+f2267jd27d5s4s6/qM/EcyqZcghGLETDhFsEOczpDaV7niPfuvXFjYh8sxJGl+kfEPwHfMStY7/FTGHjGdLPCfaly6YesefUvxCxaox4zZgyvvfYaU6ZM6ZRv/oZhcP311/Piiy/aPZWksWbNGjZt2sSFF15o69+5y+XC7XYTiUSUk4B+/fpx2WWXUV9fb1k1oGHXJlr2VZA/eAxur5dooveLGIYrFuN7/U+48C/bF77ZmtiHC3F4qZwA3ImJjX6Kxkxm8LlXfOPKUS2GwdYPXmfTO3Mt+cRxcIf/7NmzO3UL34ceeog//vGPdk8j6axfv56srCzGjx//7X/YQk6nU+uUAMSbCJ1++ukMGjSIjz76qMMXFLVHS00V+7etI3/IGDz+dMsS8iMxDMOL05jR/4zxf9z+/vsJ3owgxDel6sfF84lf7WvKmbbCERMYOu1aUz9JxSIR1rz6F/atWWJazEOVlpby+OOPc8IJJ1gSP1lUV1czcuTILrXe3xEZGRmsXLkyaRLAQCCg/eZdUVHBD3/4QxYvtuaUTFqPAkZffjPerO6E29osecbRuD3eRR/+9objib/+nkP8orLjiF8jvA/4gvgFZu8h9woIC6ViBWAg8A8gzYxg+YPHMPySWaZ2+IuGQ6x64SFqNiw3Leahpk+fzrx58ygrK7MkfjK5++67+eSTT+yeRtI6ePTxtNNOs3kmcW63G5fL1eGbBQ+VnZ3NJZdcgsfjYfHixabv3I+0tbBv7WLyB43Cm5Gd8OOBsVi0JH/occdVLfvwGuB2YASQC6QD+cAo4ErgeGA+oHw3sRBHk2oVgAxgIfEfGG09+g9l1IybcLrdZoQDIBoMsGLOg+zfbv5Nfj6fj9/85jdcffXVpsdORoZhMGTIEEs3h3UGRUVFrF+/Pqn2f0SjUVpaWrTvAli6dCmzZs2isvLbL+TpKE9aBqNm/pi07j0Tuicg0FDLmnkPE2za354/vhk4CTD//wDR5aVaW7gnMOnNP7NnCSOm32jqm38k0MqyZ++z5M2/qKiIf/zjH13mzR9g2bJl8ubfDpWVlaxYscLuaXyFy+UiKytLu/PkmDFjePvtt5k8ebJJM/uPcFsLy576Dc17tuFI0JFZw4ix6Z/PtPfNH6AMeBWw97iH6JRSKQG4GbjMjEC+rBxGzfjRl7eHmSHc1sKyZ35Pw64O3R/eLhMnTuTDDz9k3LhxpsdOZps2bbJ7Cilj82bzv+90ORwOMjMzcWsm2T169OCZZ57hhhtuML3KEQ0FWTnnIVqqtpq7AfgIajeuoKlqe0eHjQN+b/pkRJeXKgnAScBvzAjk8voYNeNH+LvlmhEOgFBzI0tn/5rG3dtMi3nQd7/7Xf7+97/Ts2dP02Mnuz179tg9hZRhRYncDA6Hg/T0dLxer1Ycl8vF7bffzl//+leysrJMml1cNBxi5dw/0rhzPQ6LV0Wr1ypvbLwRkz4ACXFQKiQAxcALgHat3uF0MvyS68nq1Ud/VgcEG/fz+ZO/onlvhWkxId7Y56mnnuKhhx7qlO1826OlpcXuKaSMZD4l4XA4SEtL004CAM444wxef/11BgwYYMLM/iMWjbDmlceo22ZNH4KDmvdqNQN8HBhs0lSESPoEwA28CJjy8XfQ2TPJGzTKjFAAhFqaWPbM72mr22daTIiXPF9//XWmTTO/I6EQdklLS8Pv92vHGTRoGiGlrwAAIABJREFUEG+99RYnn3yy/qQOYcRirH/jSfZvXW1q3ENFAlrHDjOBl4hvhhZCW7InAP8LmHLQvfSEsygZe4oZoYD4D/LyZ++jpdrc0mv//v2ZP38+EyZMMDWuEMnA5/ORlqa/9yYzM5PZs2czc+ZME2b1H0YsxoY3Z9Ow0/yNvBBfgtQ0DHjYhKkIoV9Wt9BE4A4zAuWVH0PZ6aZ1DCYaCrLi+QdoqtphWkyIX+Qzd+5ccnPN25/QVR3fL5MT+pm7VnyQo9GacvsnlUEWVoYsiZ1MDi4FtGk24XG73fz6179m4MCB3HXXXdpHDg+KRSOse/2vDL3oOrJLzF1qyCgooWGX9ubW/we8TXxpVAhlyZoAZAPPYEKjovTcQoZddI1pu4dj4RArnn+Q+p3m7lCfNm0ajz32mCklUgGnDurGnWcWWxLbscOao4m/XNTYJRIAiCcBDodD+yIhgKuvvpqCggJ+9KMfmdZCOBYJsf6NJxg27XoyCktNiQmQN/hYMxIAgD8TvwLd3E8hoktJ1iWAR4B+ukFcXh8jp9+I22/Ocb9YNMLKFx9h//b1psQ76NZbb2X27Nny5i+6FI/HQ3p6uinJ+fnnn8+zzz5Lt27dTJhZXCTYxppXH6O1xrxlvoIhY0nPLTQjVA7wLKnZzVUkiWRMAP4LMGFhz8GQqd8jo8CcT4FGLMaalx+jdtNKU+JBfHf0vffey5133plUXdyESBS32016eropsY4//nheeukl8vPzTYkHEAm0sOblRwnUV5sSz+FyUXbmDLMaD03CpGVS0TUlWwLQh/gVv9pKTziTnsPMa5yz6Z057Fv7uWnxHA4Hv/3tb7nxxhtNiylEKjIzCRgyZAgvvfQSRUVFpsQDCLc2sfaVPxNuNWfvR2bPUvpOnmpKLOIbpWXHsFCSTAmAE5hNvLSlpXu/IZRNuVR7QgftXPgvdn32b9PiuVwuHn30UWbNmmVaTCFS2cHlADMMGDCAV155hb59+5oSD+L9+9e99hdiEXP2aPQaPZm8wceaEcpN/HXTvLamostIpgTgJ8DJukF82d1Nvd2vZuMKNr9r3mZbr9fL7Nmzufzyy02LKURn4PF4TDkiCFBSUsKrr75KeXm5KfEg3sRn0zvPg0mnDQacdin+HFOWK8qBu80IJLqWZEkABgE/1w3icDoZcekNeDOyTZgSNFXtYPVLj2KYdB2pz+fjqaee4sILLzQlnhCdjdfrNW0zbH5+Pi+//DKjRpnX/Kt243J2fPKmKbFcXj/l5/0/nG5TOn3ehEk9U0TXkQwJgIP4ur926t/vpKl0612mPyPiJb8Vzz9INGTOsSKfz8fcuXM577zzTIknRGfl8/nw+cy5/C4nJ4fnn3+eYcOGmRIPYPeS99i78lNTYmXkF9PvZFM6fjqJH52WLoGi3ZIhAbgGOE03SE7pQPqeaM6bayTYxornHiDYVG9KPLfbzezZs5kyZYop8YTo7Px+vyl3BwB069aN5557joEDB5oSD2DrgpfYv32dKbF6jjiefHP2A/RHlgJEB9idAPQCfq0bxO1PY9i0a01Z9zcMg9Uv/ZnmfeY0e3E6nfz5z3+WT/5CdJDf79e+SvigvLw85syZQ2mpOU19jFiMTf942rTjgf1PvRRfdg8zQv0PcLwZgUTnZ3cC8AjQXTdI+TlX4M/JM2E6sO3910076+9wOLj//vuZPn26KfGE6EoOXiXsNGlDb2FhIfPmzaOkpMSUeJFgG+tef8KUZUKXz8/As2bicGj/tzqJdwnsmleIig6xMwG4BLhIN0jBsLEUjjQn4a3ZuILtH75hSiyAu+++m6uvvtq0eEJ0NQ6Hg8zMTNOSgOLiYubMmWNas6C2ur1s+bc5p4Syi/vTa8zJZoQaCfzQjECic7MrAegGPKgbxN+tB0POu8qE6UDb/mrWvPq4aReK3HHHHfzP//yPKbGE6MocDgdpaWmmdcvs168fzz//vGltg2s2LKVq6QemxCqdeA4Z+aZ0L/3/MKGduujc7EoAfg9ofZc7HA6GXTwLd5r+ptdYJMyqeX8i0taiHQvgyiuv5Gc/+5kpsYQQ8Y20ZvUIgHjHwCeffNK0jYbbP3qdxorN2nGcLjcDz7ocp0t770M68AftCYlOzY4E4Fjge7pBSsZPIafUnF296996mqbK7abEmjJlCn/4g/zcCWE2j8dj2vFAgPHjx/PAAw+YUlkwYjE2vPUUoWb9k0PpeUX0PuEc7TjA+ZiwzCo6r0QnAA7ipX+t5/pzchlw6sWmTGj35+9TtexjU2INGzaMp59+2rSdy0KIr/L7/Xg85u1vmzp1KjfddJMpscKtTWx46ylTGocVH3sKWb366k8K7gfkmlFxWIlOAKYTv8FKS/nZM3F59T8JtFRXsvGdOdpxIL7D+MUXXyQrK8uUeEKIw0tLSzNtUyDATTfdxKWXmnN3SFPlNioW/0s/kMPBgCnTcTi1bw3sC9yiPyHRGSUyAUjDhDP/haNOIK98tPZkYpEIq1/+M7Gw/uUeaWlppp4xFkIc2cHjgWbG+93vfseJJ55oSryKz/5FU9V27Tjpeb0oPu5U7TjAbYC8OIlvSGQC8BPi1/0q86RnMvAMc87Ub5n/Ms17dmnHcTqdzJ49m+OOO86EWQkh2sPlcpmaBLjdbh577DH69++vHcuIxdj0z2eIhgLasUomnElaj566YdKBe7QnIzqdRCUAxcBPdYMMOvtyUy76qd+xgV0L39GOA3DbbbdxzjmmbNgRQnSAx+MxdT9AdnY2f/vb30xZxgs01LJ1wcvacZwuNwNOu5T49iktMwBzShyi00hUAvAbNC+pyB04ksIRE7QnEgm0suYVc877n3nmmfz0p9p5jRBCkZmdAgEGDBhg2smA6rVLqNmwVDtOdkkZBcPG6YZxAL/DhExCdB6JSAAmEM8+lbk8Xgafe6Upk1n/5tMEGmq145SWlvKXv/zF1BcfIUTHpaenm9YkCOCss87i2muvNSXWlvdeJNhYpx2n7+SpeNIzdcOMB0y5elB0Dok4r6addZaecDb+nFztiVSt+IS9qz/TjnNw01+PHqZc3mEawzBYsWIFGzZsoLq6mnA4bPeUtCxatMjuKYgU4HK58Pl8BAL6a+4H3XbbbaxcuZKFCxdqxYkGA2x+dy7DLr4enZdBtz+d0onnseXduVrzAX4FvA5EdAOJ1Gd1AnAmmsf+fNnd6TPxbO2JhJob2Pi2OUf+7r//fkaOHGlKLDPs27eP+++/n1deeYWqqiq7pyNEwvl8PiKRCJGIOe9rbrebRx99lLPPPlv7Z6ph50b2rVlMwbDxWnF6DhvP3pWf0rx3p06YcuKN2P6iNRnRKVhdv/6FboCBp0835cz/xn8+b0qr36uvvpqZM2dqxzGDYRj84Q9/YOTIkTzyyCPy5i+6NLP3A+Tl5fHoo4+a0thr+4evE25p1AvicNDv5IswYRn/LjT3ZInOwcoE4ALia07KuvUuo+dw7c0v1G5ayd41i7XjDB48mHvvvVc7jhkCgQBXX301d955Jy0t5txhIEQqO3hpkJmOO+44fvhD/Yv1IoFWtr3/qnacrKJ+5JUfoxumF3JboMC6BMCB5qd/h8PBoLP+CzQ390RDQTb841mtGBAvMT755JOmv8CoMAyDG2+8kXnz5tk9FSGSitvtNu2Cn4N+9KMfMWGC/gmkmo3LqNuySjtO38kX4PRo/zf+FMjRnoxIaVYlAJcAWu36CkdNJLtYvynHlvdeom1/tXac//u//2PEiBHacczw0EMP8cIL5txBLkRn4/f7TV0KcDqdPPTQQ6ZcH7z1vXlEgm1aMbyZORQfq90hMAf4gW4QkdqsSACcxNeYlLm8Pgacpn/ZT+PubVQsma8dZ+LEidx4443accxQXV3Nr3+t3VFZiE7LiqWAoqIi7r77bu04oZZGdn7ypnac4rGn4s3UTkhuBuTyki7MigTgv4ChOgH6TDwbX5ZedcqIRln3xt+0b+bKycnhiSeeSJrz/vfddx/Nzc12T0OIpOZ2u03tEggwbdo0LrzwQu04e1Z+SvMerZ38ON1eek84U3cqPYD/1g0iUpfZ72pu4Oc6ATzpmfSecIb2RCqWvEfzXv1e/w8++CAlJSXaccxgGAavvfaa3dMQIiWkpaWZ2iAI4N5776WoqEgviGGw7f1XAL1upAXDxuPPydObS7wKoN1hSKQmsxOAacBAnQB9Tjgbt0+vfBdubWbrB29oxQC4+OKLufhi/aUIsyxbtozdu3fbPQ0hUoIVSwFZWVmmnARqqtpO9Xq9NsEOp4vS47V7pOQiewG6LLMTgJt1BnvSMykZq3/95db3X9M+85+dnZ00R/4O2rRpk91TECKleDweU87xH+q0005j6tSp2nF2fPQGUc3ryPPKx5CRX6w7lZsBv24QkXrMTABOQvPcf98Tz8fl0/s+bKmuZPcX72vFgHipr1evXtpxzLRnzx67pyBEyvH7zX9vu/vuu8nN1WtPHmpuoPLz9/Qm4nDQ+/iz9GJAAZAc3c1EQpmZAPxYZ7AvK4eS407WnsSmd+ZiRKNaMSZNmsQVV1yhPRezScMfITrO5XKZ3hugR48e3Hnnndpxdn8+X/uyoB4DRpDVq6/uVG4hcbfDiiRh1l94OXCuToC+k8/Xbm5Rt3UttZv1Gm34fD4efPBB0zcPCSHsk5aWZvpJnksvvZSTTjpJK0YsEmbHx3/Xnktv/b0A5cB52hMRKcWsn4ibdWL5u+VSdMxkrQkYsRgb//mcVgyAW2+9lfLycu04QojkYsVSwL333kt6erpWjJoNy2mq2q4VI6dPOZk9e2vFIF4FEF2IGbtj8gGtennfE8/FqblRp3LZh7RUV2rFGDp0KD/60Y+0YiSrtNHHkz76BEtiR5utuVk0sHYRgbX61zcLAf/ZEGjWjYEApaWl/OAHP+B3v/udRhSDnZ/+g2EX36A1l+KxU9jw5t90QpxIfB+X/NB1EWYkADcCymdtvBlZ9Bo1UWsCsWiE7R+9pRUD4J577jG9eUiyyBh/KvnX3WFJ7GCVXmvTI9n/3G8kARCmOnhtsJlmzZrF3Llz2bVLve9Iw86NNFRspltJmXKM3LKRpOcW0lqrtVn4RiQB6DJ0lwDSgOt1AhSPPVV77b/yiw8I1NdoxTjnnHM47bTTtGIIIZKbFR0CfT4fd9yhn1zv/ETzQ4zDQdGxp+hO41LipwJEF6CbAFxCfAlA7eFuDyXH6Z37j0XCbP9Y7wfH4/Hwq1/9SiuGECI1+Hw+02Oed9552jcGNlVuo37Heq0Y+UOOw5fVXSeED7haaxIiZegmANfoDO41ehLezGytCez+/H2Cjfu1Ylx33XWUlamX3oQQqcOKY4EAv/jFL3C5XFox4lUA9RbBDqeLXmP0TiYAswC9/xCREnQSgMHAJNXBDoeDUs2e/7FImB2f/lMrRvfu3fnJT36iFUMIkVr8fr/pR32HDRvG9OnTtWI0793F/q1rtWL0HHE8br/WyYRSNI91i9SgkwB8H1D+CcodNJr0vEKNx0PFkgXan/7vuOMOevTooRVDCJFaHA6HJVWAn/70p2Rm6t2ts3PhP9GpArg8PgqGjdOaA6B3JEGkBNUEwAtcqfPgPifota+MhkPs0Nw0U1ZWxtVXy3KXEF2R1+s1vQqQl5fH9773Pa0YLfsqqN+utxegcOQk0PtvO514JUB0YqoJwEVobP7LLupLTp9BqsMBqFr+MaHmRq0YP/vZz0y/KEQIkRqcTqclx35nzZpFt27dtGLs/mKB1nh/Th7d+wzWCeFE80OeSH6qCYDW5r/i4zSPqhgGFZ/9WytEWVkZl1xyid48hBApzefzmV4FyM7O5vvf/75WjIadG2nZV6EVo3D0iVrjge+hscwrkp9KAtAfUH4Hd3l99NRcn6rZuJyWmiqtGHfccYf2jl0hRGpzOp2WVAGvvfZa7dsCKzWrAN37DcGfo1yoBehHvDug6KRUEoDvK44DoHDE8dpX/u5c+I7W+MGDBzNt2jStGEKIzsGKOwIyMjK49tprtWLUbFxGsElnk7ODwpHa7b+/qxtAJK+OvpE70Lw3uuhYvTOqTVU72L99g1aM22+/3fSbwYQQqcmqvQDf/e53yc9X/wRuxGJULftQaw4Fw8bjdGv9t10K6B1rEEmro++CJwDKV05l9uxNdlFf1eGA/qf/4cOHM3XqVK0YQojOxYrugOnp6dpVgL2rFhINBpTHu/3p9BgwXGcKGYC8YHZSHU0AtLpc6G7+CzbuZ++axVoxbrnlFvn0L4T4CpfLZclegJkzZ5KVlaU8PhoKsHf1Iq055A/V7gmg191IJK2OvBM6gYuVH+TxUjhivOpwACqWzMeIRpXHl5aWyqd/IcRhWdEYKCsrixkzZmjF2Lt6ITqNgXL6lOPN1DqWeCYg3dI6oY4kACcCRaoP6jl8nFZ7SiMWo2r5x8rjIX4+V879CyEOx+PxmH4kEOD73/++1utOW91eGndvUx7vcDjJKz9WeTzxxm/yyakT6kgC8B2dB/UapXxtAAA1G1cQbKpXHp+ZmclVV12lNQchROdmxV6AXr16cf7552vF2Ltqodb4gqFjtcYjywCdUnsTABca5X9fVo52579Kzd2w3/3ud8nO1rt5UAjRuVnRHhjghhtu0Ipbu2k5kUCr8vj0vF5k9lTevw1wGpCnE0Akn/YmACcDPVUfUjB0rNY3f6i5gdpNK5XHu1wu7d24QojOz+FwWLJMOGTIECZOnKg8PhYJU73+C6055OtVAdzABVoTEEmnvQmAVvmn53C9XaiVyz7CiMWUx19wwQX07dtXaw5CiK7BimUAQPviMd1lgLxBx+BwaJ2AkgSgk2nPd4MTuFD1Af5uPehWMkB1OBgGlcs+Uh9PfPOfEEK0h8vlsqRN+KmnnkqvXr2Ux7fWVNK0Z4fyeE96Fll6fVhOB9J0Aojk0p4EYCwaN/8VDBundS3l/u3raavbpzx+0KBBHH/88crjhRBdjxWdAV0uF9On6+2lq9bsg5JbNkpneDrxJEB0Eu1Z7Dpb5wE9h+ntPq1a/onW+CuvvNKSTT1CJJNFixbxwAMP2D0NLR6Ph/z8fMrLyxk1apStP7der5dgMIhhqJ+/P5zp06fz0EMPEVNc0qzdtIJ+p1yMQ7GZWe6gUWz74DU0+gpcALyhOlgkF0sTgLTu+WQX9VMdTiwSoXrDUuXxXq9XuwmHEKlgwYIFLFigd3tcMikqKmLatGncfPPNWv30VTkcDlwuF5FIxNS4vXv35sQTT+SDDz5QGh9ua6Zh1yZy+pQrjfdm5pDZszfNe3cqjQfOJ145Vt+UJZLGt6WRecBxqsELho7VKv/XbVlFJNCmPP6cc86x5cVDCKGnsrKShx9+mJEjR/LHP/7R9E/i7WFFZ0BA+0NJ7cZlWuNzB2otAxQAWl2FRPL4tgTgzHb8mSPKKx+tOhSAvWuWaI2Xxj9CpLbm5mZuv/12rrnmGoLBYEKf7Xa7LVmGOPPMM7U+mNRuXqnVEl0zAQDZB9BpfNub+1mqgd3+dK3d/7FImJoNy5XH9+7dm1NPPVV5vBAiebzwwgtcc801Ca0EOBwOSzYDut1upk2bpjw+Emilfqf6lej+nDzScwuVxyMJQKdxtATACZyhGrjHgGHKG1UAajevJhJUL//PmDFDbv0TohN59dVXefjhhxP6TCsSAIj3JtFRu1H9wxFATp/BOsNPADK1JiCSwtHeIY8jvt6jJK9spOpQAPZpHne5+GLlzsVCiCT1q1/9in371I8Fd5RVywCjRo3Sak5Wu3klsUhYeXxOX60EwAtM1gkgksPREgDl8j846FE2XHl0LBKmZuMK5fHl5eUMGTJEebwQIjm1tLTwhz/8IaHPtOoG0XPPPVd5bDQUoGHXJuXx2cUDcLq1qhuyDNAJHC0BOEU1aFZhb3xZOarDqdu6Vqv8r7O+JoRIbi+99FJC9wJYdRpAdxmgfvs65bFOt4fskjKdx5+mM1gkhyMlAB5AuYF/7sARqkMBqN28Smu8JABCdF6VlZWsWKFeIewoK9oCAwwbNoyBAwcqj9+/ba3W81V7CRwwHOihNQFhuyMlAGOIt31UkltmXwIwaNAgBg/WWt8SQiS5zZs3J+xZVp0GAL1lgEBDLYH6auXxmhsBHcQ3A4oUdqQEQPkv1u1Lo5tGaam1dq9W73/Z/CdE51dZWZnQ51mVAJx//vla4/dvU18GSM8t1FqqBSbpDBb2O1ICoPwX2610IA6Nkplu+f+iiy7SGi+ESH7Nzc0JfZ5VCUB5eTm9e/dWHr9fYx8AxDcDapAEIMUdKQFQvj4vp7fWxhKtBKC0tFR2/wshLGHVXoCTTz5ZeWxjxWZikZDy+Kyi/spjid8Uq7xULOx3uARgAKB8aXU3jQQgFglTv3298vjTT5eTKUIIa1h1HFAnAYhFwjRWbFEen12slQB40bgrRtjvcN/RE1WDOZxOrW+o+h0biIbVs9kpU6YojxUilZWM7U/vsVov5kdUFVZvOHM09V9sp37pDktiW8Hj8VhyH8GkSZPwer2EQmqvfft3rCenr1rlMz23ELc/nUigVWk88dNiH6oOFvYyNQHI6tUHl9enPJnaLWuUx3q9Xq1MWohU1u/EcibfrHxz91EtbmmxJO6WP/47pRIAq5YAMjIyGDduHB9//LHS+KbdW9Uf7nCQVdhHZy+B3AyYwg63BKB8AkCn/A/QsFO9s9WECRPIzJT21EII6yTjMkBL9W6iYfXKhOY+AEkAUtjXE4A0QHkXXU7pIOWJxMIhmqrUPw1I+V8IYTWrEgCdm0uNWIxmjdfO7OJ+ymOBMkDrLKGwz9cTgKGAcp1LpwLQWLWDWDSiPF4SACGE1axKAAYNGkRBgfLdazRWblMem1lYqnNzq4N44ziRgr7+t658hZ8/J0+rqYRO+T83N5fhw9UvHxJCiPZwuVyW3A4IMG6ccvd1mjQSAKfbS1p39eQDOQmQskxLALJ79dGaSP3OjcpjJ0yYYNkPpRBCHMqqzYDHHaf+PtpUtR3DiCmPz8gvVh4LjNYZLOxjWgKQ2VO9mxWGQYPGWdYJEyaoP1sIITrAqgRApwIQDQVoralSHp9RoJUADNUZLOzz9QRA+RafzJ4lypNoqd1DuFW9tef48eOVxwohREdYlQAMHTqU9HT1xno6ywAZ+eqv38BgDn+kXCS5QxOAIiBfNZBOBaBhl/rNXj6fj2OOOUZ5vBBCdIRVGwHdbrfWa1nz3l3KYzUrAD7iHWRFijk0AVAu/7u8PvzdlXMHmvfsVB47evRo/H6/8nghhOgIh8OBU33X/FGNHTtWeazOEoDbn6F7M6Dswk5BpiQAmQUlWpvwdDJXWf8XQiSaVVUArQSgdo/eRsACrWWAYTqDhT0O/S5WzuB01v8BmvZWKI/V2TgjhBAqrKoA6BxnjkVCBOprlI/0pecWUrdlterjLwDMvyjBHgawB/gASJ1e1QoOTQCU13B01v8DDbVE2tR7jY8aNUp5rBBCqLBqI2Bubi75+flUV1crjW+trlROAPw56su4xFsCd8a2wO8CPwFW2D0RKxyaxir3g9QpHTXvUS//Z2VlUVpaqjxeCCFUWFUBgPhpAFUtGvsANBOAzup0YBHwHbsnYoWD38V+oFA1SEae8lCt9f/hw4dLAyAhRMI5nU7LXnsGDx6sPLa1plJ5bJrGRu5Ozg88A0yyeyJmO5gA9CXe07njATxevBnZyhNo1lj/l/a/Qgi7WFUFsCsB8KRn4fLJiaoj8AJP0Mn6HRyaAChJy8kDnRMA+9QTgGHDZOOpEMIeVu0DGDJE+UJWAg11xCIh5fFpsgxwNOXAGXZPwkzaCYA/J0/54UYsRlvdPuXxI0YoNy4UQggtViUAgwYN0jhmaBBs3K/8bNkH8K3OtnsCZjqYAChvAEzTSACCTfuVrwB2OBxam2WEEEKHVUsAXq+Xfv2UX5IJNNQqj5UE4Fv1tXsCZrK1AtC2v0Z5bElJCZmZmcrjhRBCh5UnAXRONwUb65TH+rK7K4/tIgy7J2Am/T0AGjtHA/vVzroC9O3bV3msEELosjIB6N1bp7eKegKgs6G7i9hu9wTMZG8FoF4SACFE6rIqCdBJAIKN6ksA3sxuymO7iLftnoCZnMSPNSh/jNfZA9AmFQAhRAqzqheAXUsAkgAc1TrgX3ZPwkxOoAeKPQBcHi+edPV1eJ0EoE+fPspjhRDCDFadBNBbAlCvAHjSMnC6OtVRd7OEgGsAtV3rScoJ5KoO9qRnaT08UK++CVAqAEIIu1lVAdBJACKBVqKhgOJoBx7ZB/B1bcDlwCd2T8RsTkC5hq/z6T8WjRBsalAeLwmAEMJuVu0B6NatG9nZ6m/EoZZG5bGyDPAV7wDjgZfsnogV3GhVANQTgHBrM6onKtLT0ykoULvxSgghzGLlXSTFxcU0Nqq9kUfaWkDxRJ/mSYC3Sf2b8xqBXcSvA95p81wspbUB0KuxBKCToRYWFsolQEII21n5OpSbq/zZjLDGFetuf4byWOKfmB/UCSASx7YlgHBLk/LYvDz1kwdCCGEWqzYBAvTo0UN5bCSgkQD40pTHArJ+kEL0NgGmqScAOhUASQCEEMnAygpA9+7qXfl0EgDNGwElAUghmqcAdPYAqFcA8vOlX7UQIjlYlQToVADCba3KY6UC0HVoLgHo7AGQJQAhhDgSrQpAW7PyWEkAug4noPwu7klT3yyiUwGQBEAIkSysqgDoJADhgHoFwCUJQJfhBLyqg11en/KDQ63qGarO7lghhDBTMi4BRHROAUgC0GVoJQA6LSPVO1VJAiCESB5WJQDduqm/l8YiYeWxmhUArR2EIrGcgPLHeIfbo/zgaDikPDYrS68FsRBCmMWqBMDrVf5shhGLKo916h1tVJ+0SDitBEDnG0UnQ/X51JcehBDCTMmYAMSi6nfWOJzFiKcNAAAgAElEQVSSAHQVmksA6hWAmEYFIC1Nq0QlhBCmMQy1lubfRqsCYF8CIJ/OUogbjQTAYVMFoDMkAIZhsHTpUpYvX97uft+LFi1Sfl7b8oXUzr5PefzRRJrU/y6PJrD2M+WxC7c1cd/8KhNnc4j96idYjubTKvWkuGLJVhb+6d8mzuY/doXU53U09Ut3KI9dtGgRDzzwQLv+bHZ2NqNHj2bMmDGWfFrvdBUAWQLoMtxoLQGobwLsyksAL7/8Mr/4xS/Ytm1bwp7Z8tl8Wj6bn7Dn2W3+xkbmb1TvNplqtn20gW0fbbB7GgmzYMECFixY0KEx/fr146677mLatGmmziUZEwAbKwCSAKQQN6Bcx9c6BdAFlwBisRg//vGPeeKJJ+yeihBdzrZt27jqqqv4+OOPue+++5L+QjGPR2OJVSMB0NwE6EP5HkJxBPWoXp37LbQqAA63TgVAPQHw+1PzpMk999wjb/5C2Ozxxx8nLy+P22+/3e6pHJVOpdOIqp8CMGEPQJ1OAPENYeLXE/8T+CNgWqnPSTwJUKLzjRKLqH+D6pTG7LJp0ybuu8+aNXghRMf89re/ZcOG5F4ycet8wNI4BuhwOpXHCkt4gP7AD4DVwF2AKeUrJ6BcK9I5a5rk1TfTPfroo0Qi6mU5IYR5otEojz/+uN3TOCqd1wunzoczjeqBsJwb+DnwsBnBnMTLC0oMnTc0jSwzmoLfoO+++67dUxBCHOJf//qX3VM4qmAwqDxWZye/zvKBSJgbgEt1gzgB5cV4raMmjq6TAMRiMSoqKuyehhDiEBUVFcRiMbuncUThsPpJKa0TWhqv6yKh7kFzKcC+BECjApDMP7RHkuw7joUQaqxqBBTS6L/g0EgAdI4QioQqA47TCaC3BKCz07QLVQCcTifFxcV2T0MIcYjevXvjNGHDWzImAFIB6DLG6AzWrABodIDrYnsAzjjjDLunIIQ4hFk/k1ZV96QCINpB/c5oNCsAOrtFdTLvVNxNf/3112s19hBCmMfj8TBr1ixTYiVjBUDriLYkAKlkn85grQqAodHOVydDbWlpUR5rl7KyMm655Ra7pyGEAG699VYGDBhgSqxkTAB0lgB0jneLhFusM9i2TYBun3o734aGBuWxdrrtttu49tpr7Z6GEF3addddx09/+lPT4lmVANTX1yuPdbo12ginYIW1i1p14EuZE1B+N42G1M+puv3pymPbe3tesnE4HNx33308/fTT9O/f3+7pCNGlDBgwgGeeeYbf//73pq7bW5UA1NWpd9T1pGUoj9Vp0y4SxgC0s1g3sF91cLi1Wf3BGhWAVE0ADrrooou48MILWbZsGStWrKCqqopAIGD3tITodPx+P7169WLUqFEcc8wxlmzYS8YEwK2RAITbUm+JtQu6G3hbN4heAtCmkQD4u94SwKEcDgdjxoxhzBitUxxCCJtZlQDs36/80qxVAYhIApDMWoh/8v+TGcHsqwB0wSUAIUTnYtWbP+glAG6/RgIQ0EoAAkCbTgDxDUFgO/HbAP8C7DErsFYCEGptUn+wTxIAIURqszIB0FoC0EgAdCq7xNvT3q0TQCSOkxRcAqiurlYeK4QQZrGyLbl9SwCtymMBeXFOIXoJgMYSgCctU3lsZWWl8lghhDBL8lYA1CusmhUArcY0IrGcgPJ3mU4C4MvurjxWEgAhRDKwMgHYvXu38lhPuvoHrEhAKgBdhW0VAF9WjvLYqqoq5bFCCGEWq5YAGhoatPY6edKzlMdqHgOUBCCFOAHld9OwxiZAnQrAnj17UvJCICFE52JVBWDnzp3KY93+DFxev+JoQ/cUgCQAKcRJ/EiBUlP/aDikXAXwpmfhdKv1q45EIrIRUAhhO6s+iOzatUt5rL+b+gVx4dYWYup3vETQWFIWiecEomhUAdrqa9QGOhx4M7upPlb2AQghbGdVBUAnAfBlqycAgcZa5bHENwBatylCmO7gnbzK320B1QQAvW9UnRKZEEKYwao9ABUVFcpjfdm5ymODDVoJwA6dwSLxDiYAyt9tbfvVS/H+LPV9AJs2bVIeK4QQuqw8AbBjh/p7qc4SQLBRq4IvCUCKsbUC4M/JUx67ceNG5bFCCKHLyo3IOhVOrSWABkkAuhLtBEB5DwCQnleoPFYqAEIIO1mVAIRCIbZv36483t9NYwlArwIg67IpRnsJQKcCkJHXS3msVACEEHayav1/w4YNRCIRxdEOzQqA7AHoSsypACiuhaVrJABNTU3s2WPapUhCCNEhVlUA1q1bpzzWn5OL0+1RG2wYhJrU7x9AKgAp5+BBfOV6eiwcItTSqHSkz5OWgSc9U7mXwMaNGyksVF9GEEIIVVZVANavX688Nj2vSHlsqKWRWFS18gDE76nX6iOcJFqIV8U/AJbSiY82HkwA6on3AlD6SN5Ss0f5TH9GXi/qd6rlH2vXrmXy5MlKY4VINo2Njbz22mssXLiQmpoasrKyGDFiBFOnTqV///52T08cIhaLWXYKQCcB0FlWbduvfY/PTN0ASWgpcBPwod0TscKhrfjWo5gANO/dRfe+5UoTSNdIAJYvX640TohkYhgGjz76KL/85S9pavpqe+158+bx85//nMsuu4zf/va35OSo36EhzGPlNcBr165VHqtTAWitluZqhzEGeA/4AfAXm+diOuchv1deeGreq961SidjXbZsmfJYIZJBLBZj1qxZ3Hrrrd948z/IMAzmzJnDKaecIvtekoRV6/81NTXU1OicrFJPAFpqJAE4AjfwJ+AsuyditkMTgA2qQZr3qXetyuzZW3nshg0baG3tDEtOoqt64IEHeP7559v1Zzdv3syMGTM0dogLs1hVAVi9erXyWKfbiz9H/QhgqyQAR+MingT47J6ImUypALTs2628HpZd1BdwKI2NRqOsXLlSaawQdtu3bx+//vWvOzRmyZIlzJkzx6IZifayKglbvHix8tj0vEIcDue3/8HDMIwYrbVSXfoW/YCz7Z6EmUxJAKKhIG11ahtI3GkZpHVX7wgoywAiVc2ePZtAINDhcQ8//LAFsxHtZRiGZRWAJUuWKI/N0Cj/B+prdG4B7ErOsHsCZjo0AdgNHH4Rsh10lgGyivoqj5UEQKSquXPnKo1bu3at1huF0GPV+n8kEmHFihXK4zMKSpTHygbAdiu1ewJmOjQBMIifBFCisxEwu1df5bHyQihS0aJFi7TaWT/11FMmzkZ0hFXl/zVr1mjtacoq6qc8tqVG+Ub4rqZTbcD5+oLRUtVAzXvtqQBs3ryZykrJXkVqee6557TGv/TSSzQ3qzXQEnqsqgB89tlnymNdXr9WZ1XZANhuW+yegJm+ngB8rhqoqUq9DXR2UT9UNwICfPzxx8pjhUi0QCDAq6++qhWjpaWFl19+2aQZiY6wKgHQqWZmFfVT3gAI0KKxhNvFvGX3BMxkWgIQqK8h2KjWR9rtTyM9t0D10Xz00UfKY4VItLfeeouGhgbtOLIMkHjRaNSyDoCff6788nvgNJWaUHM9Qb07ALqKJcACuydhpq8nAGuAjm9LPqB+l/qaZk4ftU6CIBUAkVrae+7/2yxZsoRVq1aZEku0j1Xr/xs2bKC6ulp5fFaReqvoxt1blcd2IS3ANXSyewG+ngCEAeX+ug07NytPpHvfwcpjZR+ASBX79u1j/vz5psV79tlnTYslvp1VCYDO94TD6SSzUH1zelPlNuWxXUQ9cCGgfkQjSR1u0Ui5DqVTAejeb4jyWJBlAJEa5syZY+qbyJw5c5R6CQg1ViUACxaoV5Yz8ktwedQb1DVKAnAkIeA5YDTwb5vnYgn3Yf7dF6rBmv9/9s47Psvq7v/vO3tvEiAkYYQwwkaWG1ArWlQoCKKCsxW0ttY6q4/1af3Z9qlttWrrRgVRQRRBFBQEB3vKnoEkkIQMsu7k3tfvj4soIyHJdc51j+S8X6+8AuE+3+sAyX0+5zuL83E77ASHtf6bMTw2gcikVMMNhb7++mumTJliaK1C4S2M1v43xcmTJ1m8eDGTJ0+WaldxLmYl/9XW1golAMalG3f/ux020R4AryFwafRTXOjTcdcA4sk6fkxjAsDwf6bm8VB97LDh23xi196GBcDnn3+O2+0mODjY0HpFYFNaWorVaiU1NZWoqChfb6dRtm3bJtTrvSnefvttJQC8gNNpTqe87777Tsh2gkD4tKboCJom1NXwOQTmyCh8S2MhgD1AtVGDlfn7DW9GJA+goqJCKItWEXjk5+fz+9//nuzsbLp3707//v3p2LEjl1xyCa+++ip2u93XWzwDs3r4f/PNN+TlKTeu2Zjl/l+1apXhtUEhocSl9zC8XjD+XwoYf8NX+JzGBIAbMJxWX1UgkAgomAewdOlSofWKwGHu3LkMGzaMV155hZKSkh+/rmka27Zt48EHH+TSSy/1m4PR6XTy4YcfmmJb0zTeeecdU2wrdDRNMy0EICIA4jN6EhQSani9YAXA97SxrPj2RlOdI1YZNVhZcBDN4A9KeGwC0anpRh/NF198YXitInCYO3cuM2fObLZt6u7du/nZz37GsWPHvLSzpvnyyy+F5rw3x9y5c9WYYBMx6992z549FBYab8Ij4v73uF3UFBtv4IYeI1cEME0JgNVGDbrtNioFvAApOQMNr929e7ff3PgU5nDkyBF+97vftbgZS1FREbNmzTJ5V80j2vq3OYqKili+fLmpz2jPmBX///TTT4XWJ3bta3htzbHDeJwOkcer0qsApykBsAWBPIDygz8YXUpKziDDawGWLVsmtF7h3zzxxBOtHpiycuVK1q5da9KOmqeiosIr3inVGdAcNE0zTQAsWbLE8NqIhBQiEoyPUj95xPAEeNAb4xieHaPwD5oSAC4E8gDKDxjvThafkU1YdJzh9aI91hX+y4YNGwzfmHwZI58/fz4Oh9BNq0UsX76coiI11U02ZsX+d+zYIeSxFLn9A1SKCYBv0OvkFQHM+aZHGA4D1JYUGp4LYLFYSM7ub/TRrF27loIC46OJFf6Jpmk8/vjjhvuwL1q0iPr6esm7ahlmZf+fjcvlMj3U0B4xS7wtXrxYaH2CQNK0vaaSuvJikcevEFms8A/OJwBWGTerUX7IeL1zSi/jYQBN01iwYIHh9Qr/ZP78+ULjUmtqanwSI9+3bx+bNxvurdVqZs+ejccjVNetOAuzEgA/+8z4YLmQ8EjiM3oaXl+Zt9vw2lO0yc547Y3zCQCxPIADxvMAkrP7ExTSWI+iljF//nzDaxX+h81m4+mnnxa244vvC2/fyI8eParaYkvE5XKZMv1v69atHD1qPAM/KXsAQcHG3yMF4/+lgJpC1QY4nwBwIeDmqTi8C83gTSQ4LJyELOPlLTt27GD3bmGFq/ATXn75ZfLz84XtLFu2TMoY3pbi8Xh8IjpUTwB5+Gv2f7JAsrTmdlNVINS/ZyWg3ExtgPMJAADDKaouW71QU6CO/UYYXgvKC9BWKCsr47nnnpNiy2azCb/xtoavv/5aqMbbKIsWLaK8vNzrz21rmJX973Q6hZKVQyKiSMjIMby++vhh3A6hLpmfiyxW+A/NCYClCCi90n1bjS6lQ5+hQh2uPvzwQxULbQM888wzVFcbjkSdgzeF4Xvvvee1Z52O3W43retge8Is9/+yZcuEmkIlZw/AIjDz5OThXYbXop8HquNaG6E5AVCMwHCgE7s2gMEfoJCISKGmQPn5+UIjNhW+Z//+/cyePVuqzW+++cYrpXI1NTVCNd5BQc39aJ4f1RNAHLOy/0WFYUqvIQKrNcoPCI213wCUNPsqRUDQkncZw6mqtqoKqgR6TacJhgHefPNNofUK3/L4449Lz8B2u9189NFHUm02xscff9zqhkWnc/PNN5OZmWl4/a5du9RwLAE0TTMl+z8/P5/vvjPcYoXQyBjiumQbXl99LA97jbES7VMYL11Q+B0tEQDGrzFAyc4Nhtem5AwkJML4aNelS5eqxigByrfffmtaV0dvlImKZv/feuut3HzzzUI2lBfAOGbd/j/44AOh0GRyzkAsAt6h8v3Gw7KnEDoPFP5FS76TtgKGp6mc2L3RcBwtKCSU1D5DjT4al8vFu+++a3i9wjd4PB7+8Ic/mGZ/8+bNHDhwwDT7+fn5Qq2Hs7KyGDlyJNOnTydYINY7f/58amtrDa9vz5iR/Od2u4VzUFJzjXtFNc0j6v4vBIQMKPyLlggADQG3j736pFA1QFr/kYbXgt4YxaxWngpzmDdvHlu3Ct9UzouZyYBz5swRSh675ZZbsFgsdOnShdGjRxu2Y7VaWbhwoeH17RW3223Ke8bKlSs5fvy44fXRHdKJSTMeFqouPITDKpRQuxA1/rdN0VJfklDtVMlO4x3ckrr1ITIp1fD6goICvvpKNa0KFOrr6/nzn/9s+nM++OADU+xqmsb7779veL3FYmHq1Kk//n7GjBlC+1FhgNZjlvv/tddeE1qf1n+U0Pry/duE1qMLAEUboqUCYDlguLD4xO5NhpsCYbHQefClRh8NwH//+1+h9Qrv8fzzz3uldv7w4cNs2SJ/mNmaNWuEBrxcdNFFdO3a9cffX3PNNXTo0MGwvQ0bNrBjh2ra1lLMqv3fsWMHa9asMbw+KCSUlN7Gw6Gax0P5QSHvfQkCA+IU/klLBYATMJw67aitovLoPqPL6Tz4EqG2l1999RXbt6vQlb9z4sQJnn/+ea89z4wwgGjy37Rp0874fVhY2Dlfay1qQFDLcTgcptT+v/LKK0Lrk3MGERIeaXh9VcEBnHVC+SCfACqW2sZoTTqpcb8mULT9e8Nrw2LiSOk9WOTxvPjii0LrFebz9NNPezVpbcGCBVJjvfX19SxatMjw+sjISK6//vpzvj5jxgwsFothu/PmzcNmsxle354ww/1fVFQk1BMCIK2fmPv/xG7j1VinUBPW2iCtEQCrAcMZLCd2bcRlM14XnT70csNrQX+zl9FPXmEOO3fu9PpNtbi4WOrgnMWLFwt1LbzuuuuIi4s75+s9e/Zk5EjjybAVFRXCB1B7wOl0mtI99JVXXhHqKRCZmEpcejfD6122OioOGh/OBpxAaDqswl9pjQDwAIb7i7qdDop3rDO6nKRufYhK7mh4vcvl4uWXXza8XmEuTzzxhE+qNWS2zBXt8HY+V79oMqAaENQ8drtQf/xGqa6uFkoKBUgbcCFg3ANUumcjHpdQXsP76MPhFG2M1naUEPpOPrZplfHFFgvpQy8TeTyzZ8+msrJSyIZCPsuXL2fFCsODJ4X45JNPqK+vF7ZTVFTEqlWrDK/v3Lkzl13W9Pf3xIkTiY+PN2x/1apVQsmJbR2zSv/mzJkjFNYKDosgrZ9YKfSJXcLu/zmiBhT+SWsFwHrAcFF/bUkB1ceMvwl1GnwJwWHhhtdbrVZeffVVw+sV8nG73Tz55JM+e35NTQ1ffvmlsJ33339f6ACZOnXqeZv+REZGMmnSJMP2NU1jzhz1Pt4UZtz+rVarcPJfWv8LCQ6LMLy+pugI1lLDfdwADgAbRQwo/BcjPSWFCqiPb1lteG1oZDSdh4iVBL7wwgvKC+BHvPPOO+zevVvIRnp6utB6GWEAM93/DYiGAebMmWNKf/tAx+PxmFL69+abbwqNZbYEBdNp8CVCeyjZYbwj5SlU7KgNY0QAzEagG1TxjnW47cYzkjNHXS00CrOqqoqXXnrJ8HqFPKxWK88884yQDYvFwltvvUVWVpZhG8uWLaOqqsrw+s2bN7N3717D64cOHUqvXr2afd3gwYMZOND4hMzjx4+rpliNYMbtv6amRvj2n9JrCOGxiYbXux02ysR6/2uAqiFtwxgRAAcBw3N23Q47JQIxqYj4JNJyhxteD/Dvf/+b0tJSIRsKcf7+979TUiI2WXTixImMGjVKyD1us9lYvHix4fWit//WDP2ZPn260LNkj1cOdDRNM6X077XXXhP2NHYWrHwq27sFj1Po77YSUIkjbRijY6WEeloWbjKsHwDIumgcIlmxVqvVqw1nFOdy/Phx4aqMsLAwnnrqKYAz2ucawWgYwOFwCI0XDgsLY+LEiS1+/dSpU4mKMj4hc9myZWpC5mmY0R+hurqa119/XchGQlZvojuIhbaKdxjvPHgKsb+Ewu8xKgAWAoav0DXHj3DyiHGXaUxaBkk9cg2vB702V2Qwh0KMp556iro6430hAGbOnEm3bnp9dO/evenXr59hW6tXrzb0/fDFF18IxXnHjRtHcnJyi18fFxfXaLOgluJyuYQ9Fm0Fs2L/L7/8slA/CBC//Vfl78d6Qqildjl69z9FG8Zof10HemnIA0YfnL/mCxK79ja6nKyLxlFxaKfh9TabjX/84x/8/e9/N2zD3zlw4ABvv/02q1atoqioyLQhJ0YQibkDJCUl8dBDD53xtRtvvJGdO419T3g8HhYuXMh9993XqnXeSP47mxkzZjBv3jzDz3zmmWf417/+ZXi9bCIjI8nMzOSqq67itttuIzXV+PCv1mC326W3/S0tLeWtt94SshGd2oWErOZzQs7H8c1iXlb05D/VPrKNY9yPDr2B3cZtWBh575+J7tDZ8AY2vvYnqo8dNrw+LCyM9evXk52dbdiGP+J2u/njH//Iiy++2Gazvv/2t78xc+bMM75WUFBAbm6u4Tf1oUOHtqqWv6ysjJycHMO3yA4dOrBv3z5CQ0NbtU7TNIYOHcqBAwcMPdefiY6O5plnnuHOO+809TmaplFTUyNdADz00ENC4gygzw2/JLFbX8Pr68qK2Pbu3xCc3NsP2CViQOH/GA0BAOwFjDf4RyN/7TKBx0OPMROE1jscDh577DEhG/6Gpmnceeed/Otf/2qzh392djZ33XXXOV/PyMhg1CjjPdM3b97MoUOHWvz6+fPnC7mQJ0+e3OrDH/TKB9GSQH/FarXy29/+lmeffdbU59TX10s//Hfu3Ck8ZjomLZPEbn2EbBzfsgrBw/9b1OHfLhARACCYDFj8w1octcZjZUk9+gmFEUCP4S5fvlzIhj/x0ksvCSWlBQJ/+tOfmjw4b7zxRiHbrXkD94X7v4GbbrrJkHgIFJ599lnTShbdbrcpsf+nnnpKeJZA1sU/R8Qx67BWU7Z3s9AegH+LGlAEBqIC4APAcEqxx+WkcKNYC9juY1qeQd0Ujz32mClvCN6mtraWv/71r77ehqlcfPHF/PznP2/yzydMmCB0MLZ0RPDu3bvZtm2b4efk5uYK1fSnpqYybtw4w+v9HU3TTOsQaUbm/6JFi1i/fr2QjdjO3YjPzBGyUbztGzxuIc/fMVTyX7tBVADYgf+IGCjcsAK3w3gjjoTMniT1MJ79DbB///420SL4iy++aNNdDi0WS7ONg5KSkhgzZozhZxw8eJAtW7Y0+zpf3v4bEO0J4O/s3LmTXbvkeqJdLpf00JjNZpMSssi86Fqh9W6ng+IfhDv/vQQE/m1I0SJEBQDoAsDwNBVnvZWibd8JbaDH2F8gls+ouxzLysqEbPialhxcgcyUKVMYMmRIi14nQnNeAJfLJRTrDQkJEd4jwBVXXEGXLl2E7fgzmzZtkmrPjNv/yy+/TGGhUMkdCVm9iO8ilox8YudaXDariAkbqva/XSFDAJQh2C/66PdL8Qio8rjOXenQe5DIFqiqquJ//ud/hGz4GpF6dH8nMjKyxf8/1157LdHR0Yaf9dFHH513sM/KlSspLi42bH/s2LGkpaUZXt9AcHAwt956q7Adf0amKHc4HNIn/uXn5/Of/wg5QQELGRdeI2TB43JybNNKwX0wD4H+LorAQ4YAAPgHYDj7xVZVwbHNq4Q20GPsJCxBYn+dOXPmsHq18WFFviYx0XjfcH/nvvvuIyMjo0WvjYqK4tprjbtTi4qK+Pbbb5v8c39w/zcwffr0804RDHSSkpKk2NE0TfrtX9M0HnnkEeFx0im9BhPb0fgsC4Di7d/jqBXqraEBzwltQhFwyBIA+4HPRQwc+XYJboG+1dEdOtNlmPHYL+g/0Pfee69whzpfMWDAAF9vwRRSU1N54IHW9ZwSrQZoqjVwVVUVS5cuNWw3Pj6ea64Ru+2dTpcuXRg9erQ0e/6GrO9pm80mvezvww8/PK9QbAlBIaGnMv+N43Y6OLZJLJkaWIwq/Wt3yBIAAP8UWeyoreLYRjEXVvfLbyA0KkbIxtGjR/nLX/4iZMNXjBs3TqhPvL/y+OOPExsb26o1Y8aMISUlxfAzP/3000ZvjAsXLhS68f3iF78gIsL4fPfGuPvuu6Xa8xe6d+/eopyP5nC73dK7YFZUVAhPsgRIHzaW8DgxL0fxtm9w1tWIbuX/RA0oAg+ZAmAFYLwuCj0XQKQiICQymu6X3yCyBUCfFrh1q9AYTZ+QmJjIb37zG19vQyojRoww1PQmNDSUCROMN4qqqqpqtD+EP7n/Gxg3bhzDh4tNyPRHnnrqKSwWseReQNhF3xhPPPEEFRUVQjbCYhLoPFTMa+l22DgmOFwNWAeIZWIrAhKZAgDgzyKLHdYaCtZ/KbSB9AtGE5PWslhxU7hcLu69996A7A3w8MMPtxmXcEpKCrNnzyYkxNjIismTJws9/+wwwOHDh4VqvXv06GHKQW2xWHjjjTekJBb6C3fddVerpiQ2hdPplJ74t3LlSj799FNhO10vvY7g0DAhG8e3rBbN/Af4m6gBRWAiWwAsBLaLGDj6/ee46o1/Q1uCguj5M7HRsAA7duzwq4EpLSUkJIQPP/zQlJumNxk8eDCrV68WKnMbOXIkmZmZhtcvW7bsjKlu7733nlAcedq0aVJutI3RtWtXli9fHvB5ICEhITzyyCM895x4PpqmadJv/9XV1Tz66KPCdmI7dyOl12AhGy57PUVbhZOWdwGLRI0oAhMz0ofLAMMZWB6Xk6CQUBK7GW/xG5nYgdqSQurKxOaer1mzhiuuuILOnY0PLPIFISEhjB8/njFjxn97dKQAACAASURBVOB0OikvL6e2ttbX22qW1NRURowYwR//+EeeeeYZ4Qxwi8VCaWkpa9caa47icrno2bMnAwYMwOPxMGvWLMNTDIOCgnj55ZeJj483tL4lJCYmMmPGDLp160ZNTQ2lpaUB4cUKDg4mIyODyZMn88orrzBhwgRprn/Zt/8HH3yQjRs3ihmxWOg9/g7CYsS+FwrXL6fy6D6xvcC9qOS/dosZ1xELei6A4atIcGgYI+/7f0TEt3xO+tnYqspZ9/ITuO1ipT/dunVjzZo1xMSIJRf6GofD4dfVDWFhYaYkMO7atYuRI0caXj969Gg+/fRTvv32W6Hs/UsvvZTPPvvM8HqjWK1WvxcBMTExhsM8TeFyubBahV3jZ/DRRx9JybHpNOhSuo0WC284aivZMvv/4RGonEI/+AcgUMKtCGzk/tTpaOi5AI3XUbUAt9PBoRUfkTvxl4Y3ERGfTI8xE9n/uVjSVl5eHo8++igvvviikB1fExYWRliYWLwxEMnNzSU3N9dwS9nVq1dTVFTE3LlzhfZx8803C603ikhDpEBF0zTpYjc/P58nnnhC2E5YTDyZgk1/AI58s0j08Ad4GnX4t2vM6iCyF/gFkGrUQG3JMZKz+xEhUCITl96dirzd2KvEsnW3b99O79696dNHbEynwjdUV1ezatUqQ2s1TSMpKYm33nrLcClZVFQU//nPf9qlAPMFsl3/LpeL22+/nSNHjgjb6nn1rUR3EAspVh87zJFvhJMQdwL3Izg3WBHYyE4CbMAD/EnMhMa+pXOEkq4sFgt9rrudIAnuxd/85jfC/b4VvmHSpElCMeW//vWvQjkUN9xwQ7u8ifsCl8slPeTxwgsvSJlJkNJriPDgMjSNI6s/QcK5/STq9t/uMUsAACwAfhAxUHP8CCWC062iUzqRdbHYlC2AyspK7r77bumTxBTmk5mZKZQHINpCNtArMgIFM7L+N27cyAsvvCBsJyQimm6Xi5c1nti9gdqSfFEz61GZ/wrMFQAeoHX9WxvhwJcf4rKL/VB3veTnRKemi26F7777LuAHBrVXRHsCGCU9PZ2LL77YJ89ub9TV1eHxyLvUlpaWMnPmTCmiv+tl1wt3KXU77OR/LyWR9HGU61+BuQIAYCVwbju1VuCoreLo90JjBggKDqHP+NuEhwUBvPjiiyxcuFDYjsK7TJo0yScx+GnTprXpYT3+gt1ul+qdc7lczJw5U2jqYwMJWb1I7TtM2E7h+uU4rNXNv/D8fI7+vqxQmC4AAB4ChDJy8td8Qf1JsSmV8RnZdJUQCtA0jVmzZrFnzx5hWwrvkZiY6JMOiVOnijelUpwft9uN3W68hXhj/PnPf2bdunXCdkLCI+lxxRREK65tlaUymv54gD+IGlG0HbwhAH4A3hYx4HE52bvkHeGNdLv8BuK79BC2Y7VamTZt2hld4hT+j7fDAMOHDycnJ8erz2yP1NXVSZ30t2jRIl5//XUptrqPnSw87Ac0Dn31IR63sIdjLhB4Q04UpuENAQB6xqlQV46KQzsp2v690CYsQUHkTvwlwWHhQnYADh48yMyZM6WPGFWYx/jx472aje+r2v/2hOy4/759+3jooYek2ErNHU5KL/FphiU711NVcEDUTB0g3shA0abwVnCyBggHLhMxUpm/n06DLhY6wEMjowmLjqNsn9DgQkB/s3A6nVx++eXCthTmExoayp49eww3BWoNERER/Oc//5E++lfxEw6HQ6rrv6qqiqlTp1JaKhZuBIhISKH3dXcRFCxWguy0VrN38Rt4XMKljX8CFosaUbQtvJmdtAm4HWjdYPfT8DgdOGoqSe17gdBGYjtlUVdahLX0mJAd0OcFdOzYkcGDxQZ7KLxDeHg48+fPN/051113HTfddJPpz2mvuN1uqSV/LpeLO+64gx9+EKpcBnRPY5/r7yYiIUXY1sEv52EtKRA1UwhMA/y7J7TC63grBABQi15+IkTxjnWU7RMPY/W69lbC4xKF7QD8/ve/Z/Vq4QQdhRcYO3YsycnGZ0y0FFX7bx4NrX5lhd80TePBBx/ku+++k2IvY+TVxHbqKmznZN5uyveLeyqBh9FDAArFGXhTAICeDPitqJF9S+cID/kJjYqh3y/uwSKhRMvpdHLzzTezb5/wZC6FyYSGhjJhwgRTn5GamsrYsWNNfUZ7pr6+Xmrc/5///CcfffSRFFtx6T1IH36FsB23w8ahrz6QsCO+Bd6XYUjR9vC2ANCAmQi6omxVFRxaKf4Dm5CVQ/YVhicXn0FVVRUTJ07kxIkTUuwpzMPsaoCpU6dKn26n0LHZbFJb/X7yySf885//lGIrNDqOnGumY7GIv60e/W4xjlpjo6dPwwX8GtX0R9EE3hYAoI+g/JeokcINKzh5RPzGnTnqKtL6DRe2A/rEsOnTp0ufQa6Qy6hRo8jMzDTNvor9m4PspL/vv/+eBx54QEoowRIUTK9rbyMsJl7YVlXBAYp/WCNsB/19drsMQ4q2ia9alH0P3AwkiBipOLxLrwoIFevwlpw9gNK9W3DW1QjZASgoKCAmJkao97zCXCwWCydOnGDtWrE5E40xcOBAHn30Uel22zuyk/52797NrbfeKs1mt8snkJIzSNiOy17PnoX/xS3Y/hw98W8yIDwzWNF28YUHAPSElN+LGrFXn2Tv4tnCmwkOC2fAlF8TEh4pbAv06WGyO5Mp5GJWGEDd/uWjaRpWq1Va0t+hQ4ekNvLq0HsonQZdKsXW4RUfYq85KcPUA+iJ1wpFk/hKAAB8BCwVNXJi9ybhBkEAUSkdyZ14N6ItOwFOnDjBli1bhO0ozKNfv37k5uZKtRkSEsKkSZOk2mzvaJpGbW2ttMP/2LFj3HzzzZSVlUmxF5XSmR5XTpFi68Su9VIqnIAl6NNYFYrz4ksBAHqCilCHQID9S+cKzwoASOk1mG6XjRe2A3il2YxCDNlegCuvvJK0tDSpNtszDTd/WRn/xcXFTJ48mcLCQin2QiKi6D3+DoJCxIdM2SpLyftaypCxKvREa4WiWXwtAA4DwgFTl72enQv+gyYh+a775TeQ1n+EsB0VAvB/brzxRiwWcY9PA6r1r1xsNpu0hNry8nJuuukm8vPzpdizBAWRc810Kc1+NI+HA5/Pwe2U8p7xMHr8X6FoFl8LAICXEBwZDFB9LI+8byV0urRY6Hv9ncRn9hQy06VLF/G9KEwlIyODESPExR7o0wavvvpqKbYU+uHvcMjJX6uurubmm2/mwAHhfvo/0n3sjSRk9ZZiq2DtUmqKj8owtQp4TYYhRfvAHwSABtyDhISVI98spjJf/Ic8KCSUgVPvJyrZmDs3ODiYUaNGCe9DYT433iinD8SkSZMIDxcfMqXQvWeyPGiVlZVMmzaNnTt3SrEH0GX4laT1k1PlU1V4kMKNK2SYqgPuRtX8K1qBPwgAgDxAeASX5vGw48OXsNdUCm8oNCqGgTf9ltDI1k+Pu/baa0lNTRXeg8J8Jk6cSGhoqLAd5f6Xg91ux2YT6/LZQElJCRMmTGDbNintdAFI6TWEzIuukWLLaa3mwNJ3QE6C4yPAQRmGFO0HfxEAAK8Ay0SNOGqr2PHhSzJmZxOV0pH+U37dqoleMTExPPPMM8LPVniH5ORkxowZI2QjOzuboUOHStpR+8XpdEo7/AsKCpg4caJUt39ceneyr7oJGZVCmsfNvs9m47BKKUX8Cj2UqlC0Cn8SABpwJyB8fa8qOMjBLz8U3xGQ2LUXuZPuIagFrV2DQkJ5+rkX6dq1q5RnK7yDaDXArbfeKmkn7ReHw0FdnZx5NYcOHWLixIkcPSolrg5AZGIqva+7k6AQcW8RQN6qhVQfOyzDVCX6+6Zy/StajT8JAIBjSGgQBFCw7kuKd6yTYYrUPkMZctujxHTMaPI1cendGfbLp1hRFsyuQjk1xgrvMH78eKKjWx/qAQgKCpKWR9BecTqd0jry7dmzh0mTJlFUVCTFHkBYdBx9bvglIRHGvkfOpnT3Rool9C45xX2AnNIGRbvDV62Az8dWoC8g3KWl4tBOUnIGERYTJ7ypiLgk0odeTmK3PoTFxBERl0R0h86k9r2AHmMm0mPMRMKi43B7PKw7cIzcjA6kxEYJP1dhPqGhoezZs8dQ74bRo0fzq1/9yoRdtQ9kHv5r1qzh1ltvpaKiQoo9gNDIaHJ/cS+RSXL6O1hPFLJ38ZtocnobfAj8jwxDivaJvCJoucSjC4FuooYiElIY/sunCI2KEd9VKwgPDeGx60cxKEs1hgkE1q5dy1VXXdXqdR988AHXXCMnKay90XD4y+jy9+mnn/LAAw9I7b8REh5B31/MIiZNzuAol62OH957DltVuQxzBcAgQJ7aUbQ7/NEDAGAH1gEzENyjy1aHtfQ4af1GSG360hxuj4fv9x0jMyWeLkmxXnuuwhgZGRns2bOHvXv3tnjN6NGjefLJJ736fdVWcDgc0m7+b7zxBg8//DAul3jibwPBoWH0ueFXxHbqKsWepnnYt+QtakukeOudwDWAvAxHRbvEXwUA6PkADuAKUUN15SW4HfUkZ/cX31Ur8Ggaaw8cIzU+im4dhAYfKrzAlVdeyYoVKyguLm72tb169WL+/PmGcwfaM7IOf5fLxWOPPcYLL7wgYVc/ERQcQp/r7yY+I1uazSOrPqZs72ZZ5p4A3pdlTNF+8WcBALAGGArkiBqqKjxEaGQ08V16iO+qFWiaxsZDRaTERtE9VYkAfyY8PJwpU6ZQXFzMjh07mnzdhAkTmDdvHklJSV7cXdtAVp1/bW0td911F4sXS+j+eRqWoCB6j7+dhK59pNk8vnkVheuFK5wb+Bq9cZrK+lcIEwi+yzRgG9BR1JAlKIgBU+4jpddg8V219tnAXWMGce1gebcKhXns27eP999/n82bN1NZWUlcXByDBg3ixhtvZMCAAb7eXkBis9mkxOj379/PXXfdxeHDUsrofsQSHEyf8beT0K2fNJsVB39g75K3ZDX7KQIGAyUyjCkUgSAAAMaiNwkS9lgEh4Uz5LZHievcVXhTRhg/pCd3XD5AxY0V7QZN06T19l+2bBm//e1vqampkbCznwgKDqHPhLuJz+glzWZN8VF2zX8Rj8spw5wTGAN8J8OYQgGBIwBAbxX8NxmGwmLiGXbXk0QkJMsw12pGZnfmgWuGEx56ZnOhkydPsmjRIjZs2EBNTQ2xsbH079+fCRMm0LGjsANEofA6mqZRV1cnnKDncrl49tlnefXVV6VUDZxOcFg4/W+8j+jUTGm2bVXl7Hj/XzjrpAmVB4B/yTKmUEBgCQCAecBUGYaiO3TmgjseJ8RAr38Z9OyYyB8mXERCVARut5t//OMfPPfcc1it1nNeGxoayqxZs3j88ceJilK9BRSBgcfjwWq14hGseS8rK2PmzJmsXbtW0s5+IiQikoE3PUBkcic8kkYPu2x17PjgeeorpHnqPwEmouL+CskEmgCIQk8MHCjDWGK3Pgy6+QFp7T1bS2pcFH+4fhSP3D+Tzz77rNnX5+Tk8OabbzJwoJS/vkJhGm63G6vVKnyj3rx5M/fcc4/Uzn4NhEbFMOiWB4lISMXtlOKmx+Nysnvhf6k+dkiKPfRBaQMBuTEPhQL/rwI4GyfwOXALuhgQwlZZRs3xPFL7DscS5P2uyFa7k1f++TfWf7W0Ra8vLy9n7ty5REZGMnz4cJVHoPBLnE4ndXV1Qoe/2+3m+eef53e/+x3V1VIG5pxBWEw8Q2Y8QkR8Km6neG4CnBrws+QtqvL3SbF3ijhgD9B0WYpCYZBAEwAAVcAWYBoSZhnUV5ygrvQ4qX0v8PqBaj1xjB0fv9aqDGG3282KFSvYuHEjY8aMUXXoCr/CZrMJl/kVFBRw++23s2DBAuHwQWNEJXdkyIyHCY9NxmWXM31Q0zwc+GIOFQd/kGLvNIKA64FDKBGgkEwgCgDQ3WL1QOt7tzaCtawIW1U5Kb0Ge1UEHP1uKVUFxkZ4Hz58mHnz5pGTk0PPnj0l70yhaB0NyX5OQVf6xx9/zG233UZeXp6knZ1JQmZPBk9/iJDIGFySOhGCxuGvPqR0zyZJ9s5BiQCFKQSqAAA9F6Abej9sYWqLC3DW15LS03s13odWLMBRW2V4fV1dHfPnz2fv3r1ceumlKkFQ4RPcbje1tbVCt/WamhoefvhhnnvuOSnlgo2R2vcCBkz5NZaQMBz15ybbGkPj8MoFlOyQn6B4FkHAdcA+oPVTqxSKRghkAQDwGTASkNLer/pYHm6791oGH/56oZT44969e5k3bx49evQgJ0e4aaJC0WIa2vqKxPtXrlzJjBkzWL9+vcSdnUnXS66l989noBGEo84qLZ/+6HdLKNqyWo6x5glCrwZQngCFFAJdAHiAReiDMaQUylcVHiIoKJiELHkNQZqicMMKXHY5bkir1cqCBQs4ePAgF198sfIGKEynvr5eqLNfeXk5Dz/8MM8++6z0xj4NWIKC6DP+NrIuGoemaacOfzmnf8G6Lyhc/6UUW61AhQMU0gh0AQD65MDFwGT0McLCnMzbg8flJKl7rgxzTVJxeJfMWmEAdu/ezdy5c0lJSaF///6qUkAhHbfbLdzcZ8GCBdx+++1s27ZN4s7OJCQymoFTf01q7jDQNOx1dWiSkgqPbVxB/pqWVe+YgBIBCim0BQEAeo3sl8DNQIQMg1X5B/A4nST1ME8EuOw2yg9sl263rq6OJUuWsGrVKgYPHkxqaqr0ZyjaJ3a7nfr6esPx/vz8fGbNmsUrr7wiZShQU8SkZTBk+kPEpXfTD3+rFU1Kox+NI98sljncxyhKBCiEaSsCAOAE+tCgqUgoDwSoKjiAo7aa5J7m9O6PTk2naPv3uCWVIp1NYWEhb7/9NlVVVYwcOZKwsDBTnqNo+zRk+RtN0LPb7bz88svcd999HDxorPKlpXQcMIoBN91PWEyc7va31knq8qeRt+pjiraskmBLCkoEKIRoSwIA4CD6xKzxSOpyWHP8CLbqclJyBkkXAUHBwcR2zKR4x1ppccmz8Xg8bNiwgffee4/k5GRyc3NVWEDRKlwul1BL388++4w77riDzz//XLhM8HxYgoPJuXoa2VdOJig4+FTMvw6PW2wOAeh1/geXz/NGtn9rUdUBCsO0NQEAepOgSuBqWQZri/OpKyumQ+8h0jsGRiZ2ILZTV8r2bZXkomyc2tpalixZwueff0737t3p2rWrac9StA0apvgZddXv2rWLWbNm8d///teUbn6nEx6bwMBpD5CWOwzQ9bSjrg6P4BAiAM3tZv/Sdyjbt0XYlkmo6gCFIdqiAABYj/5DcZksg9bSY9SU5JPaZyiWILn/bFHJHenQZyhVBQeF+gK0hJKSEubNm8eWLVvo378/HTp0MPV5isDE5XIZTvQrLy/n6aef5rHHHqOgoMCE3Z1JQlYvBt/6e2JS04GGw98q5fD3uJzsW/ImFYd2Cts6nYwRV6K5XTJ/3pUnQNFq2qoAAFiFXhUwSpbBuvJiqgoO0qH3YOkDhMKiYuk06GI8TjtVhYel2m6MQ4cO8eabb1JYWEj//v2Jj5dSQKEIcDRNo76+HpvN1ura/urqav79739z3333sXnzZulje8/GEhRE99ET6HPd7YREROpfbHD7Szj8XbY69nzyGlX5+4VtnU7GiCvIGXcLqX2HUXFop2wRMAElAhQtpC0LAIDl6P0BLpBl0FZZRumezSRn9yc0KkaWWUB/Q0vO7k9CZk9OHt6N22FeljTob/bbt2/n1Vdf5dChQ/Tr14/ExERTn6nwX5xOJ1arFXcrQ1FWq5XXX3+dX/3qV6xevdq0Tn6nE5GQwsCbfkOnAaN+ymmR6Pa3VZWz66OXsZ6Q68HoNPgSel07A4vFQnBoGGn9RnDy8G7sNZWyHqHCAYoW09YFAMBSoCcgrb2fs95Kyc51xGf0JCI+WZbZH4lM7EDHARdiLT0uvU9AY3g8Hnbu3Mkbb7xBcXEx/fr1Iy4uzvTnKvyDhrr+1h7c9fX1vP7669xzzz0sX75cqClQa+g06GIG3fQbopLTfvriqVI/Gdn+tcX57ProZezVFcK2TqfjwAvpe/1dZyThBoWEkpY73AwRoKoDFM3SHgSAht4oaCAgrb2fx+ngxK4NRHdIJzqlkyyzPxIcFk7H/iMJj0uk8ug+KZnMzeF2u9myZQuvvfYax44do2fPniQlJZn+XIVv0DTtx7r+1rjra2pqmD17NjNnzuSLL76gXtpQnfMTEhlN7oS76XrpzwkKCfnx63qpn5zDv/zgD+xd9BpuSR06G0jNHUbuhF81mkQcFBJKap8LzAgHqJwAxXlpT/VgYcAHwA0yjVqCguj5s6lkjLhSptkzsFVVsHfxbMoPelfMBwUFMW7cOO6//34uvPBCrz5bYS4Oh6PVcf7i4mLeeOMN5syZY1rr3qZI6pFLn+vuICL+TEGqeTx6kx8JHf6Ob1nFkW8WSS/J7dB7CP0n34sl+Pz3LWddLVvf+Rs1xfkyH+9Cb5D2oUyjirZBexIAoHs83gJulW04Y8SV9PzZVOllgqdTtPU79i+bh8tWZ9ozmuKCCy7g/vvv57rrriO4mTcyhf/icrmw2WytivPv2bOHV155hUWLFplax98YoVEx9LxqKp0GXghn9a/wuD046sQPf03zcGTVJxRt+0bITmOk5g6j38R7mj38G3DZ6tj6zv9RfVzqOGQ3MAOYK9OoIvBpbwIAdBHwJjBdtuGUnIHkTribkMho2aZ/xF59kr1L3qZsv/wWwi2hS5cuzJgxg+nTp9O5c2ef7EHRetxuNzabrcVlfR6Ph9WrV/P666/zzTffmJ7R3xhp/UaQM24aYdHn5qNoLjf2Oqvwvly2OvZ//i6VR/YI2WmMjgMupO8Nd7X6UqA8AQpv0R4FAOh/7xeA+2QbjohPpv+U+4jr3FW26TMo27eNfZ/PxVZZZupzmiIoKIjLLruM22+/XXkF/JiGZj4tTfArKSnho48+Ys6cOeTnSz2AWkx4bAI519xCap+hjf652+nEWV8n7Km3lh5j3+I3sVWVixlqhM5DLqP3+NsMd9101VvZ+u7flSdAYSrtVQCA/nf/B/Bb2YaDQkLpfe10Og2+WLbpM3A77Bz5ZjH5a5d5JUmwKbKysrjllluYMmUK3bp189k+FD/RkODncDiavSW7XC6++uor3nvvPVavXt3qMkBZWCwW0oeNIXvsJILDG5/p5bI7cNnqEfVHlO7dzKEvP8Djkl+ymH7BaHpdO1245bYSAQqzac8CoIG/AQ+ZYThjxJX0vGpKi+N/RrGWFbHvs3c5mSffjdkaLBYLw4cPZ8qUKfziF79QFQQ+wOPx4HA4WnTw79ixg08//ZQFCxZQWlrqpR02TnxmT3pdPY3Y83jOnPX1uAR7DGhuN3mrP6Z4+3dCdpqiocmPLJx1tWx556/UFkvtR2A0HJAKdAE6o4dSS4AC4JjMzSm8hxIAOg8Bf8WEf4+EzJ70mzyL8NgE2abPoWTnBg5+Nd9nYYHTCQsL44orrmDixIlcffXVqtOgybjd7h8P/vOxd+9ePv30UxYvXkxentSbpSEi4pPIvvJG0nKHn5Pk9yOahl1Cgx9HbRX7lrxFTdERITvnI6ZjBkOmPyK1SZiPRUA34Hb0AWuDmnjNIfRS6znAZlkbVJiPEgA/MQ29QkD6zNzw2AT6TZpJQlaObNPn4HG5KNzwFXnfLsFVbzX9eS0hNDSUSy65hPHjx3PNNdeo5EGJtOTgP3DgAIsXL2bx4sUcOHDAi7trmuDQMLIuuobMi8YRHNr0j5ysMr+qwoPs/+xtnHXmly+2ERGQCjwJ/JKWvydqwALgD4B/fKMpzosSAGcyGvgYfYaAVCwWC12GX+GVkADobxh53yzm2MaVPs0POBuLxcLQoUO5+uqrGTt2LIMHD1YJhAZwOp04HI5Gs/rr6+v5/vvvWbVqFStXrvRZMl/jWEjrN5zsK288p6b/bDxu96kyP+MRf83joXD9cgrXL0fTxHsFtBRdBDxMaFSsNJtezAkYCSwEjHY4swF3o3sEFH6MEgDnMhC9fbAp19T4Lj3InfhLIpNSzTB/DvUVJzi04iNKdm0E4dQp+SQkJHDZZZcxduxYxowZQ1ZWlq+35Ldomvbjbd9z1o344MGDfP3116xatYp169Z5rS1va0jqkUv30ROI79Kj2de6HA5c9TY0ge9ZW2Up+5e+S22JbwRQgHoCpqJ7QhvPwmw5GvBH4H8F7ShMRAmAxskCPgf6mGE8ODyCXuNuodOgi8ww3yi1JQXkrVrEiT1b8Ech0EBWVhYXXnghI0aMYOTIkfTp04cgE5srBQINbn6n04mmabjdbnbv3s2mTZvYuHEjGzZsoLi42NfbbJKErF70GDOBhKyWdeKWkexXsnMdR1Z9jNvpWyFkhifARBHwKvAr5LaI/yvwqER7CokoAdA0SejhgEvNekBa7nB6/3y6qY2Dzqa2uIDDqxdR6udCoIG4uDhGjhzJsGHDGDhwIAMGDCA9Pd3X2zIdj8eD0+nE6XRSVlbGjh072LRpE5s2bWLLli3U1tb6eovNEt+lB91HTyCpR26LXq95PPo0P4EyRJetjkNffUD5Ad80ymoMc0RADVve+ZtsEWAWSgT4KUoAnJ8w9IZBvzLrARHxSfSd8EsSu0qbU9QiAk0InE5ycjIDBgz48SMnJ4eePXsSHe09IWUGdrudXbt2sXPnTnbt2sWuXbvYu3cvJSXmT4SUSWynLLqPnkBKzsAWr3G7XDjq6oT68FcVHODAF3Nx1EqbqicNJQKUCPBHlABoGb8EXgRCzTFvIX3oZWRfdSMh4ZHmPKIJrKXHKVi3nKLta/C4vNvnXTadOnUiOzub7OxsevToQffu3enUqRPp6emkpaX5RSihurqao0ePnvGRl5fH4cOHOXz4cItb9fojSd37knnhk224XAAAH+ZJREFUOJJ75DZd0nc2GjjtNlwCOQtuh438NUsp2vat9EE+MgmgxECzeA74va83ofgJJQBazsXAR+jlMabQXAtUM3HUVlO4cQWFG1firPN/93JrCQkJoWPHjqSnp9OxY0dSUlJITEwkISGBpKQkEhMTSUxMJCoqipiYGEJDQ4mMjCQ8PJzw8HAiIyPxeDxUV1cDUFdX92Pp3cmTJ9E0jYqKinM+ysvLKS8vp6ysjMLCQk6ePOnLfwbpWIKDScsdTuaFVxPbMbNVazWPB0d9vVB9/8m83Rxe8SH2Gv+79TeGWSJgy7v/R83xI9JsmogSAX6EEgCtoxvwCTDAzIecbwiK2bidDoq2fUfBui+pK/ffxDKFbwkJj6Tz0MvIGHFls+V8jaH38683PMzHaa3m8KqFlO/fZmh9K8gDMoAQWQZVOECFA/wFVYDdOirRa1t7AX3Neoj1xDGOb/mG0Mho4jpltdydKoGg4GDi0ruRMXwsiV174XE5qa8o8WoNtcJ/iU7pRNdLxpM78W469BpESEQrQ1aahtNmw2mzGd5D+f5t7P7kVawlph92i4Crga3AREBKDMlRW035oZ2k9R1GcGi4DJMEh4bTMXcEFXm7cfi/N+RiIBZY7uuNtHeUAGg9DmA+YEVvHGRKYNnjclK2fztVhQdJyOxJqBcrBQCwWIhM7EBq7jDSh15OWFQs9SdLcdnqvLsPhc8JCgmhQ5+h5Iy7mZ5XTSE+I5ugkNanwzSM8DXq8rdVlrJvyWyObVppdr6KE91N/VvADuwG9gET8GMREBQaRmqfoZQf2omjtlqKTRO5EIgEvvL1RtozKgQgxjDgA/TQgGkEBYeQfsFouo+Z4PUkwdPRNI2KQzsp3r6G0r1bcDvlT1JT+A8xHTNIH3IZHQeMIiQiSsiWy27HabcZKjhxOx0c37SSY5tWeCNR9ThwI/B9I382CZiHn4cDVE6AoqUoASBOMvA2cK3ZDwqPTaDH2El0GnihV8MCjeG22zixdzPFP6zlZN4e4V7tCv8gLDqW1L4X0GnQJcSli+taj9uNs95mrB21pnFi9waOfv8ZTqtXbrRfAbegT7lrihvR2+b6tQhQOQGKlqAEgBwswP3oo4WlDxM6m9jOXcm5ehoJmT3NflSLsNdUUrJzPSU71lF9/CiB1legvRMaFUOH3kNI6zeCxK69scgol9TA5TB+668tzidv1UJTJ/edhgt4Br1tbUuUrHxPQFoGQ2YoT4CvN9HeUAJALhcC76NnDZuMhY4DRpJ9xWTC4xLNf1wLsVVVUH7wB8r2baPi0C6/GkSk+ImQiChSeg0ire8wkrL7ERQs7Sw7NcSnzpBXyF5TydFvP6Vs31a8JCTz0CeBrmvluoDwBBSs/4r9n8udyTM0LYysuGAWHqiXahflCfA6SgDIJwl4GZjijYcFh4WTOepnZI76mXCcVjbOeitl+7dRtncr5Yd34bYbz/xWiBOZlEpydn9Seg4gsVtfgkLkHfqg54i47Hbcdnurj26XrY7jm7/m+JbVeFxeyy35AL3LZ5XB9X4tAoq3r2H3otelhueGpoXx2YRkYkKDuO2LChYoERDQKAFgHlOBl9AFgemEREbrQmDElQSHiw7yko/m8VBbnE/F4d1UHN7FyaP70AR6viuaJyg0jISMbJK655LUvS+xnbua9iyPy4Wjvr7Vh43bYeP4ltUc3/K1NwViJfAb4B0JtvxSBJh5+CeE6yEilwclAgIcJQDMJQ19wtZ13npgaFQMXYaPJWvU1X4pBBpw1VupyNtDxeFdVOYfwHriOCp3QAxLUBCxHTOJz8whObsfiVm9CAo1NyVF83hw2my4na3Lznc7HZzYuZbCDV/hrKsxaXeN8hVwByAzO86vcgJKdq5n18JX0TzyBPagDqEsnZhCUsSZ+SFuDe5cfpL390ovD1Y5AV5ACQDvMB19loC84F4zhEXHkjnqajJGXGH6ISADt91G1bHDVObvp+b4ESrz9+OySb9ZtCmCw8KJ6ZhJQmZPEjJ6kpCV47UwkKaBy2HDZWtdD3/N7ebE7vUUrP0Ch3cy+xuoB54G/o+WJfq1Fr8QAd48/BtQIiBwUQLAe3QHZgOXePOh4XGJdL34WjoNupjgMDkNR7yB5nZTW1JATXE+NUVHqSnOp7akALfDt/PdfUVwaBjRqenEpGUQ2zGThMwcolPT5WTstwYN3C4nTputVe5lt9POiZ3rOLZpJY5aoyF3w3wL3A4cMvk5Pg0HeMPt3xQqHBCYKAHgXSzArcA/8VJuQAMhEZF0GngxWReN86uqgdagaRr1FSXUFOlioK6ihLryYurLS9pQUyILkYkpxKRlEJPW5cfPkYmp3j/sz0Kv6a/H04rcDWddLcXbv6No2ze+6CJZBTwF/Btzbv2N4RNPgC9u/mejPAGBhxIAvqET8Dww2dsPDgoJoeOAC8kc9TOiO3T29uPNQdOwVZ/UxUBFCXUVJ7DXnMReVYG9phJ79Um/KkcMjYohIiGFyIQU/XNihzN+baTNrploHg8umx1XK0RWXXkxxzd/Tdnezb76t/8EuBe9s5+38aonwJc3/7NRnoDAQgkA33INeqVAV+8/2kJKzgAyL7yaxK69vf94L+OordLFQE0lrnorzh8/anHZ6n78tebx4Lbb0Dxu3E47Hrcbj9OBx+XEEhRE8KlWzMGhYXrtvMXyY9w9ODSM0MgYQqNiCIuKJTRK/3XD10IjYwiLjfdpO+dWoWk47XZc9paHXaoKDnB889eczNuDj5I6i4D7gIW+ePhpeEUEmHX4L5mQTGIrD/8GlAgIHJQA8D1RwB+BB5D4ZtEaYjtlkX7B5XTsN9KvKwcU3kHTNFwOO267o0Xjet0OG2V7t1C8Yw3WE4Ve2GGjuNBd/X8E/GUSjqkiwB8P/waUCAgMlADwHwaiewMu8tUGgsPCSes3gvQhlxHXpbuvtqHwEZqm4XY4cNrtepp/M9QUHaFkx1rK9m/F49scjK+BXwO7fLmJJjBFBHQefBkHlr3nl4d/A0oE+D9KAPgf44F/oVcN+IzoDp3pNPAiOg+5lNCoGF9uRWEyrTn43XYbZfu3ULz9e6ylx7y0wyY5DjwGvIt/N5GYBLwH+Fdyx2m0NuGvpajEQP9GCQD/JAJ9FvnjeLF3QGMEhYbp0+EGXiRvUIzCL9A0D26HA5fDgeZp+vzUNA9V+Qco3b2B8oM/eGMkb3NY0Q+A/wNqfbyXliLdEyAL2Tf/s3F5YPT8UjYWS/cSKU+AIEoA+DfJwP+gZzMH+3gvhEbFkNxzAGl9h5Hcc4ASAwGK5vHgsjtwO+1NX/g1jerjeZQf2EbZ/m3eGsfbHB7gI+Ah4KiP92IEv/MEmHXzP53Zu+qYteIk59GYIihPgABKAAQGA4B/AGN9vZEGwmMTSO07jLR+w4nv0gMs6lvJ3/G43Xpyn6OJG3zDob9/G+UHtnm7U19zfIn+Rv+DrzciiN94Asy++QO8udPKvSsqzY7PKE+AQdS7dmAxBvgT+thhvyEiPpnU3GGk5AwkIaMnlmCfOysUDZzq3OdyOPC4zq3H1zxuqo8d5uThXZTt34ajttIHmzwvG4AngeW+3ohEfC4C2tDh34ASAQZQAiAwuQL4f8AwX2/kbILDwonv0oOUnEF06DOEiPhkX2+pXaJ5NFxO/bZ/dqa4s66GyiN7qcjbReXRvf46pnkn8L/AAvw7wc8oPgsHDEyP4vNbMkiymZc+YbLbvylUOKCVKAEQ2FwB/AUY6uuNNEVkYgeSuueSkjOQpB79pM+gV/yEhj6W1+1w4HY5fzw2NY+HmqIjnMzbRVX+fmpLCvHjM3UP+vf0HLzXvtdXeF0EDEyP4vOZvUmMCsFSXQsn5c9l8NHh34ASAa1ACYDAx4L+RvIUkOvjvZyXBu9A/KnpdfFdeqjGQxLQPBpuZ0M2vwe3w05NUR41x/OoPp5HTdERX9fpt4TtwLPAfNr+wX86XgsHDMmI5rN7epEQ+dOjZIsAL7v9m0KFA1qIEgBtBwt6kuBvgJ/7eC8twhIURFRyRxIyc4jPzCYhM4fIxA6+3lZgoGm4nS5cLie2ynJ9cuLxw1QfO0xtcb7UoTAmswX9xt9WXf0twXRPwOk3/7ORJQJ8fPM/G+UJaAFKALRNRqCXSk0AAqpWLyI+mdhOWX43Cc8f0DwerCeOUV10lJqSQupKj2M9UYC9xu8S95pDA75Cv/F/7eO9+AumeQIau/mfjagI8JOb/9koT0AzKAHQtskGHgRmAAEygeZcgkPDiO7QmZiOmcSkdiEmrQtRKZ0Ij4lvm+WHmoa9phJrWRG1JwqpLS6gpriAurLj/tCERwQbemz/efQkP8WZvATMkmmwJYd/A0ZFgJ8e/g0oEXAe2uC7p6IRUoF7gLuBLj7eizSCQkKIiE8hMvHUKN2EDqdG6uq/D4uO8/UWm8RhrcZ2soz6yjLqK0uxVZZRf7IMW6X+4U/jiyVQhH64vQqU+ngv/spUdHEkrYa2NYd/A60VAX5++DegREATKAHQvghBzw+4B7iSAAsPtJag0DBCI6NPG88be9p43uhTn2MJDgsnOEQPv4ZERIHFQlBwCMGhYQAEh0diCQo6NSpYH2zidjr0Q1rTcNn0PudulxO3w4azrhZnfS3OOuupzzU4rDWnfl2Ls94aCEl5MvgGeAU9vt8u/sIGGQGsQm8BLgUjh38DLRUBZhz+CYOzCE+NpWSZdAeREgGNoARA+6UH8EvgdkBl3ilkUQG8g37b3+PjvQQCqcA2oJMsgyKHfwPNiQCzDv/Bb9xOcEQoO373PiVf7JBoHVAi4BxUy7b2y0n0RKwX0N+oU4BMlChUtB4N+BZ9bsWdwGdAmU93FDj8BYktvmUc/gCEh+mJtzb7OX9k5uEfEh2OJchC6lW5WA+VYj14QuJTuBg9F+ormUYDGfVmrzidTGAacDPQz8d7Ufg/+9Hj1u8CR3y7lYCkO7r4DpNhTNrhfxpnewLMPvxPR3N7lCfAZJQHQHE6VcB3wH+AT9BHrWYC/ptNp/A2ZcBs4H70N9FvgICrQ/QTHkCf7yGMGYc/cIYnwJuHP6A8AV5AeQAUzREEXIbuFbgOlS/QHikFPkbv0rcKaFMlCj5kKzBI1Ihph/9pvPV1AfcuLvLa4X86yhNgHkoAKFpDMPokwutPfWT7djsKEykCFqFn8K8CAqa1YIDQAShB8D3YG4f/m+tKuW9+HprE07+lh38DSgSYgxIAChG6A+OBycAo2nhZYTtgN7AYWAKsoX315Pc2Q4FNIgbO195XFrPXl3Lvh3lS2/smDM5i8Ou3ExLTssO/Ac3tYecj8ylevE3eZnTabdtgJQAUsugM/Aw9o3kMEsuaFKZRjt6K9wtgKfqtX+EdrkUXWoYY3CWapTPb/s3/bJQnQC5qNqtCFseBt059APRFFwNj0XMIEny0L8VP1KEnea5AT4Dahrrl+wqh996spHBiws3L4fbHwx/AEhxE/39MBZAtAh459bldiQDlAVB4g2B0l+do9FDBCKCjT3fUPihHd+WvAb4HNgDnFnYrfMEIYJ2IgYkDk3j71h6EBMl9G/fXw/90NLeHH+6fy4mvdkuxdxrtyhOgPAAKb+BGP3w2nPa1TGAk+hvhCGAIATywyA9wog/Y2Yx+4K8F9tF+R+z6O8dEDSzcXgEgVQQEwuEP4CirpfZAiTR7p9GuPAHKA6DwF0KBAehNZfr4eC+BwDZgPbAF/dDfgeq3H2gcRG/JLYQsT0CgHP72kmo23foqdUfLpdlshHbhCVCNgBT+ggc9Ce1GIMvHewkErkDPt9iM/u+myvQCj27oXjAh9pTUs6fYxvX9Ewk2KAJmrzfp8DeQ7X8+HGU1bL7tDeryTO80fTEQCyw3+0G+RJVtKdoS36O7v4+iz573d9Sh3b6Zg6QQzSc/VHDbnEO4DNTrvbmulFlmlPq9Iffwt5dUs3Haq1gPSe0KeD4eRJ/V0GZROQCKtsTj6K1pG0hEL0fseOojAYg/9fn0jyygl8Fn1gHF6MOV6k59VAM1p35dgd4+t/TU68pO+/12INfgcxWBz2bgI2CSDGNGcgICy+3/GnVHvT5jqk3nBCgBoGjLnDz10Vyq8M/RG+AYYSV6MySFwgh/AK4BomQYa40IMOPw73JBNy566y4qwuQ5l314+DfQZkWACgEoFAqF79gP3IrEao2F2yuY/u4hnO6mTc5eX8qvTTj8p747k+zEWNJCQ6XYdJTVsPn2N3x5+DfwCPB3X29CNkoAKBQKhW9ZCPyvTIMfb6/g9rmN5wSYEfPvckE3bpozi/DYCACywsKERYAPYv7N0eZyApQAUCgUCt/zR+AZmQY/2nauJ8DMm3/YWQl/IiLAj27+Z9OmPAEqB0ChUCj8gydOff6DLIMfN+QE3NKDuZvKpA/2aTj8G27+Z5MVFgZAidPZYpuOsho2TX/dn27+Z/Pgqc8BP0BICQCFQqHwH55Af19+pLkXtpSPt1eQf9LOlgKr9Jv/TXNmnXPzP5ussDAsmkaxy9WsTTMS/iKCLYzoFMbqQqldsB8EXAR4YqAKASgUCoV/8SiSwwGb8+Uf/o25/ZsiMzycjiHnv2+a4fYPC7bw3rVJLJ2YwtTeUgotTifgwwHKA6BQKBT+h/RwgCyac/s3RWa4LhYa8wSY4fYPC7bw/rVJXNNN3+cbVyUC8P7eOmnPIMDDAcoDoFAoFP7JE0j2BIhi9PBvoDFPgDcOf4Bgiy4CTPAEPEiAegKUAFAoFAr/xW9EgOjh38DpIsBbh38DSgSciRIACoVC4d/4XATIOvwbyAwPJ/5kvVcP/waUCPgJJQAUCoXC/3kC+LMvHiz78AeoLa1m1a2veP3wb0CJAB0lABQKhSIweBIviwCzDv+5N/6bsgMl0my25vBvQIkAJQAUCoUikPCaCGjLh38D7V0EKAGgUCgUgYXpIqA9HP4NtGcRoASAQqFQBB6miYD2dPg30F5FgBIACoVCEZg8CfxVttHYtHhCI8Ok2aspruLdic9LPfwjgi0sGC/n8G8g2AKvX5nIpJ6R0myewm+nCCoBoFAoFIHLo0j2BOz5bBsfz5qNx+UWtlVbWs17N71IRV6phJ3pNLT3vSpL3uHfQEgQvD0uqd20DVYCQKFQKAIb6eGAvUu38fGst4VEgL+7/ZuiPYUDlABQKBSKwMevRECgHv4NtBcRoASAQqFQtA2k5wTsXbqNT+57B4/L0+I1gRLzbw6TcwIekm3UCEoAKBQKRdvhUSQnnO1ZspVP7nu7RSKgpriKOZNfkBrzjwgJ4sObMkyJ+TdHSBDMvjrJDBHwLDBcttHWogSAQqFQtC0ewwciwKzD/4M7enLlkI6QGC/NbmswSQQEA0/LNGgEJQAUCoWi7fEYksMBe5Zs5ZNfNy4CzDz8r+qtH/xaXExbEwFXAIkyDbYWJQAUCoWibSK/RHDxVj6598wSQbNK/ebelv3j4d+Ar0WA5BLBECBXljGjG1AoFApF2+RJIBS9Dl0Kez7bBkEWbvj3DKxlNabf/M9Gi4vBAnCyStozW0pDYqDLrbHgQL0MkwkyjBhFCQCFQqFo2zx66rM8EbB4Kx6nm9J9RV49/BvwpQhoCAdAhQwRIG8esgGUAFAoFIq2z6OAE3hClsF9X/wgyxTQtNu/KXwtAt4el0RI8Ene31tn1IwVkPuP2EpUDoBCoVC0D0yZHSCDiJAg5t+ZwzV9W+cR92VOgIQ+AR8ANolbajVKACgUCkX74VH8TAS01O3fFL5ODDRYHVCFKgNUKBQKhZfxGxEgevg34A8i4MaclomAsGAL1/aOexL+f3t3H1vVXcdx/H3vLQVGC5TgwxBjBmOLIVP2h5glCyZG1GUPPhAXNWyDZFvURBO3TAGL4lNYGPxhZpyL/iGuujFFFkEDSxhz2TSoU3BjdN1AhY1RGBcohfLQ9vrHoVoHpffhdx5u+34lDaE553d+JaHfz/19z/kd9sU7s+EZACRp9Ek9BIQq/gPSDgFrb5jCt66byLhCbsjjrpjUwJZPT2X9jS2ru1fMnpPgFC/KmwAlaXQK/nRAuUIX/wFp3hiYA5bObea2917Gz3efYtu+M7xxso/GQo6rWxq4ccY4br1qPI2FHPT2Njac6N7evWL2B5tW7NqR+GTPMwBI0ui1BOgFvpHUBSu9279SaYYAgOnNBZbNbWbZ3OZLH5iBEGALQJJGt1bg+0lcqLGQ49HFsyq+279SabYDKvK/EJBKO8AAIEmKPQQkVfwHGAKGZwCQJEGMISDp4j/AEHBpBgBJ0oBWYng64LormmPr+Q/HEDA0A4AkabAlBF4J+MOrXdz+yB7O9ZVCDls2Q8DFGQAkSW8VvB2wYWeRO9oMAcNKMAQYACRJFxO8HbBhZ5HFv9hDb78h4JKGDgF5YC7wBaL9G+4EZld7GQOAJGkowXcMXL+jyKI2Q8CwLgwBnwNeAbYDDwH3Az8BXgT+Bnyk0ksYACRJl2IISEtvb2O+q3v7uyeNeRz4JTBjiCOvBbZQ4YZOBgBJ0nCWEH3iDMYQUJ7vPFts3H/83GfKODQPfA9YWe7YBgBJUjmWEhWYYNbvKPp0wCW8dOQcD/zlRKWnLQFWl3OgAUCSVK7lBF4J8MbAoT244yRVZqN7KWMlwAAgSarEUmwHJOLJf52u5fQlDBMCDADKmorXuwY5FmwWyRhNP6tGFtsBMTvbV+JAd1+tw1yyHWAAUNb8s8rz+oB9ISeSgGp/1lNAZ8iJSFWwHRCjXC7YUEO2AwwAyprfV3neH6m/T8XV/qxPEr3DXUqb7YCYjMnnmNZUCDXcRdsBBgBlzRbghSrOK+uu14z5FfDvKs5bE3oiUg0MATGZ/56xIYdbAtwz+BsGAGVNP3AXUMndL+uA38YznVidAe4mal+U6yHg2XimI1XNEBCDL1/bRD5cKwBgFfCxgb8EW1+QAnod+AdwM9A4zLEbgduAczVc7yrg81We2wE8WsO19wB7gRuBhmGObQO+SBSSpKzZCowDrg814O6DPXQcOs0t17SQD9gUL9vYRnL5PJw+k/y1gbdfVuBMHzx34GyoIfPAR4GHgbMGAGVVB/AbYDowiwtXq14Dvnb+q9b/HWkGAIjCzkaibT5nAG/9TbcX+ArwbSz+yjZDQGAfmj6WjqO9vHQk2G0/E4h+Zz6dwr+mVLG3AfOAdwHHgZeBPxOuGN5EVICrsYlopSKUaUS/PN9JdFPjLqIXfaSzDipVZyVRzzmYBXOm8LOFM2kIvCZerlxXNxw9nsq1e/th0eYiv36lJ9SQJ4DLh1tylLLgMLA+7Ukk5ADweNqTkGq0lOhJldZQA67fUaS/BGsXzmRMIfkQUJrYBKUSuWNdiV+7IQ9rb5hCQ+Eoj7WfCjFkMzDfFoCUfgtAGom2Ebgd0N7ZQ8fhFNsB48ZCLkcuhXZAPgc3zRgftQOKQdoBpwwAkgFAistWoptb54UacPfBHto7oxBQSKMdkHII+MSV49l7vI8X36zlvmcA+g0AkgFAitM2AoeA9s4e2g+N3hBw88wwIcB9ACRJcRtx2wYzqZnS5ImpXLqQg5/Ob+HKyTXdxjfVACBJSsKIe4FQmiFgxZ+6ePVYTfcCFA0AkqSkLCdwCNiws8gdbaMrBLQ+18Xqv9byMlEADvgYoCQpScuJ7gkItk/Ahp1F8jnS2ydgUjMlSOQRwfueOc6Df+8OMVS7KwCSpKTZDqhC63NdoYo/wEZXACRJaRiRKwHkcrHsGBjwkz9ELyLb7AqAJCktI24lII63CAb+5A/wI+CY+wBI7gMgpWnk7RMQ8AVCgW74G+wEcCtw0haAJCltI64dUJrYFL3Ws4Z2QOBl/wFfAg6BGwFJkrLBdsAgMSz7A6wC2gb+4gqAJCkrXAkgtk/+bcCywd9wBUCSlCWjeiUgpk/+64DFQN/gbxoAJElZM+J2DCwnBMRwwx9ExX8hcMG+wQYASVIWjaoQkHTxBwOAJCm7RkUISKP4gwFAkpRtIzoEpFX8wQAgScq+ERkCWp8/k1rxBx8DlCTVh+Xn/2wNNeCGnUUA1i6cyZhCso8Itm7az5pn3ww9bNnFH1wBkCTVjxGxEtC6aT9rnnoj9LAVFX8wAEiS6ktdh4CsFH8wAEiS6k9dhoAsFX8wAEiS6lNdhYCsFX8wAEiS6lddhIAsFn/wKQAJ4HRK50qqXaZfIHTfE/v44TMHA83sv9qARbxlb/9KuQIgwYEazn092CwkVWspcH/IAdfvKLKobQ+9/dWvBGS5+AMUap6KVP+OAHcDzVWcuxJ4Oex0JFVhK9FKwLxQA+4+2EN752luuaaFQoUrAa2b9vODp4MX/3XAHQQo/mAAkABKwGQq/8WxD/gqNfTgJAW1DRgHXB9qwPbOHjoORyEgnysvBNz3xL44in8bcDuBij8YAKQBzwOfBVrKPL4E3Am8ENuMJFVjK4FDwO6DPXQcKi8EZH3ZfzADgBQ5Q/SLYwHQNMyxJeCbwMNxT0pSVVIJAfVU/MEAIA12iKjHdjUwa4hjXgPuAn6c1KQkVSXREFBvxR8g2bcfSPXjWuCTREGgCdgPPAX8Dh/9k+rJSgI+IgiwYM6U/3tEsB6LvyRJo8F3iVp3wb4+9f4ppa4HPlC698OXBx33/NdjuE+PJElBrCRwoZ45dVwcxf8RbM9LkhRU8JWAwF9+8pckKSZZDQEWf0mSYpa1EGDxlyQpIVkJARZ/SZISlnYIsPhLkpSStEKAxV+SpJQlHQIs/pIkZURSIcDiL0lSxsQdAiz+kiRlVFwhwOIvSVLGhQ4BFn9JkurEPUAvtRf/Vbi3vyRJdeXjQCfVFf7jwMLkpyxJkkKYAHwdOEZ5hf8s8DDwjjQmW4lc2hOQJKkOTADmAzcD7wOmAVOBInAQ2AVsAjYThYXM+w85urnBArqxRAAAAABJRU5ErkJggg==;fontStyle=1" parent="1" vertex="1">
          <mxGeometry x="844.6899999999999" y="385" width="56.88" height="56.88" as="geometry" />
        </mxCell>
        <mxCell id="-HBnphbrW939YIXCwKM4-58" value="&lt;b&gt;&lt;i&gt;SQL&lt;/i&gt;&lt;/b&gt;" style="image;aspect=fixed;perimeter=ellipsePerimeter;html=1;align=left;shadow=0;dashed=0;spacingTop=3;image=img/lib/active_directory/sql_server.svg;labelPosition=right;verticalLabelPosition=middle;verticalAlign=middle;" parent="1" vertex="1">
          <mxGeometry x="231.5" y="130" width="38.5" height="50" as="geometry" />
        </mxCell>
      </root>
    </mxGraphModel>
  </diagram>
</mxfile>
